<?xml version="1.0" encoding="utf-8"?>
<!-- Generator: Adobe Illustrator 27.9.0, SVG Export Plug-In . SVG Version: 6.00 Build 0)  -->
<svg version="1.1" xmlns="http://www.w3.org/2000/svg" xmlns:xlink="http://www.w3.org/1999/xlink" x="0px" y="0px"
	 viewBox="0 0 341 308" enable-background="new 0 0 341 308" xml:space="preserve">
<g id="Capa_1">
	<g>
		<g>
			<defs>
				
					<rect id="SVGID_00000072990074122905163040000001327538131867813269_" x="-1109.8" y="-2297.6" transform="matrix(6.123234e-17 -1 1 6.123234e-17 684.875 -1974.375)" width="930" height="1936"/>
			</defs>
			<clipPath id="SVGID_00000052801916141556933020000004810836287595846818_">
				<use xlink:href="#SVGID_00000072990074122905163040000001327538131867813269_"  overflow="visible"/>
			</clipPath>
			<path clip-path="url(#SVGID_00000052801916141556933020000004810836287595846818_)" fill="#21708A" d="M-2214.2-432.1
				c60.5,93.2,213.5-286.5,328.4-246.2c150.4,52.7,330.8,55.7,498.3-2c154.5-53.3,289.9-148.9,430.3-232
				c140.4-83.1,298.4-157.2,455.3-155.3c126.6,1.5,236.1,52.3,348.4,91.1c112.3,38.9,242.4,66.1,366.6,21.7
				c124.9-44.7,236.5-158.5,361.6-147.6c91.7,8,147.4,82.6,233.2,105.7c82.6,22.2,179.3-6.2,267.7-36.7
				c88.4-30.6,181.7-64.4,268.8-53c87.1,11.4,157.8,90.2,115.9,165.5L-1926.5,588.5L-2214.2-432.1z"/>
		</g>
	</g>
	<g>
		<g>
			<g>
				<path fill="#F2F2F2" d="M321,299H20c-6.6,0-12-5.4-12-12V21c0-6.6,5.4-12,12-12h301c6.6,0,12,5.4,12,12v266
					C333,293.6,327.6,299,321,299z"/>
			</g>
		</g>
		<g>
			<g>
				<path d="M101.6,233.7v-14.5h5.2c1.9,0,3.3,0.3,4.2,1c0.9,0.7,1.4,1.6,1.4,2.8c0,0.7-0.2,1.3-0.6,1.9s-1,1-2,1.4
					c0.6,0.2,1.1,0.4,1.5,0.6c0.4,0.3,0.7,0.5,0.9,0.9s0.3,0.6,0.4,1c0.1,0.3,0.1,0.7,0.1,1c0,1.3-0.5,2.3-1.4,3
					c-0.9,0.6-2.4,1-4.3,1H101.6z M104.5,225.3h2.8c0.3,0,0.6,0,0.9-0.1c0.3-0.1,0.5-0.2,0.7-0.3c0.2-0.1,0.4-0.3,0.5-0.6
					c0.1-0.2,0.2-0.5,0.2-0.8c0-0.6-0.2-1.1-0.7-1.4c-0.5-0.3-1.1-0.5-1.8-0.5h-2.6V225.3z M104.5,231.5h2.6c0.9,0,1.5-0.2,2-0.5
					c0.5-0.4,0.7-0.8,0.7-1.4c0-0.4-0.1-0.8-0.3-1.1s-0.5-0.5-0.9-0.7c-0.4-0.1-0.8-0.2-1.3-0.2h-2.8V231.5z"/>
				<path d="M120,233.9c-1,0-1.9-0.2-2.6-0.7c-0.8-0.4-1.3-1-1.7-1.8c-0.4-0.8-0.6-1.7-0.6-2.8c0-1.1,0.2-2,0.6-2.8s1-1.4,1.7-1.9
					c0.8-0.5,1.6-0.7,2.7-0.7s1.9,0.2,2.6,0.7s1.3,1.1,1.7,1.9s0.6,1.8,0.6,2.9c0,1-0.2,2-0.6,2.8c-0.4,0.8-1,1.4-1.7,1.9
					C121.9,233.7,121,233.9,120,233.9z M120,231.8c0.5,0,0.9-0.2,1.2-0.5c0.3-0.3,0.5-0.7,0.7-1.2c0.1-0.5,0.2-1,0.2-1.6
					c0-0.5-0.1-1.1-0.2-1.5s-0.3-0.9-0.7-1.2c-0.3-0.3-0.7-0.4-1.3-0.4c-0.5,0-0.9,0.1-1.2,0.4c-0.3,0.3-0.5,0.7-0.7,1.1
					c-0.1,0.5-0.2,1-0.2,1.6c0,0.5,0.1,1.1,0.2,1.6c0.1,0.5,0.4,0.9,0.7,1.2C119,231.6,119.4,231.8,120,231.8z"/>
				<path d="M130.7,233.9c-0.8,0-1.4-0.1-1.8-0.3c-0.4-0.2-0.8-0.4-1-0.7s-0.4-0.6-0.4-1s-0.1-0.7-0.1-1.1v-12h2.9v11.6
					c0,0.4,0.1,0.7,0.2,0.9c0.2,0.2,0.5,0.4,0.9,0.4l0.5,0v1.8c-0.2,0.1-0.4,0.1-0.6,0.2C131.1,233.9,130.9,233.9,130.7,233.9z"/>
				<path d="M138.5,233.9c-1,0-1.9-0.2-2.7-0.6c-0.8-0.4-1.4-1-1.8-1.8c-0.4-0.8-0.6-1.7-0.6-2.8c0-1,0.2-2,0.6-2.8
					c0.4-0.8,1-1.5,1.7-2c0.7-0.5,1.6-0.7,2.7-0.7c1.1,0,1.9,0.2,2.6,0.7s1.3,1.1,1.6,1.8c0.4,0.8,0.5,1.7,0.5,2.7v0.8h-6.9
					c0,0.5,0.1,1,0.3,1.4s0.4,0.7,0.8,0.9s0.7,0.3,1.2,0.3c0.5,0,0.9-0.1,1.3-0.3c0.4-0.2,0.6-0.6,0.8-1h2.6
					c-0.1,0.7-0.4,1.4-0.9,1.9c-0.5,0.5-1,0.9-1.7,1.2C139.9,233.8,139.2,233.9,138.5,233.9z M136.2,227.5h4.2
					c0-0.4-0.1-0.8-0.2-1.1c-0.2-0.3-0.4-0.6-0.7-0.8s-0.7-0.3-1.2-0.3c-0.4,0-0.8,0.1-1.1,0.3c-0.3,0.2-0.6,0.5-0.7,0.8
					S136.2,227.1,136.2,227.5z"/>
				<path d="M149.8,233.8c-0.9,0-1.6-0.1-2.1-0.4c-0.5-0.2-0.8-0.6-1-1s-0.3-0.9-0.3-1.5v-5.6h-1.7v-2h1.8l0.7-3.1h2.1v3.1h2.3v2
					h-2.3l0,5.5c0,0.3,0,0.4,0.1,0.6c0.1,0.1,0.2,0.2,0.3,0.2c0.1,0,0.3,0.1,0.5,0.1h1.4v1.8c-0.1,0.1-0.4,0.1-0.6,0.2
					C150.7,233.8,150.3,233.8,149.8,233.8z"/>
				<path d="M154.1,233.7v-10.3h2.8v10.3H154.1z M156.4,222.2l-2,0l1.3-2.9h2.9L156.4,222.2z"/>
				<path d="M159.8,233.7v-10.3h2.9v1.5c0.2-0.3,0.4-0.5,0.6-0.7c0.3-0.2,0.6-0.4,1-0.6c0.4-0.2,0.9-0.2,1.4-0.2
					c0.6,0,1.2,0.1,1.8,0.4c0.5,0.2,1,0.6,1.3,1.2c0.3,0.5,0.5,1.2,0.5,2.1v6.8h-2.9v-6.5c0-0.6-0.2-1-0.5-1.3
					c-0.3-0.3-0.7-0.4-1.2-0.4c-0.3,0-0.6,0.1-0.9,0.2c-0.3,0.1-0.5,0.3-0.7,0.5c-0.2,0.2-0.3,0.5-0.3,0.8v6.6H159.8z"/>
				<path d="M183.4,233.9c-1.4,0-2.5-0.3-3.5-0.9s-1.8-1.4-2.3-2.5s-0.8-2.4-0.8-4c0-1.5,0.3-2.9,0.8-4c0.5-1.1,1.3-2,2.3-2.6
					s2.2-0.9,3.5-0.9c1.3,0,2.5,0.3,3.5,0.9c1,0.6,1.8,1.5,2.3,2.6c0.5,1.1,0.8,2.4,0.8,4c0,1.5-0.3,2.8-0.8,4s-1.3,2-2.3,2.6
					S184.7,233.9,183.4,233.9z M183.4,231.5c0.7,0,1.3-0.2,1.8-0.5s0.9-0.9,1.2-1.6c0.3-0.7,0.4-1.7,0.4-2.9c0-1.2-0.1-2.2-0.4-2.9
					c-0.3-0.7-0.7-1.3-1.2-1.6c-0.5-0.3-1.1-0.5-1.8-0.5c-0.7,0-1.3,0.2-1.8,0.5c-0.5,0.4-0.9,0.9-1.2,1.7s-0.4,1.7-0.4,2.9
					c0,1.2,0.1,2.1,0.4,2.9s0.7,1.3,1.2,1.6S182.7,231.5,183.4,231.5z"/>
				<path d="M193.6,233.7v-8.3h-1.9v-2h1.9v-1.5c0-0.8,0.2-1.5,0.7-1.9c0.5-0.5,1.2-0.7,2.1-0.7h2.4l0,1.9h-1.4
					c-0.4,0-0.6,0.1-0.8,0.3c-0.1,0.2-0.2,0.5-0.2,0.9v1h2.2v2h-2.2v8.3H193.6z M200.4,221.9v-2.6h2.8v2.6H200.4z M200.4,233.7
					v-10.3h2.8v10.3H200.4z"/>
				<path d="M210.6,233.9c-1,0-1.8-0.2-2.6-0.6c-0.8-0.4-1.3-1-1.8-1.8c-0.4-0.8-0.6-1.7-0.6-2.9c0-1.1,0.2-2,0.6-2.8
					c0.4-0.8,1-1.4,1.7-1.9c0.8-0.5,1.6-0.7,2.6-0.7c0.9,0,1.6,0.2,2.2,0.5s1.1,0.8,1.5,1.4s0.6,1.3,0.6,2h-2.4
					c0-0.3-0.1-0.5-0.3-0.8c-0.1-0.3-0.4-0.5-0.6-0.7s-0.6-0.3-1-0.3c-0.7,0-1.2,0.3-1.7,0.8c-0.4,0.5-0.6,1.3-0.6,2.4
					c0,1,0.2,1.8,0.6,2.4c0.4,0.6,1,0.9,1.7,0.9c0.4,0,0.7-0.1,1-0.3s0.5-0.4,0.6-0.7c0.1-0.3,0.2-0.5,0.3-0.8h2.4
					c0,0.7-0.3,1.4-0.6,1.9c-0.4,0.6-0.9,1-1.5,1.4C212.2,233.8,211.5,233.9,210.6,233.9z"/>
				<path d="M217.4,221.9v-2.6h2.8v2.6H217.4z M217.4,233.7v-10.3h2.8v10.3H217.4z"/>
				<path d="M226.2,233.9c-0.7,0-1.2-0.1-1.8-0.4c-0.5-0.2-0.9-0.6-1.3-1.1s-0.5-1-0.5-1.7c0-1.1,0.4-2,1.3-2.6s2.2-0.9,4-0.9l1.3,0
					v-0.6c0-0.5-0.1-0.8-0.4-1.1c-0.3-0.3-0.7-0.4-1.3-0.4c-0.4,0-0.8,0.1-1.2,0.3c-0.4,0.2-0.6,0.5-0.8,1h-2.4
					c0-0.7,0.3-1.4,0.7-1.8c0.4-0.5,0.9-0.8,1.6-1.1c0.7-0.2,1.4-0.4,2.3-0.4c1.1,0,1.9,0.1,2.5,0.4c0.6,0.3,1.1,0.6,1.4,1.1
					c0.3,0.5,0.4,1.1,0.4,1.7v7.3h-2.4l-0.2-1.8c-0.4,0.7-0.8,1.3-1.3,1.5C227.6,233.8,226.9,233.9,226.2,233.9z M227.2,232
					c0.3,0,0.5,0,0.8-0.1s0.5-0.2,0.7-0.4s0.4-0.3,0.5-0.6c0.1-0.2,0.2-0.4,0.2-0.6v-1.5l-1.1,0c-0.5,0-0.9,0.1-1.4,0.2
					c-0.4,0.1-0.8,0.3-1,0.5c-0.3,0.2-0.4,0.6-0.4,1c0,0.5,0.2,0.9,0.5,1.1C226.3,231.9,226.7,232,227.2,232z"/>
				<path d="M238.2,233.9c-0.8,0-1.4-0.1-1.8-0.3c-0.4-0.2-0.8-0.4-1-0.7s-0.4-0.6-0.4-1s-0.1-0.7-0.1-1.1v-12h2.9v11.6
					c0,0.4,0.1,0.7,0.2,0.9c0.2,0.2,0.5,0.4,0.9,0.4l0.5,0v1.8c-0.2,0.1-0.4,0.1-0.6,0.2C238.6,233.9,238.4,233.9,238.2,233.9z"/>
			</g>
			<g>
				<path fill="#FF8540" d="M213,127.7h-8.4V96c0-0.6-0.2-1.4-0.9-2.1L185,75.1c-0.5-0.6-1.3-1-2.2-1c0,0,0,0,0,0s0,0,0,0h-54.7
					c-1.6,0-2.9,1.3-2.9,2.9v34.1H119c-1.6,0-2.9,1.3-2.9,2.9v45.4c0,7.9,6.4,14.6,14,14.7h0h71.7c0,0,0,0,0.1,0
					c7.8,0,14.2-6.4,14.2-14.2v-29.2C216.1,129,214.7,127.7,213,127.7z M185.7,84.1l9,9h-9V84.1z M131,79.9h48.9v16
					c0,1.6,1.3,2.9,2.9,2.9h16v57.8h-5.4v-35.1c0-1.6-1.3-2.9-2.9-2.9h-37.8l-12.4-7.1c-0.4-0.3-0.9-0.4-1.5-0.4H131L131,79.9
					L131,79.9z M130.1,168.2c-2,0-4.1-1-5.7-2.6c-1.6-1.7-2.5-3.9-2.5-6.2v-42.4H138l12.4,7.1c0.4,0.3,0.9,0.4,1.5,0.4h35.7v35.4
					c0,3.1,1,6,2.7,8.3H130.1z M210.1,159.9c0,4.6-3.7,8.3-8.3,8.3c-3.7,0-6.8-2.4-7.9-5.7h7.9c1.6,0,2.9-1.3,2.9-2.9v-26h5.5
					L210.1,159.9L210.1,159.9z"/>
				<path fill="#FF8540" d="M178.3,130.9h-14c-1.6,0-2.9,1.3-2.9,2.9s1.3,2.9,2.9,2.9h14c1.6,0,2.9-1.3,2.9-2.9
					S179.9,130.9,178.3,130.9z"/>
				<path fill="#FF8540" d="M178.3,142.2h-14c-1.6,0-2.9,1.3-2.9,2.9s1.3,2.9,2.9,2.9h14c1.6,0,2.9-1.3,2.9-2.9
					S179.9,142.2,178.3,142.2z"/>
			</g>
		</g>
	</g>
</g>
<g id="Capa_2">
</g>
</svg>
