<?xml version="1.0" encoding="utf-8"?>
<!-- Generator: Adobe Illustrator 27.9.0, SVG Export Plug-In . SVG Version: 6.00 Build 0)  -->
<svg version="1.1" xmlns="http://www.w3.org/2000/svg" xmlns:xlink="http://www.w3.org/1999/xlink" x="0px" y="0px"
	 viewBox="0 0 341 308" enable-background="new 0 0 341 308" xml:space="preserve">
<g id="Capa_1">
	<g>
		<g>
			<defs>
				
					<rect id="SVGID_00000165933800870865807500000011077906908720247696_" x="-736.5" y="-2629" transform="matrix(6.123234e-17 -1 1 6.123234e-17 1389.5 -1932.5)" width="930" height="1936"/>
			</defs>
			<clipPath id="SVGID_00000181807674839325036380000014587099049112829110_">
				<use xlink:href="#SVGID_00000165933800870865807500000011077906908720247696_"  overflow="visible"/>
			</clipPath>
			<path clip-path="url(#SVGID_00000181807674839325036380000014587099049112829110_)" fill="#21708A" d="M-1841-763.4
				c60.5,93.2,213.5-286.5,328.4-246.2c150.4,52.7,330.8,55.7,498.3-2c154.5-53.3,289.9-148.9,430.3-232
				c140.4-83.1,298.4-157.2,455.3-155.3c126.6,1.5,236.1,52.3,348.4,91.1c112.3,38.9,242.4,66.1,366.6,21.7
				c124.9-44.7,236.5-158.5,361.6-147.6c91.7,8,147.4,82.6,233.2,105.7c82.6,22.2,179.3-6.2,267.7-36.7
				c88.4-30.6,181.7-64.4,268.8-53c87.1,11.4,157.8,90.2,115.9,165.5L-1553.3,257.1L-1841-763.4z"/>
		</g>
	</g>
	<g>
		<g>
			<g>
				<path fill="#F2F2F2" d="M321,299H20c-6.6,0-12-5.4-12-12V21c0-6.6,5.4-12,12-12h301c6.6,0,12,5.4,12,12v266
					C333,293.6,327.6,299,321,299z"/>
			</g>
		</g>
		<g>
			<path d="M98.5,218.2v-14.5c0.1,0,0.3,0,0.6,0c0.3,0,0.7,0,1.2,0s0.9,0,1.4,0c0.5,0,0.8,0,1.1,0c1.8,0,3.2,0.4,4.3,0.9
				c1.1,0.6,1.9,1.4,2.4,2.5s0.8,2.3,0.8,3.7c0,1.5-0.3,2.8-0.8,3.9c-0.5,1.1-1.4,1.9-2.5,2.5c-1.1,0.6-2.5,0.9-4.3,0.9H98.5z
				 M101.4,215.8h1.3c0.8,0,1.6-0.2,2.3-0.5c0.7-0.3,1.2-0.8,1.6-1.6s0.6-1.7,0.6-2.9c0-1.1-0.2-2-0.5-2.7c-0.4-0.7-0.9-1.2-1.5-1.5
				c-0.7-0.3-1.5-0.5-2.4-0.5h-1.4V215.8z"/>
			<path d="M112.9,206.3v-2.6h2.8v2.6H112.9z M112.9,218.2v-10.3h2.8v10.3H112.9z"/>
			<path d="M123.4,221.6c-1.8,0-3.2-0.2-4.2-0.7s-1.4-1.1-1.4-1.8c0-0.4,0.1-0.6,0.3-0.9c0.2-0.2,0.4-0.4,0.7-0.6s0.5-0.3,0.7-0.3
				c0.2-0.1,0.3-0.1,0.4-0.2c-0.1-0.1-0.3-0.1-0.5-0.3c-0.2-0.1-0.4-0.3-0.6-0.5c-0.2-0.2-0.2-0.5-0.2-0.8c0-0.4,0.2-0.7,0.5-1
				s0.9-0.5,1.6-0.7c-0.7-0.3-1.2-0.8-1.6-1.3c-0.4-0.5-0.5-1.1-0.5-1.7c0-0.7,0.2-1.3,0.6-1.8c0.4-0.5,1-0.9,1.8-1.1
				c0.7-0.3,1.6-0.4,2.5-0.4c0.7,0,1.3,0.1,1.7,0.2c0.5,0.2,0.9,0.3,1.3,0.6c0.2-0.1,0.4-0.1,0.6-0.2s0.5-0.2,0.8-0.3
				c0.3-0.1,0.6-0.2,0.9-0.3c0.3-0.1,0.5-0.2,0.8-0.3l0,2.3l-1.8,0.3c0.1,0.2,0.1,0.4,0.2,0.6c0,0.2,0.1,0.4,0.1,0.5
				c0,0.6-0.2,1.2-0.5,1.7c-0.4,0.5-0.9,0.9-1.6,1.3c-0.7,0.3-1.6,0.5-2.6,0.5c-0.1,0-0.3,0-0.5,0c-0.2,0-0.4,0-0.5,0
				c-0.4,0-0.7,0.1-0.8,0.1c-0.2,0.1-0.2,0.2-0.2,0.3c0,0.2,0.1,0.3,0.4,0.3c0.3,0,0.8,0.1,1.4,0.1c0.2,0,0.5,0,0.9,0
				c0.4,0,0.8,0,1.2,0.1c1.3,0.1,2.2,0.4,2.8,0.9c0.6,0.5,0.9,1.2,0.9,2c0,1-0.5,1.8-1.4,2.4C126.6,221.3,125.2,221.6,123.4,221.6z
				 M123.8,220c0.8,0,1.4-0.1,1.7-0.3s0.5-0.5,0.5-0.9c0-0.3-0.1-0.6-0.4-0.8c-0.3-0.2-0.7-0.3-1.2-0.3l-2.4-0.2
				c-0.3,0-0.6,0-0.8,0.1s-0.4,0.3-0.5,0.4s-0.2,0.4-0.2,0.6c0,0.4,0.3,0.8,0.8,1C121.9,219.9,122.7,220,123.8,220z M123.3,212.7
				c0.6,0,1-0.2,1.3-0.5c0.3-0.3,0.5-0.7,0.5-1.2c0-0.5-0.2-1-0.5-1.3c-0.3-0.3-0.8-0.5-1.3-0.5c-0.6,0-1,0.2-1.3,0.5
				c-0.3,0.3-0.5,0.8-0.5,1.3c0,0.5,0.2,0.9,0.5,1.2C122.3,212.5,122.7,212.7,123.3,212.7z"/>
			<path d="M136,218.4c-1,0-1.9-0.2-2.7-0.6c-0.8-0.4-1.4-1-1.8-1.8c-0.4-0.8-0.6-1.7-0.6-2.8c0-1,0.2-2,0.6-2.8
				c0.4-0.8,1-1.5,1.7-2c0.7-0.5,1.6-0.7,2.7-0.7c1.1,0,1.9,0.2,2.6,0.7s1.3,1.1,1.6,1.8c0.4,0.8,0.5,1.7,0.5,2.7v0.8h-6.9
				c0,0.5,0.1,1,0.3,1.4s0.4,0.7,0.8,0.9s0.7,0.3,1.2,0.3c0.5,0,0.9-0.1,1.3-0.3c0.4-0.2,0.6-0.6,0.8-1h2.6
				c-0.1,0.7-0.4,1.4-0.9,1.9c-0.5,0.5-1,0.9-1.7,1.2C137.4,218.2,136.8,218.4,136,218.4z M133.8,211.9h4.2c0-0.4-0.1-0.8-0.2-1.1
				c-0.2-0.3-0.4-0.6-0.7-0.8s-0.7-0.3-1.2-0.3c-0.4,0-0.8,0.1-1.1,0.3c-0.3,0.2-0.6,0.5-0.7,0.8S133.7,211.5,133.8,211.9z"/>
			<path d="M147.3,218.4c-0.7,0-1.4-0.1-2.1-0.4c-0.7-0.2-1.2-0.6-1.7-1.1c-0.5-0.5-0.8-1.2-0.9-2h2.5c0.1,0.4,0.3,0.7,0.5,0.9
				c0.2,0.2,0.5,0.4,0.8,0.5c0.3,0.1,0.6,0.1,0.8,0.1c0.6,0,1-0.1,1.4-0.3c0.3-0.2,0.5-0.4,0.5-0.8c0-0.3-0.1-0.5-0.3-0.7
				c-0.2-0.2-0.5-0.3-1-0.4l-1.8-0.4c-0.9-0.2-1.6-0.5-2.2-1s-0.8-1.1-0.8-2c0-0.6,0.2-1.2,0.5-1.7c0.3-0.5,0.8-0.9,1.5-1.2
				c0.6-0.3,1.4-0.4,2.4-0.4c1.3,0,2.3,0.3,3.1,0.8c0.8,0.6,1.2,1.4,1.2,2.4h-2.4c-0.1-0.4-0.3-0.7-0.6-0.9
				c-0.3-0.2-0.7-0.3-1.2-0.3c-0.5,0-0.9,0.1-1.2,0.3c-0.3,0.2-0.5,0.5-0.5,0.8c0,0.3,0.1,0.5,0.4,0.6c0.3,0.2,0.7,0.3,1.2,0.4
				l1.7,0.4c0.6,0.1,1.1,0.3,1.4,0.6c0.4,0.2,0.6,0.5,0.8,0.8c0.2,0.3,0.3,0.6,0.4,0.9s0.1,0.6,0.1,0.8c0,0.7-0.2,1.3-0.5,1.8
				c-0.4,0.5-0.9,0.9-1.5,1.1C149,218.2,148.2,218.4,147.3,218.4z"/>
			<path d="M158.5,218.3c-0.9,0-1.6-0.1-2.1-0.4c-0.5-0.2-0.8-0.6-1-1s-0.3-0.9-0.3-1.5v-5.6h-1.7v-2h1.8l0.7-3.1h2.1v3.1h2.3v2H158
				l0,5.5c0,0.3,0,0.4,0.1,0.6c0.1,0.1,0.2,0.2,0.3,0.2c0.1,0,0.3,0.1,0.5,0.1h1.4v1.8c-0.1,0.1-0.4,0.1-0.6,0.2
				C159.4,218.3,159,218.3,158.5,218.3z"/>
			<path d="M167,218.4c-1,0-1.9-0.2-2.6-0.7c-0.8-0.4-1.3-1-1.7-1.8c-0.4-0.8-0.6-1.7-0.6-2.8c0-1.1,0.2-2,0.6-2.8s1-1.4,1.7-1.9
				c0.8-0.5,1.6-0.7,2.7-0.7s1.9,0.2,2.6,0.7s1.3,1.1,1.7,1.9s0.6,1.8,0.6,2.9c0,1-0.2,2-0.6,2.8c-0.4,0.8-1,1.4-1.7,1.9
				C168.9,218.1,168,218.4,167,218.4z M167,216.2c0.5,0,0.9-0.2,1.2-0.5c0.3-0.3,0.5-0.7,0.7-1.2c0.1-0.5,0.2-1,0.2-1.6
				c0-0.5-0.1-1.1-0.2-1.5s-0.3-0.9-0.7-1.2c-0.3-0.3-0.7-0.4-1.3-0.4c-0.5,0-0.9,0.1-1.2,0.4c-0.3,0.3-0.5,0.7-0.7,1.1
				c-0.1,0.5-0.2,1-0.2,1.6c0,0.5,0.1,1.1,0.2,1.6c0.1,0.5,0.4,0.9,0.7,1.2C166,216,166.4,216.2,167,216.2z"/>
			<path d="M179.6,218.2v-14.5c0.1,0,0.3,0,0.6,0c0.3,0,0.7,0,1.2,0s0.9,0,1.4,0c0.5,0,0.8,0,1.1,0c1.8,0,3.2,0.4,4.3,0.9
				c1.1,0.6,1.9,1.4,2.4,2.5s0.8,2.3,0.8,3.7c0,1.5-0.3,2.8-0.8,3.9c-0.5,1.1-1.4,1.9-2.5,2.5c-1.1,0.6-2.5,0.9-4.3,0.9H179.6z
				 M182.5,215.8h1.3c0.8,0,1.6-0.2,2.3-0.5c0.7-0.3,1.2-0.8,1.6-1.6s0.6-1.7,0.6-2.9c0-1.1-0.2-2-0.5-2.7c-0.4-0.7-0.9-1.2-1.5-1.5
				c-0.7-0.3-1.5-0.5-2.4-0.5h-1.4V215.8z"/>
			<path d="M194,206.3v-2.6h2.8v2.6H194z M194,218.2v-10.3h2.8v10.3H194z"/>
			<path d="M204.5,221.6c-1.8,0-3.2-0.2-4.2-0.7s-1.4-1.1-1.4-1.8c0-0.4,0.1-0.6,0.3-0.9c0.2-0.2,0.4-0.4,0.7-0.6s0.5-0.3,0.7-0.3
				c0.2-0.1,0.3-0.1,0.4-0.2c-0.1-0.1-0.3-0.1-0.5-0.3c-0.2-0.1-0.4-0.3-0.6-0.5c-0.2-0.2-0.2-0.5-0.2-0.8c0-0.4,0.2-0.7,0.5-1
				s0.9-0.5,1.6-0.7c-0.7-0.3-1.2-0.8-1.6-1.3c-0.4-0.5-0.5-1.1-0.5-1.7c0-0.7,0.2-1.3,0.6-1.8c0.4-0.5,1-0.9,1.8-1.1
				c0.7-0.3,1.6-0.4,2.5-0.4c0.7,0,1.3,0.1,1.7,0.2c0.5,0.2,0.9,0.3,1.3,0.6c0.2-0.1,0.4-0.1,0.6-0.2s0.5-0.2,0.8-0.3
				c0.3-0.1,0.6-0.2,0.9-0.3c0.3-0.1,0.5-0.2,0.8-0.3l0,2.3l-1.8,0.3c0.1,0.2,0.1,0.4,0.2,0.6c0,0.2,0.1,0.4,0.1,0.5
				c0,0.6-0.2,1.2-0.5,1.7c-0.4,0.5-0.9,0.9-1.6,1.3c-0.7,0.3-1.6,0.5-2.6,0.5c-0.1,0-0.3,0-0.5,0c-0.2,0-0.4,0-0.5,0
				c-0.4,0-0.7,0.1-0.8,0.1c-0.2,0.1-0.2,0.2-0.2,0.3c0,0.2,0.1,0.3,0.4,0.3c0.3,0,0.8,0.1,1.4,0.1c0.2,0,0.5,0,0.9,0
				c0.4,0,0.8,0,1.2,0.1c1.3,0.1,2.2,0.4,2.8,0.9c0.6,0.5,0.9,1.2,0.9,2c0,1-0.5,1.8-1.4,2.4C207.7,221.3,206.3,221.6,204.5,221.6z
				 M204.9,220c0.8,0,1.4-0.1,1.7-0.3s0.5-0.5,0.5-0.9c0-0.3-0.1-0.6-0.4-0.8c-0.3-0.2-0.7-0.3-1.2-0.3l-2.4-0.2
				c-0.3,0-0.6,0-0.8,0.1s-0.4,0.3-0.5,0.4s-0.2,0.4-0.2,0.6c0,0.4,0.3,0.8,0.8,1C203,219.9,203.8,220,204.9,220z M204.4,212.7
				c0.6,0,1-0.2,1.3-0.5c0.3-0.3,0.5-0.7,0.5-1.2c0-0.5-0.2-1-0.5-1.3c-0.3-0.3-0.8-0.5-1.3-0.5c-0.6,0-1,0.2-1.3,0.5
				c-0.3,0.3-0.5,0.8-0.5,1.3c0,0.5,0.2,0.9,0.5,1.2C203.4,212.5,203.8,212.7,204.4,212.7z"/>
			<path d="M212.6,206.3v-2.6h2.8v2.6H212.6z M212.7,218.2v-10.3h2.8v10.3H212.7z"/>
			<path d="M222.8,218.3c-0.9,0-1.6-0.1-2.1-0.4c-0.5-0.2-0.8-0.6-1-1s-0.3-0.9-0.3-1.5v-5.6h-1.7v-2h1.8l0.7-3.1h2.1v3.1h2.3v2
				h-2.3l0,5.5c0,0.3,0,0.4,0.1,0.6c0.1,0.1,0.2,0.2,0.3,0.2c0.1,0,0.3,0.1,0.5,0.1h1.4v1.8c-0.1,0.1-0.4,0.1-0.6,0.2
				C223.7,218.3,223.4,218.3,222.8,218.3z"/>
			<path d="M230.2,218.4c-0.7,0-1.2-0.1-1.8-0.4c-0.5-0.2-0.9-0.6-1.3-1.1s-0.5-1-0.5-1.7c0-1.1,0.4-2,1.3-2.6s2.2-0.9,4-0.9l1.3,0
				v-0.6c0-0.5-0.1-0.8-0.4-1.1c-0.3-0.3-0.7-0.4-1.3-0.4c-0.4,0-0.8,0.1-1.2,0.3c-0.4,0.2-0.6,0.5-0.8,1h-2.4
				c0-0.7,0.3-1.4,0.7-1.8c0.4-0.5,0.9-0.8,1.6-1.1c0.7-0.2,1.4-0.4,2.3-0.4c1.1,0,1.9,0.1,2.5,0.4c0.6,0.3,1.1,0.6,1.4,1.1
				c0.3,0.5,0.4,1.1,0.4,1.7v7.3h-2.4l-0.2-1.8c-0.4,0.7-0.8,1.3-1.3,1.5C231.5,218.2,230.9,218.4,230.2,218.4z M231.1,216.4
				c0.3,0,0.5,0,0.8-0.1s0.5-0.2,0.7-0.4s0.4-0.3,0.5-0.6c0.1-0.2,0.2-0.4,0.2-0.6v-1.5l-1.1,0c-0.5,0-0.9,0.1-1.4,0.2
				c-0.4,0.1-0.8,0.3-1,0.5c-0.3,0.2-0.4,0.6-0.4,1c0,0.5,0.2,0.9,0.5,1.1C230.3,216.3,230.7,216.4,231.1,216.4z"/>
			<path d="M242.1,218.3c-0.8,0-1.4-0.1-1.8-0.3c-0.4-0.2-0.8-0.4-1-0.7s-0.4-0.6-0.4-1s-0.1-0.7-0.1-1.1v-12h2.9v11.6
				c0,0.4,0.1,0.7,0.2,0.9c0.2,0.2,0.5,0.4,0.9,0.4l0.5,0v1.8c-0.2,0.1-0.4,0.1-0.6,0.2C242.5,218.3,242.3,218.3,242.1,218.3z"/>
		</g>
		<g>
			<path fill="#FF8540" d="M213.4,112.2h-8.4V80.4c0-0.6-0.2-1.4-0.9-2.1l-18.8-18.8c-0.5-0.6-1.3-1-2.2-1c0,0,0,0,0,0s0,0,0,0
				h-54.7c-1.6,0-2.9,1.3-2.9,2.9v34.1h-6.1c-1.6,0-2.9,1.3-2.9,2.9v45.4c0,7.9,6.4,14.6,14,14.7h0h71.7c0,0,0,0,0.1,0
				c7.8,0,14.2-6.4,14.2-14.2v-29.2C216.5,113.5,215.1,112.2,213.4,112.2z M186.1,68.5l9,9h-9V68.5z M131.4,64.4h48.9v16
				c0,1.6,1.3,2.9,2.9,2.9h16v57.8h-5.4V106c0-1.6-1.3-2.9-2.9-2.9h-37.8l-12.4-7.1c-0.4-0.3-0.9-0.4-1.5-0.4h-7.8L131.4,64.4
				L131.4,64.4z M130.5,152.6c-2,0-4.1-1-5.7-2.6c-1.6-1.7-2.5-3.9-2.5-6.2v-42.4h16.1l12.4,7.1c0.4,0.3,0.9,0.4,1.5,0.4H188v35.4
				c0,3.1,1,6,2.7,8.3H130.5z M210.5,144.3c0,4.6-3.7,8.3-8.3,8.3c-3.7,0-6.8-2.4-7.9-5.7h7.9c1.6,0,2.9-1.3,2.9-2.9v-26h5.5
				L210.5,144.3L210.5,144.3z"/>
			<path fill="#FF8540" d="M178.7,115.3h-14c-1.6,0-2.9,1.3-2.9,2.9s1.3,2.9,2.9,2.9h14c1.6,0,2.9-1.3,2.9-2.9
				S180.3,115.3,178.7,115.3z"/>
			<path fill="#FF8540" d="M178.7,126.7h-14c-1.6,0-2.9,1.3-2.9,2.9s1.3,2.9,2.9,2.9h14c1.6,0,2.9-1.3,2.9-2.9
				S180.3,126.7,178.7,126.7z"/>
		</g>
	</g>
</g>
<g id="Capa_2">
</g>
</svg>
