<?xml version="1.0" encoding="utf-8"?>
<!-- Generator: Adobe Illustrator 27.7.0, SVG Export Plug-In . SVG Version: 6.00 Build 0)  -->
<svg version="1.1" xmlns="http://www.w3.org/2000/svg" xmlns:xlink="http://www.w3.org/1999/xlink" x="0px" y="0px"
	 viewBox="0 0 1920 900" enable-background="new 0 0 1920 900" xml:space="preserve">
<g id="Capa_1">
	<g>
		<g>
			<defs>
				
					<rect id="SVGID_00000116199742185318999210000002979190022269109661_" x="2631.3" y="-599.5" transform="matrix(6.123234e-17 -1 1 6.123234e-17 2732 3453)" width="922.3" height="1920"/>
			</defs>
			<clipPath id="SVGID_00000036962541626817342890000010045213482668524730_">
				<use xlink:href="#SVGID_00000116199742185318999210000002979190022269109661_"  overflow="visible"/>
			</clipPath>
			<path clip-path="url(#SVGID_00000036962541626817342890000010045213482668524730_)" fill="#21708A" d="M1536,1250.6
				c60,92.4,211.7-284.1,325.7-244.2c149.1,52.2,328.1,55.3,494.2-2c153.2-52.8,287.5-147.7,426.7-230.1
				c139.3-82.4,296-155.9,451.6-154c125.5,1.5,234.1,51.8,345.5,90.4c111.3,38.6,240.4,65.5,363.5,21.5
				c123.9-44.3,234.5-157.2,358.7-146.4c91,8,146.2,82,231.3,104.9c81.9,22,177.8-6.1,265.5-36.4c87.7-30.3,180.2-63.9,266.6-52.6
				c86.4,11.3,156.5,89.4,115,164.2L1821.3,2262.7L1536,1250.6z"/>
		</g>
	</g>
	<g>
		
			<rect x="618.4" y="-618.4" transform="matrix(6.123234e-17 -1 1 6.123234e-17 618.3871 1301.6129)" fill="#FFC815" width="683.2" height="1920"/>
		<g>
			<defs>
				
					<rect id="SVGID_00000051355578275078153020000014818204741387547784_" x="510" y="-510" transform="matrix(6.123234e-17 -1 1 6.123234e-17 510 1410)" width="900" height="1920"/>
			</defs>
			<clipPath id="SVGID_00000133519924481003789360000009436371599988140947_">
				<use xlink:href="#SVGID_00000051355578275078153020000014818204741387547784_"  overflow="visible"/>
			</clipPath>
			<path clip-path="url(#SVGID_00000133519924481003789360000009436371599988140947_)" fill="#FF8540" d="M-120.2,1176.4
				c109,12.2,142,135.1,84.3,231.9c-21.4,35.9-58.7,59-80.1,94.3c-25.3,41.7-18.7,76.2,1.3,112.6c25.3,46.1,77.1,51.1,124.6,51.3
				c347.8,1.4,675.5-0.3,1076.9,1.8c31.3,0.2,63.8,0.6,92.3-12.5c4.9-2.2,9.6-4.8,14-7.6c48.6-31,69.5-95,96.6-148.4
				c77.6-153.2,304.2-278.4,473.1-266.2c22.4,1.6,45.6,4.9,66.8-2.9c23.4-8.6,39.1-32.2,29.1-56c-5.9-14-16.7-25.9-21.3-40.4
				c-8.4-26.3,5.9-54.9,25.6-74.7c35.7-35.8,77.1-53.8,97.6-102.4c18.7-44.3,18.5-94.5,16.4-141.6c-2.1-45.3-19-88.3-26.7-132.7
				c-3.8-22.1-4.4-247.8-2.5-270.7c-626.2,184.4-1286.9-271-1932-169.4C-36.2,250.9-87.7,264-138,281.4
				c-10.5,13.2-24.2,229.5-26.6,257.2c-3.2,35.8,48.6,48.7,56.2,87.6c7.9,40.3-25.4,49.3-23.6,85.9c1.1,22.5,9.4,44.6,9.4,67
				c0,28.9-14.7,48-21.6,75.6c-4.7,18.8-4.7,39.5,4.2,56.8c26.8,52.4,101.4,44.8,150.3,55.7c46.7,10.4,87.3,41.7,68.5,91.7
				c-20,53.2-79.4,88.1-137.1,78.9c-27.8-4.4-54.9-13-81.7-21.4c-31-9.8-66.3,1-68.9,26.8C-212.7,1180.5-140.9,1174.1-120.2,1176.4z
				"/>
			<path clip-path="url(#SVGID_00000133519924481003789360000009436371599988140947_)" fill="#5892A5" d="M681.2,1039.4
				c48.4,26.1,110.3,15.3,158.2-11.6c47.9-26.9,85.7-67.7,125.3-105.3c39.7-37.6,84.2-73.5,137.9-86.4
				c111.4-26.8,223.1,51.9,337.6,45.8c82.5-4.4,155.5-52.1,220.2-102.2c64.7-50.1,128.2-105.7,206.6-131
				c94.2-30.4,197-13.2,293.3,9.8c96.4,22.9,194,51.5,292.8,42.8l-26.9,633.4l-1792.7-72.4L681.2,1039.4z"/>
			<path clip-path="url(#SVGID_00000133519924481003789360000009436371599988140947_)" fill="#21708A" d="M-596.5,1318.6
				c60,90.2,211.7-277.2,325.7-238.3c149.1,51,328.1,53.9,494.2-2c153.2-51.5,287.5-144.1,426.7-224.5
				c139.3-80.4,296-152.1,451.6-150.3c125.5,1.5,234.1,50.6,345.5,88.2c111.3,37.6,240.4,64,363.5,21
				c123.9-43.3,234.5-153.4,358.7-142.8c91,7.8,146.2,80,231.3,102.3c81.9,21.5,177.8-6,265.5-35.5c87.7-29.6,180.2-62.3,266.6-51.3
				c86.4,11,156.5,87.3,115,160.2L-311.2,2306.2L-596.5,1318.6z"/>
		</g>
	</g>
</g>
<g id="Capa_2">
</g>
</svg>
