<?xml version="1.0" encoding="utf-8"?>
<!-- Generator: Adobe Illustrator 27.9.0, SVG Export Plug-In . SVG Version: 6.00 Build 0)  -->
<svg version="1.1" xmlns="http://www.w3.org/2000/svg" xmlns:xlink="http://www.w3.org/1999/xlink" x="0px" y="0px"
	 viewBox="0 0 341 308" enable-background="new 0 0 341 308" xml:space="preserve">
<g id="Capa_1">
	<g>
		<g>
			<defs>
				
					<rect id="SVGID_00000168823914267960841500000017517322239997910414_" x="-1475" y="-2629" transform="matrix(6.123234e-17 -1 1 6.123234e-17 651 -2671)" width="930" height="1936"/>
			</defs>
			<clipPath id="SVGID_00000077319557979810492770000004558918400289881480_">
				<use xlink:href="#SVGID_00000168823914267960841500000017517322239997910414_"  overflow="visible"/>
			</clipPath>
			<path clip-path="url(#SVGID_00000077319557979810492770000004558918400289881480_)" fill="#21708A" d="M-2579.5-763.4
				c60.5,93.2,213.5-286.5,328.4-246.2c150.4,52.7,330.8,55.7,498.3-2c154.5-53.3,289.9-148.9,430.3-232
				c140.4-83.1,298.4-157.2,455.3-155.3c126.6,1.5,236.1,52.3,348.4,91.1c112.3,38.9,242.4,66.1,366.6,21.7
				c124.9-44.7,236.5-158.5,361.6-147.6c91.7,8,147.4,82.6,233.2,105.7c82.6,22.2,179.3-6.2,267.7-36.7
				c88.4-30.6,181.7-64.4,268.8-53c87.1,11.4,157.8,90.2,115.9,165.5L-2291.8,257.1L-2579.5-763.4z"/>
		</g>
	</g>
	<g>
		<g>
			<g>
				<path fill="#F2F2F2" d="M321,299H20c-6.6,0-12-5.4-12-12V21c0-6.6,5.4-12,12-12h301c6.6,0,12,5.4,12,12v266
					C333,293.6,327.6,299,321,299z"/>
			</g>
		</g>
		<g>
			<path d="M77.1,218.2v-14.5h2.9v14.5H77.1z"/>
			<path d="M83.3,218.2v-10.3h2.9v1.5c0.2-0.3,0.4-0.5,0.6-0.7c0.3-0.2,0.6-0.4,1-0.6c0.4-0.2,0.9-0.2,1.4-0.2
				c0.6,0,1.2,0.1,1.8,0.4c0.5,0.2,1,0.6,1.3,1.2c0.3,0.5,0.5,1.2,0.5,2.1v6.8h-2.9v-6.5c0-0.6-0.2-1-0.5-1.3
				c-0.3-0.3-0.7-0.4-1.2-0.4c-0.3,0-0.6,0.1-0.9,0.2c-0.3,0.1-0.5,0.3-0.7,0.5c-0.2,0.2-0.3,0.5-0.3,0.8v6.6H83.3z"/>
			<path d="M99.6,218.4c-0.7,0-1.4-0.1-2.1-0.4c-0.7-0.2-1.2-0.6-1.7-1.1c-0.5-0.5-0.8-1.2-0.9-2h2.5c0.1,0.4,0.3,0.7,0.5,0.9
				c0.2,0.2,0.5,0.4,0.8,0.5c0.3,0.1,0.6,0.1,0.8,0.1c0.6,0,1-0.1,1.4-0.3c0.3-0.2,0.5-0.4,0.5-0.8c0-0.3-0.1-0.5-0.3-0.7
				c-0.2-0.2-0.5-0.3-1-0.4l-1.8-0.4c-0.9-0.2-1.6-0.5-2.2-1s-0.8-1.1-0.8-2c0-0.6,0.2-1.2,0.5-1.7c0.3-0.5,0.8-0.9,1.5-1.2
				c0.6-0.3,1.4-0.4,2.4-0.4c1.3,0,2.3,0.3,3.1,0.8c0.8,0.6,1.2,1.4,1.2,2.4h-2.4c-0.1-0.4-0.3-0.7-0.6-0.9
				c-0.3-0.2-0.7-0.3-1.2-0.3c-0.5,0-0.9,0.1-1.2,0.3c-0.3,0.2-0.5,0.5-0.5,0.8c0,0.3,0.1,0.5,0.4,0.6c0.3,0.2,0.7,0.3,1.2,0.4
				l1.7,0.4c0.6,0.1,1.1,0.3,1.4,0.6c0.4,0.2,0.6,0.5,0.8,0.8c0.2,0.3,0.3,0.6,0.4,0.9s0.1,0.6,0.1,0.8c0,0.7-0.2,1.3-0.5,1.8
				c-0.4,0.5-0.9,0.9-1.5,1.1C101.3,218.2,100.5,218.4,99.6,218.4z"/>
			<path d="M106.4,221.4v-13.6h2.9l0,1.5c0.2-0.2,0.3-0.5,0.6-0.7c0.2-0.2,0.5-0.4,0.7-0.5s0.6-0.3,0.9-0.4c0.3-0.1,0.7-0.1,1-0.1
				c0.8,0,1.5,0.2,2.1,0.6c0.6,0.4,1.1,1,1.4,1.7c0.3,0.8,0.5,1.8,0.5,3c0,1.3-0.2,2.3-0.6,3.1c-0.4,0.8-0.9,1.4-1.5,1.8
				c-0.6,0.4-1.4,0.6-2.2,0.6c-0.3,0-0.6,0-0.9-0.1c-0.3-0.1-0.6-0.2-0.8-0.4c-0.2-0.2-0.5-0.3-0.7-0.6c-0.2-0.2-0.4-0.4-0.5-0.7
				v4.8H106.4z M111.6,216.2c0.6,0,1.2-0.3,1.6-0.8c0.4-0.5,0.6-1.4,0.6-2.5c0-1-0.2-1.8-0.6-2.3c-0.4-0.6-1-0.8-1.6-0.8
				c-0.8,0-1.3,0.3-1.7,0.9s-0.6,1.4-0.6,2.3c0,0.6,0.1,1.1,0.2,1.6c0.2,0.5,0.4,0.9,0.7,1.2C110.7,216.1,111.1,216.2,111.6,216.2z"
				/>
			<path d="M123.7,218.4c-1,0-1.9-0.2-2.7-0.6c-0.8-0.4-1.4-1-1.8-1.8c-0.4-0.8-0.6-1.7-0.6-2.8c0-1,0.2-2,0.6-2.8
				c0.4-0.8,1-1.5,1.7-2c0.7-0.5,1.6-0.7,2.7-0.7c1.1,0,1.9,0.2,2.6,0.7s1.3,1.1,1.6,1.8c0.4,0.8,0.5,1.7,0.5,2.7v0.8h-6.9
				c0,0.5,0.1,1,0.3,1.4s0.4,0.7,0.8,0.9s0.7,0.3,1.2,0.3c0.5,0,0.9-0.1,1.3-0.3c0.4-0.2,0.6-0.6,0.8-1h2.6
				c-0.1,0.7-0.4,1.4-0.9,1.9c-0.5,0.5-1,0.9-1.7,1.2C125.1,218.2,124.4,218.4,123.7,218.4z M121.4,211.9h4.2c0-0.4-0.1-0.8-0.2-1.1
				c-0.2-0.3-0.4-0.6-0.7-0.8s-0.7-0.3-1.2-0.3c-0.4,0-0.8,0.1-1.1,0.3c-0.3,0.2-0.6,0.5-0.7,0.8S121.4,211.5,121.4,211.9z"/>
			<path d="M135.4,218.4c-1,0-1.8-0.2-2.6-0.6c-0.8-0.4-1.3-1-1.8-1.8c-0.4-0.8-0.6-1.7-0.6-2.9c0-1.1,0.2-2,0.6-2.8
				c0.4-0.8,1-1.4,1.7-1.9c0.8-0.5,1.6-0.7,2.6-0.7c0.9,0,1.6,0.2,2.2,0.5s1.1,0.8,1.5,1.4s0.6,1.3,0.6,2h-2.4
				c0-0.3-0.1-0.5-0.3-0.8c-0.1-0.3-0.4-0.5-0.6-0.7s-0.6-0.3-1-0.3c-0.7,0-1.2,0.3-1.7,0.8c-0.4,0.5-0.6,1.3-0.6,2.4
				c0,1,0.2,1.8,0.6,2.4c0.4,0.6,1,0.9,1.7,0.9c0.4,0,0.7-0.1,1-0.3s0.5-0.4,0.6-0.7c0.1-0.3,0.2-0.5,0.3-0.8h2.4
				c0,0.7-0.3,1.4-0.6,1.9c-0.4,0.6-0.9,1-1.5,1.4C137,218.2,136.2,218.4,135.4,218.4z"/>
			<path d="M146.7,218.4c-1,0-1.8-0.2-2.6-0.6c-0.8-0.4-1.3-1-1.8-1.8c-0.4-0.8-0.6-1.7-0.6-2.9c0-1.1,0.2-2,0.6-2.8
				c0.4-0.8,1-1.4,1.7-1.9c0.8-0.5,1.6-0.7,2.6-0.7c0.9,0,1.6,0.2,2.2,0.5s1.1,0.8,1.5,1.4s0.6,1.3,0.6,2h-2.4
				c0-0.3-0.1-0.5-0.3-0.8c-0.1-0.3-0.4-0.5-0.6-0.7s-0.6-0.3-1-0.3c-0.7,0-1.2,0.3-1.7,0.8c-0.4,0.5-0.6,1.3-0.6,2.4
				c0,1,0.2,1.8,0.6,2.4c0.4,0.6,1,0.9,1.7,0.9c0.4,0,0.7-0.1,1-0.3s0.5-0.4,0.6-0.7c0.1-0.3,0.2-0.5,0.3-0.8h2.4
				c0,0.7-0.3,1.4-0.6,1.9c-0.4,0.6-0.9,1-1.5,1.4C148.3,218.2,147.5,218.4,146.7,218.4z"/>
			<path d="M153.5,206.3v-2.6h2.8v2.6H153.5z M153.5,218.2v-10.3h2.8v10.3H153.5z"/>
			<path d="M163.7,218.4c-1,0-1.9-0.2-2.6-0.7c-0.8-0.4-1.3-1-1.7-1.8c-0.4-0.8-0.6-1.7-0.6-2.8c0-1.1,0.2-2,0.6-2.8s1-1.4,1.7-1.9
				c0.8-0.5,1.6-0.7,2.7-0.7s1.9,0.2,2.6,0.7s1.3,1.1,1.7,1.9s0.6,1.8,0.6,2.9c0,1-0.2,2-0.6,2.8c-0.4,0.8-1,1.4-1.7,1.9
				C165.7,218.1,164.8,218.4,163.7,218.4z M163.7,216.2c0.5,0,0.9-0.2,1.2-0.5c0.3-0.3,0.5-0.7,0.7-1.2c0.1-0.5,0.2-1,0.2-1.6
				c0-0.5-0.1-1.1-0.2-1.5s-0.3-0.9-0.7-1.2c-0.3-0.3-0.7-0.4-1.3-0.4c-0.5,0-0.9,0.1-1.2,0.4c-0.3,0.3-0.5,0.7-0.7,1.1
				c-0.1,0.5-0.2,1-0.2,1.6c0,0.5,0.1,1.1,0.2,1.6c0.1,0.5,0.4,0.9,0.7,1.2C162.8,216,163.2,216.2,163.7,216.2z M162.6,206.6
				l2.1-2.9h3l-3,2.9H162.6z"/>
			<path d="M171.1,218.2v-10.3h2.9v1.5c0.2-0.3,0.4-0.5,0.6-0.7c0.3-0.2,0.6-0.4,1-0.6c0.4-0.2,0.9-0.2,1.4-0.2
				c0.6,0,1.2,0.1,1.8,0.4c0.5,0.2,1,0.6,1.3,1.2c0.3,0.5,0.5,1.2,0.5,2.1v6.8h-2.9v-6.5c0-0.6-0.2-1-0.5-1.3
				c-0.3-0.3-0.7-0.4-1.2-0.4c-0.3,0-0.6,0.1-0.9,0.2c-0.3,0.1-0.5,0.3-0.7,0.5c-0.2,0.2-0.3,0.5-0.3,0.8v6.6H171.1z"/>
			<path d="M194.5,218.4c-1.3,0-2.5-0.3-3.5-0.9c-1-0.6-1.7-1.5-2.3-2.6c-0.5-1.1-0.8-2.4-0.8-3.9c0-1.5,0.3-2.9,0.8-4
				c0.6-1.1,1.3-2,2.3-2.6s2.2-0.9,3.5-0.9c0.9,0,1.6,0.1,2.4,0.4s1.3,0.6,1.8,1.1c0.5,0.5,0.9,1,1.2,1.6c0.3,0.6,0.5,1.2,0.5,1.9
				h-3.1c-0.1-0.5-0.3-0.9-0.5-1.3c-0.3-0.4-0.6-0.7-1-0.9c-0.4-0.2-0.9-0.3-1.4-0.3c-0.6,0-1.2,0.2-1.7,0.5s-0.9,0.9-1.2,1.6
				c-0.3,0.7-0.4,1.7-0.4,2.9c0,1,0.1,1.7,0.3,2.4c0.2,0.6,0.5,1.1,0.8,1.5s0.7,0.6,1.1,0.8c0.4,0.2,0.9,0.2,1.3,0.2
				c0.4,0,0.8-0.1,1.1-0.2c0.3-0.1,0.6-0.3,0.9-0.6c0.2-0.2,0.4-0.5,0.6-0.7c0.1-0.3,0.2-0.5,0.3-0.8l0.1-0.9h-3v-2l6.1,0v7.5h-2
				v-1.9c-0.2,0.3-0.6,0.7-0.9,1s-0.8,0.6-1.4,0.8S195.3,218.4,194.5,218.4z"/>
			<path d="M208.6,218.4c-1,0-1.9-0.2-2.7-0.6c-0.8-0.4-1.4-1-1.8-1.8c-0.4-0.8-0.6-1.7-0.6-2.8c0-1,0.2-2,0.6-2.8
				c0.4-0.8,1-1.5,1.7-2c0.7-0.5,1.6-0.7,2.7-0.7c1.1,0,1.9,0.2,2.6,0.7s1.3,1.1,1.6,1.8c0.4,0.8,0.5,1.7,0.5,2.7v0.8h-6.9
				c0,0.5,0.1,1,0.3,1.4s0.4,0.7,0.8,0.9s0.7,0.3,1.2,0.3c0.5,0,0.9-0.1,1.3-0.3c0.4-0.2,0.6-0.6,0.8-1h2.6
				c-0.1,0.7-0.4,1.4-0.9,1.9c-0.5,0.5-1,0.9-1.7,1.2C210,218.2,209.4,218.4,208.6,218.4z M206.4,211.9h4.2c0-0.4-0.1-0.8-0.2-1.1
				c-0.2-0.3-0.4-0.6-0.7-0.8s-0.7-0.3-1.2-0.3c-0.4,0-0.8,0.1-1.1,0.3c-0.3,0.2-0.6,0.5-0.7,0.8S206.3,211.5,206.4,211.9z"/>
			<path d="M215.8,218.2v-10.3h2.9v1.5c0.2-0.3,0.4-0.5,0.6-0.7c0.3-0.2,0.6-0.4,1-0.6c0.4-0.2,0.9-0.2,1.4-0.2
				c0.6,0,1.2,0.1,1.8,0.4c0.5,0.2,1,0.6,1.3,1.2c0.3,0.5,0.5,1.2,0.5,2.1v6.8h-2.9v-6.5c0-0.6-0.2-1-0.5-1.3
				c-0.3-0.3-0.7-0.4-1.2-0.4c-0.3,0-0.6,0.1-0.9,0.2c-0.3,0.1-0.5,0.3-0.7,0.5c-0.2,0.2-0.3,0.5-0.3,0.8v6.6H215.8z"/>
			<path d="M232.8,218.4c-1,0-1.9-0.2-2.7-0.6c-0.8-0.4-1.4-1-1.8-1.8c-0.4-0.8-0.6-1.7-0.6-2.8c0-1,0.2-2,0.6-2.8
				c0.4-0.8,1-1.5,1.7-2c0.7-0.5,1.6-0.7,2.7-0.7c1.1,0,1.9,0.2,2.6,0.7s1.3,1.1,1.6,1.8c0.4,0.8,0.5,1.7,0.5,2.7v0.8h-6.9
				c0,0.5,0.1,1,0.3,1.4s0.4,0.7,0.8,0.9s0.7,0.3,1.2,0.3c0.5,0,0.9-0.1,1.3-0.3c0.4-0.2,0.6-0.6,0.8-1h2.6
				c-0.1,0.7-0.4,1.4-0.9,1.9c-0.5,0.5-1,0.9-1.7,1.2C234.2,218.2,233.5,218.4,232.8,218.4z M230.5,211.9h4.2c0-0.4-0.1-0.8-0.2-1.1
				c-0.2-0.3-0.4-0.6-0.7-0.8s-0.7-0.3-1.2-0.3c-0.4,0-0.8,0.1-1.1,0.3c-0.3,0.2-0.6,0.5-0.7,0.8S230.5,211.5,230.5,211.9z"/>
			<path d="M240,218.2v-10.3h2.8v2.5c0.2-0.5,0.4-1,0.7-1.4c0.3-0.4,0.7-0.7,1.1-0.9c0.4-0.2,0.9-0.3,1.5-0.3c0.1,0,0.2,0,0.3,0
				c0.1,0,0.1,0,0.2,0v2.8c-0.1,0-0.1,0-0.2,0c-0.1,0-0.2,0-0.2,0c-0.6,0-1.1,0-1.5,0s-0.7,0.2-1,0.4c-0.3,0.2-0.4,0.4-0.6,0.7
				c-0.1,0.3-0.2,0.6-0.2,0.9v5.7H240z"/>
			<path d="M251.5,218.4c-0.7,0-1.2-0.1-1.8-0.4c-0.5-0.2-0.9-0.6-1.3-1.1s-0.5-1-0.5-1.7c0-1.1,0.4-2,1.3-2.6s2.2-0.9,4-0.9l1.3,0
				v-0.6c0-0.5-0.1-0.8-0.4-1.1c-0.3-0.3-0.7-0.4-1.3-0.4c-0.4,0-0.8,0.1-1.2,0.3c-0.4,0.2-0.6,0.5-0.8,1h-2.4
				c0-0.7,0.3-1.4,0.7-1.8c0.4-0.5,0.9-0.8,1.6-1.1c0.7-0.2,1.4-0.4,2.3-0.4c1.1,0,1.9,0.1,2.5,0.4c0.6,0.3,1.1,0.6,1.4,1.1
				c0.3,0.5,0.4,1.1,0.4,1.7v7.3h-2.4l-0.2-1.8c-0.4,0.7-0.8,1.3-1.3,1.5C252.8,218.2,252.2,218.4,251.5,218.4z M252.5,216.4
				c0.3,0,0.5,0,0.8-0.1s0.5-0.2,0.7-0.4s0.4-0.3,0.5-0.6c0.1-0.2,0.2-0.4,0.2-0.6v-1.5l-1.1,0c-0.5,0-0.9,0.1-1.4,0.2
				c-0.4,0.1-0.8,0.3-1,0.5c-0.3,0.2-0.4,0.6-0.4,1c0,0.5,0.2,0.9,0.5,1.1C251.6,216.3,252,216.4,252.5,216.4z"/>
			<path d="M263.4,218.3c-0.8,0-1.4-0.1-1.8-0.3c-0.4-0.2-0.8-0.4-1-0.7s-0.4-0.6-0.4-1s-0.1-0.7-0.1-1.1v-12h2.9v11.6
				c0,0.4,0.1,0.7,0.2,0.9c0.2,0.2,0.5,0.4,0.9,0.4l0.5,0v1.8c-0.2,0.1-0.4,0.1-0.6,0.2C263.9,218.3,263.6,218.3,263.4,218.3z"/>
			<path d="M123.8,242.4c-1.4,0-2.5-0.5-3.2-1.4c-0.8-1-1.2-2.3-1.2-4c0-1.1,0.2-2,0.5-2.8c0.3-0.8,0.8-1.4,1.4-1.8
				c0.6-0.4,1.4-0.7,2.2-0.7c0.4,0,0.7,0,1,0.1s0.6,0.2,0.9,0.3c0.3,0.1,0.5,0.3,0.7,0.5s0.4,0.4,0.5,0.6v-5.9h2.9v14.9h-2.1
				l-0.3-2.1c-0.1,0.3-0.2,0.6-0.4,0.8c-0.2,0.3-0.4,0.5-0.6,0.7c-0.3,0.2-0.6,0.4-1,0.5S124.3,242.4,123.8,242.4z M124.4,240.3
				c0.7,0,1.3-0.3,1.6-0.8s0.5-1.4,0.5-2.6c0-0.7-0.1-1.3-0.2-1.8c-0.2-0.5-0.4-0.8-0.7-1c-0.3-0.2-0.7-0.3-1.2-0.3
				c-0.6,0-1.2,0.2-1.6,0.7c-0.4,0.5-0.6,1.3-0.6,2.4c0,1.2,0.2,2,0.6,2.5C123.2,240,123.7,240.3,124.4,240.3z"/>
			<path d="M137.2,242.4c-1,0-1.9-0.2-2.7-0.6c-0.8-0.4-1.4-1-1.8-1.8c-0.4-0.8-0.6-1.7-0.6-2.8c0-1,0.2-2,0.6-2.8
				c0.4-0.8,1-1.5,1.7-2c0.7-0.5,1.6-0.7,2.7-0.7c1.1,0,1.9,0.2,2.6,0.7s1.3,1.1,1.6,1.8c0.4,0.8,0.5,1.7,0.5,2.7v0.8h-6.9
				c0,0.5,0.1,1,0.3,1.4s0.4,0.7,0.8,0.9s0.7,0.3,1.2,0.3c0.5,0,0.9-0.1,1.3-0.3c0.4-0.2,0.6-0.6,0.8-1h2.6
				c-0.1,0.7-0.4,1.4-0.9,1.9c-0.5,0.5-1,0.9-1.7,1.2C138.6,242.2,137.9,242.4,137.2,242.4z M134.9,235.9h4.2c0-0.4-0.1-0.8-0.2-1.1
				c-0.2-0.3-0.4-0.6-0.7-0.8s-0.7-0.3-1.2-0.3c-0.4,0-0.8,0.1-1.1,0.3c-0.3,0.2-0.6,0.5-0.7,0.8S134.9,235.5,134.9,235.9z"/>
			<path d="M151,242.4c-0.5,0-0.9,0-1.4-0.1c-0.5-0.1-0.8-0.1-1.1-0.2l0.1-2.7c0.2,0,0.4,0.1,0.7,0.2s0.5,0.1,0.8,0.1
				c0.7,0,1.1-0.2,1.4-0.5c0.2-0.4,0.3-0.9,0.3-1.7v-9.7h2.9v10.4c0,0.9-0.1,1.7-0.3,2.3c-0.2,0.6-0.6,1.1-1.1,1.4
				C152.8,242.2,152,242.4,151,242.4z"/>
			<path d="M161.5,242.4c-0.5,0-1-0.1-1.4-0.2c-0.5-0.1-0.9-0.4-1.3-0.7s-0.7-0.6-0.9-1.1c-0.2-0.4-0.3-0.9-0.3-1.5v-7.1h2.9v6.8
				c0,0.5,0.2,0.9,0.5,1.2c0.3,0.3,0.8,0.5,1.4,0.5c0.6,0,1-0.1,1.4-0.4c0.3-0.3,0.5-0.7,0.5-1.2v-6.7h2.9v10.3h-2.2l-0.3-2
				c-0.1,0.6-0.3,1.1-0.7,1.4s-0.7,0.5-1.1,0.7C162.3,242.3,161.9,242.4,161.5,242.4z"/>
			<path d="M174.1,242.4c-0.7,0-1.4-0.1-2.1-0.4c-0.7-0.2-1.2-0.6-1.7-1.1c-0.5-0.5-0.8-1.2-0.9-2h2.5c0.1,0.4,0.3,0.7,0.5,0.9
				c0.2,0.2,0.5,0.4,0.8,0.5c0.3,0.1,0.6,0.1,0.8,0.1c0.6,0,1-0.1,1.4-0.3c0.3-0.2,0.5-0.4,0.5-0.8c0-0.3-0.1-0.5-0.3-0.7
				c-0.2-0.2-0.5-0.3-1-0.4l-1.8-0.4c-0.9-0.2-1.6-0.5-2.2-1s-0.8-1.1-0.8-2c0-0.6,0.2-1.2,0.5-1.7c0.3-0.5,0.8-0.9,1.5-1.2
				c0.6-0.3,1.4-0.4,2.4-0.4c1.3,0,2.3,0.3,3.1,0.8c0.8,0.6,1.2,1.4,1.2,2.4h-2.4c-0.1-0.4-0.3-0.7-0.6-0.9
				c-0.3-0.2-0.7-0.3-1.2-0.3c-0.5,0-0.9,0.1-1.2,0.3c-0.3,0.2-0.5,0.5-0.5,0.8c0,0.3,0.1,0.5,0.4,0.6c0.3,0.2,0.7,0.3,1.2,0.4
				l1.7,0.4c0.6,0.1,1.1,0.3,1.4,0.6c0.4,0.2,0.6,0.5,0.8,0.8c0.2,0.3,0.3,0.6,0.4,0.9s0.1,0.6,0.1,0.8c0,0.7-0.2,1.3-0.5,1.8
				c-0.4,0.5-0.9,0.9-1.5,1.1C175.7,242.2,175,242.4,174.1,242.4z"/>
			<path d="M185.3,242.3c-0.9,0-1.6-0.1-2.1-0.4c-0.5-0.2-0.8-0.6-1-1s-0.3-0.9-0.3-1.5v-5.6h-1.7v-2h1.8l0.7-3.1h2.1v3.1h2.3v2
				h-2.3l0,5.5c0,0.3,0,0.4,0.1,0.6c0.1,0.1,0.2,0.2,0.3,0.2c0.1,0,0.3,0.1,0.5,0.1h1.4v1.8c-0.1,0.1-0.4,0.1-0.6,0.2
				C186.2,242.3,185.8,242.3,185.3,242.3z"/>
			<path d="M189.6,230.3v-2.6h2.8v2.6H189.6z M189.6,242.2v-10.3h2.8v10.3H189.6z"/>
			<path d="M199.8,242.4c-1,0-1.8-0.2-2.6-0.6c-0.8-0.4-1.3-1-1.8-1.8c-0.4-0.8-0.6-1.7-0.6-2.9c0-1.1,0.2-2,0.6-2.8
				c0.4-0.8,1-1.4,1.7-1.9c0.8-0.5,1.6-0.7,2.6-0.7c0.9,0,1.6,0.2,2.2,0.5s1.1,0.8,1.5,1.4s0.6,1.3,0.6,2h-2.4
				c0-0.3-0.1-0.5-0.3-0.8c-0.1-0.3-0.4-0.5-0.6-0.7s-0.6-0.3-1-0.3c-0.7,0-1.2,0.3-1.7,0.8c-0.4,0.5-0.6,1.3-0.6,2.4
				c0,1,0.2,1.8,0.6,2.4c0.4,0.6,1,0.9,1.7,0.9c0.4,0,0.7-0.1,1-0.3s0.5-0.4,0.6-0.7c0.1-0.3,0.2-0.5,0.3-0.8h2.4
				c0,0.7-0.3,1.4-0.6,1.9c-0.4,0.6-0.9,1-1.5,1.4C201.4,242.2,200.6,242.4,199.8,242.4z"/>
			<path d="M206.6,230.3v-2.6h2.8v2.6H206.6z M206.6,242.2v-10.3h2.8v10.3H206.6z"/>
			<path d="M215.4,242.4c-0.7,0-1.2-0.1-1.8-0.4c-0.5-0.2-0.9-0.6-1.3-1.1s-0.5-1-0.5-1.7c0-1.1,0.4-2,1.3-2.6s2.2-0.9,4-0.9l1.3,0
				v-0.6c0-0.5-0.1-0.8-0.4-1.1c-0.3-0.3-0.7-0.4-1.3-0.4c-0.4,0-0.8,0.1-1.2,0.3c-0.4,0.2-0.6,0.5-0.8,1h-2.4
				c0-0.7,0.3-1.4,0.7-1.8c0.4-0.5,0.9-0.8,1.6-1.1c0.7-0.2,1.4-0.4,2.3-0.4c1.1,0,1.9,0.1,2.5,0.4c0.6,0.3,1.1,0.6,1.4,1.1
				c0.3,0.5,0.4,1.1,0.4,1.7v7.3h-2.4l-0.2-1.8c-0.4,0.7-0.8,1.3-1.3,1.5C216.7,242.2,216.1,242.4,215.4,242.4z M216.4,240.4
				c0.3,0,0.5,0,0.8-0.1s0.5-0.2,0.7-0.4s0.4-0.3,0.5-0.6c0.1-0.2,0.2-0.4,0.2-0.6v-1.5l-1.1,0c-0.5,0-0.9,0.1-1.4,0.2
				c-0.4,0.1-0.8,0.3-1,0.5c-0.3,0.2-0.4,0.6-0.4,1c0,0.5,0.2,0.9,0.5,1.1C215.5,240.3,215.9,240.4,216.4,240.4z"/>
		</g>
		<g>
			<path fill="#FF8540" d="M211.5,79.4c0-0.8-0.3-1.5-0.9-2l-18-18c-0.5-0.5-1.3-0.9-2.1-0.9h-56.7c-1.6,0-2.9,1.3-2.9,2.9v16
				c-7.8,7.6-9.6,19.2-5.3,28.6l-11.6,11.6c-3.4,3.4-3.4,9,0,12.4c1.7,1.7,3.9,2.6,6.2,2.6s4.6-0.9,6.2-2.6l4.5-4.5v30
				c0,1.6,1.3,2.9,2.9,2.9h74.7c1.6,0,2.9-1.3,2.9-2.9L211.5,79.4C211.5,79.4,211.5,79.4,211.5,79.4z M193.5,68.5l8,8h-8V68.5z
				 M134.9,81.8c7.2-7.5,20.2-7.5,27.4,0c7.6,7.6,7.6,19.9,0,27.5c-7.2,7.5-20.2,7.5-27.4,0C127.3,101.7,127.3,89.3,134.9,81.8
				L134.9,81.8z M122.3,125.9c-1.1,1.1-3,1.1-4.1,0c-1.1-1.1-1.1-3,0-4.1l10.6-10.6c0.6,0.8,1.2,1.5,1.9,2.2c0.7,0.7,1.4,1.3,2.2,2
				L122.3,125.9z M136.8,152.6v-32.9l1.2-1.2c3.3,1.5,6.8,2.3,10.5,2.3c6.7,0,13.1-2.6,17.9-7.4c1.3-1.3,2.5-2.8,3.5-4.3h27
				c1.6,0,2.9-1.3,2.9-2.9s-1.3-2.9-2.9-2.9h-24.2c2.8-8.7,0.7-18.7-6.2-25.6c-4.8-4.8-11.1-7.4-17.9-7.4c-4.2,0-8.2,1-11.8,2.9
				v-8.8h50.8v15.1c0,1.6,1.3,2.9,2.9,2.9h15.1v70.3L136.8,152.6z"/>
			<path fill="#FF8540" d="M196.9,91.5h-13.9c-1.6,0-2.9,1.3-2.9,2.9c0,1.6,1.3,2.9,2.9,2.9h13.9c1.6,0,2.9-1.3,2.9-2.9
				C199.8,92.8,198.5,91.5,196.9,91.5z"/>
			<path fill="#FF8540" d="M196.9,114.9h-19.8c-1.6,0-2.9,1.3-2.9,2.9c0,1.6,1.3,2.9,2.9,2.9h19.8c1.6,0,2.9-1.3,2.9-2.9
				C199.8,116.3,198.5,114.9,196.9,114.9L196.9,114.9z"/>
			<path fill="#FF8540" d="M196.9,138.6h-51.3c-1.6,0-2.9,1.3-2.9,2.9c0,1.6,1.3,2.9,2.9,2.9h51.3c1.6,0,2.9-1.3,2.9-2.9
				C199.8,139.9,198.5,138.6,196.9,138.6z"/>
			<path fill="#FF8540" d="M196.9,126.9h-19.8c-1.6,0-2.9,1.3-2.9,2.9s1.3,2.9,2.9,2.9h19.8c1.6,0,2.9-1.3,2.9-2.9
				S198.5,126.9,196.9,126.9L196.9,126.9z"/>
			<path fill="#FF8540" d="M145.6,132.7h19.8c1.6,0,2.9-1.3,2.9-2.9s-1.3-2.9-2.9-2.9h-19.8c-1.6,0-2.9,1.3-2.9,2.9
				S144,132.7,145.6,132.7L145.6,132.7z"/>
			<path fill="#FF8540" d="M144.4,102.3c0.6,0.6,1.3,0.9,2.1,0.9c0.7,0,1.5-0.3,2.1-0.9l9.4-9.4c1.1-1.1,1.1-3,0-4.1
				c-1.1-1.1-3-1.1-4.1,0l-7.3,7.3l-3-3c-1.1-1.1-3-1.1-4.1,0c-1.1,1.1-1.1,3,0,4.1L144.4,102.3z"/>
		</g>
	</g>
</g>
<g id="Capa_2">
</g>
</svg>
