<?xml version="1.0" encoding="utf-8"?>
<!-- Generator: Adobe Illustrator 27.9.0, SVG Export Plug-In . SVG Version: 6.00 Build 0)  -->
<svg version="1.1" xmlns="http://www.w3.org/2000/svg" xmlns:xlink="http://www.w3.org/1999/xlink" x="0px" y="0px"
	 viewBox="0 0 341 308" enable-background="new 0 0 341 308" xml:space="preserve">
<g id="Capa_1">
	<g>
		<g>
			<defs>
				
					<rect id="SVGID_00000034059297748437476530000008651756069318102714_" x="-1475" y="-2297" transform="matrix(6.123234e-17 -1 1 6.123234e-17 319 -2339)" width="930" height="1936"/>
			</defs>
			<clipPath id="SVGID_00000112625578773353445500000017521274010459420302_">
				<use xlink:href="#SVGID_00000034059297748437476530000008651756069318102714_"  overflow="visible"/>
			</clipPath>
			<path clip-path="url(#SVGID_00000112625578773353445500000017521274010459420302_)" fill="#21708A" d="M-2579.5-431.4
				c60.5,93.2,213.5-286.5,328.4-246.2c150.4,52.7,330.8,55.7,498.3-2c154.5-53.3,289.9-148.9,430.3-232
				c140.4-83.1,298.4-157.2,455.3-155.3c126.6,1.5,236.1,52.3,348.4,91.1c112.3,38.9,242.4,66.1,366.6,21.7
				c124.9-44.7,236.5-158.5,361.6-147.6c91.7,8,147.4,82.6,233.2,105.7c82.6,22.2,179.3-6.2,267.7-36.7
				c88.4-30.6,181.7-64.4,268.8-53c87.1,11.4,157.8,90.2,115.9,165.5L-2291.8,589.1L-2579.5-431.4z"/>
		</g>
	</g>
	<g>
		<g>
			<g>
				<path fill="#F2F2F2" d="M321,299H20c-6.6,0-12-5.4-12-12V21c0-6.6,5.4-12,12-12h301c6.6,0,12,5.4,12,12v266
					C333,293.6,327.6,299,321,299z"/>
			</g>
		</g>
		<g>
			<path d="M112.3,233.2v-14.5h2.9v12h6.3v2.5H112.3z"/>
			<path d="M123.9,221.3v-2.6h2.8v2.6H123.9z M123.9,233.2v-10.3h2.8v10.3H123.9z"/>
			<path d="M134.1,233.4c-1,0-1.8-0.2-2.6-0.6c-0.8-0.4-1.3-1-1.8-1.8c-0.4-0.8-0.6-1.7-0.6-2.9c0-1.1,0.2-2,0.6-2.8
				c0.4-0.8,1-1.4,1.7-1.9c0.8-0.5,1.6-0.7,2.6-0.7c0.9,0,1.6,0.2,2.2,0.5s1.1,0.8,1.5,1.4s0.6,1.3,0.6,2h-2.4
				c0-0.3-0.1-0.5-0.3-0.8c-0.1-0.3-0.4-0.5-0.6-0.7s-0.6-0.3-1-0.3c-0.7,0-1.2,0.3-1.7,0.8c-0.4,0.5-0.6,1.3-0.6,2.4
				c0,1,0.2,1.8,0.6,2.4c0.4,0.6,1,0.9,1.7,0.9c0.4,0,0.7-0.1,1-0.3s0.5-0.4,0.6-0.7c0.1-0.3,0.2-0.5,0.3-0.8h2.4
				c0,0.7-0.3,1.4-0.6,1.9c-0.4,0.6-0.9,1-1.5,1.4C135.7,233.2,135,233.4,134.1,233.4z"/>
			<path d="M140.9,221.3v-2.6h2.8v2.6H140.9z M140.9,233.2v-10.3h2.8v10.3H140.9z"/>
			<path d="M151.1,233.3c-0.9,0-1.6-0.1-2.1-0.4c-0.5-0.2-0.8-0.6-1-1s-0.3-0.9-0.3-1.5v-5.6H146v-2h1.8l0.7-3.1h2.1v3.1h2.3v2h-2.3
				l0,5.5c0,0.3,0,0.4,0.1,0.6c0.1,0.1,0.2,0.2,0.3,0.2c0.1,0,0.3,0.1,0.5,0.1h1.4v1.8c-0.1,0.1-0.4,0.1-0.6,0.2
				C152,233.3,151.6,233.3,151.1,233.3z"/>
			<path d="M158.4,233.4c-0.7,0-1.2-0.1-1.8-0.4c-0.5-0.2-0.9-0.6-1.3-1.1s-0.5-1-0.5-1.7c0-1.1,0.4-2,1.3-2.6s2.2-0.9,4-0.9l1.3,0
				v-0.6c0-0.5-0.1-0.8-0.4-1.1c-0.3-0.3-0.7-0.4-1.3-0.4c-0.4,0-0.8,0.1-1.2,0.3c-0.4,0.2-0.6,0.5-0.8,1h-2.4
				c0-0.7,0.3-1.4,0.7-1.8c0.4-0.5,0.9-0.8,1.6-1.1c0.7-0.2,1.4-0.4,2.3-0.4c1.1,0,1.9,0.1,2.5,0.4c0.6,0.3,1.1,0.6,1.4,1.1
				c0.3,0.5,0.4,1.1,0.4,1.7v7.3h-2.4l-0.2-1.8c-0.4,0.7-0.8,1.3-1.3,1.5C159.8,233.2,159.1,233.4,158.4,233.4z M159.4,231.4
				c0.3,0,0.5,0,0.8-0.1s0.5-0.2,0.7-0.4s0.4-0.3,0.5-0.6c0.1-0.2,0.2-0.4,0.2-0.6v-1.5l-1.1,0c-0.5,0-0.9,0.1-1.4,0.2
				c-0.4,0.1-0.8,0.3-1,0.5c-0.3,0.2-0.4,0.6-0.4,1c0,0.5,0.2,0.9,0.5,1.1C158.5,231.3,158.9,231.4,159.4,231.4z"/>
			<path d="M171.6,233.4c-1,0-1.8-0.2-2.6-0.6c-0.8-0.4-1.3-1-1.8-1.8c-0.4-0.8-0.6-1.7-0.6-2.9c0-1.1,0.2-2,0.6-2.8
				c0.4-0.8,1-1.4,1.7-1.9c0.8-0.5,1.6-0.7,2.6-0.7c0.9,0,1.6,0.2,2.2,0.5s1.1,0.8,1.5,1.4s0.6,1.3,0.6,2h-2.4
				c0-0.3-0.1-0.5-0.3-0.8c-0.1-0.3-0.4-0.5-0.6-0.7s-0.6-0.3-1-0.3c-0.7,0-1.2,0.3-1.7,0.8c-0.4,0.5-0.6,1.3-0.6,2.4
				c0,1,0.2,1.8,0.6,2.4c0.4,0.6,1,0.9,1.7,0.9c0.4,0,0.7-0.1,1-0.3s0.5-0.4,0.6-0.7c0.1-0.3,0.2-0.5,0.3-0.8h2.4
				c0,0.7-0.3,1.4-0.6,1.9c-0.4,0.6-0.9,1-1.5,1.4C173.2,233.2,172.4,233.4,171.6,233.4z"/>
			<path d="M178.4,221.3v-2.6h2.8v2.6H178.4z M178.4,233.2v-10.3h2.8v10.3H178.4z"/>
			<path d="M188.6,233.4c-1,0-1.9-0.2-2.6-0.7c-0.8-0.4-1.3-1-1.7-1.8c-0.4-0.8-0.6-1.7-0.6-2.8c0-1.1,0.2-2,0.6-2.8s1-1.4,1.7-1.9
				c0.8-0.5,1.6-0.7,2.7-0.7s1.9,0.2,2.6,0.7s1.3,1.1,1.7,1.9s0.6,1.8,0.6,2.9c0,1-0.2,2-0.6,2.8c-0.4,0.8-1,1.4-1.7,1.9
				C190.6,233.1,189.7,233.4,188.6,233.4z M188.6,231.2c0.5,0,0.9-0.2,1.2-0.5c0.3-0.3,0.5-0.7,0.7-1.2c0.1-0.5,0.2-1,0.2-1.6
				c0-0.5-0.1-1.1-0.2-1.5s-0.3-0.9-0.7-1.2c-0.3-0.3-0.7-0.4-1.3-0.4c-0.5,0-0.9,0.1-1.2,0.4c-0.3,0.3-0.5,0.7-0.7,1.1
				c-0.1,0.5-0.2,1-0.2,1.6c0,0.5,0.1,1.1,0.2,1.6c0.1,0.5,0.4,0.9,0.7,1.2C187.6,231,188.1,231.2,188.6,231.2z"/>
			<path d="M196,233.2v-10.3h2.9v1.5c0.2-0.3,0.4-0.5,0.6-0.7c0.3-0.2,0.6-0.4,1-0.6c0.4-0.2,0.9-0.2,1.4-0.2c0.6,0,1.2,0.1,1.8,0.4
				c0.5,0.2,1,0.6,1.3,1.2c0.3,0.5,0.5,1.2,0.5,2.1v6.8h-2.9v-6.5c0-0.6-0.2-1-0.5-1.3c-0.3-0.3-0.7-0.4-1.2-0.4
				c-0.3,0-0.6,0.1-0.9,0.2c-0.3,0.1-0.5,0.3-0.7,0.5c-0.2,0.2-0.3,0.5-0.3,0.8v6.6H196z"/>
			<path d="M213,233.4c-1,0-1.9-0.2-2.7-0.6c-0.8-0.4-1.4-1-1.8-1.8c-0.4-0.8-0.6-1.7-0.6-2.8c0-1,0.2-2,0.6-2.8
				c0.4-0.8,1-1.5,1.7-2c0.7-0.5,1.6-0.7,2.7-0.7c1.1,0,1.9,0.2,2.6,0.7s1.3,1.1,1.6,1.8c0.4,0.8,0.5,1.7,0.5,2.7v0.8h-6.9
				c0,0.5,0.1,1,0.3,1.4s0.4,0.7,0.8,0.9s0.7,0.3,1.2,0.3c0.5,0,0.9-0.1,1.3-0.3c0.4-0.2,0.6-0.6,0.8-1h2.6
				c-0.1,0.7-0.4,1.4-0.9,1.9c-0.5,0.5-1,0.9-1.7,1.2C214.4,233.2,213.7,233.4,213,233.4z M210.7,226.9h4.2c0-0.4-0.1-0.8-0.2-1.1
				c-0.2-0.3-0.4-0.6-0.7-0.8s-0.7-0.3-1.2-0.3c-0.4,0-0.8,0.1-1.1,0.3c-0.3,0.2-0.6,0.5-0.7,0.8S210.7,226.5,210.7,226.9z"/>
			<path d="M224.3,233.4c-0.7,0-1.4-0.1-2.1-0.4c-0.7-0.2-1.2-0.6-1.7-1.1c-0.5-0.5-0.8-1.2-0.9-2h2.5c0.1,0.4,0.3,0.7,0.5,0.9
				c0.2,0.2,0.5,0.4,0.8,0.5c0.3,0.1,0.6,0.1,0.8,0.1c0.6,0,1-0.1,1.4-0.3c0.3-0.2,0.5-0.4,0.5-0.8c0-0.3-0.1-0.5-0.3-0.7
				c-0.2-0.2-0.5-0.3-1-0.4l-1.8-0.4c-0.9-0.2-1.6-0.5-2.2-1s-0.8-1.1-0.8-2c0-0.6,0.2-1.2,0.5-1.7c0.3-0.5,0.8-0.9,1.5-1.2
				c0.6-0.3,1.4-0.4,2.4-0.4c1.3,0,2.3,0.3,3.1,0.8c0.8,0.6,1.2,1.4,1.2,2.4h-2.4c-0.1-0.4-0.3-0.7-0.6-0.9
				c-0.3-0.2-0.7-0.3-1.2-0.3c-0.5,0-0.9,0.1-1.2,0.3c-0.3,0.2-0.5,0.5-0.5,0.8c0,0.3,0.1,0.5,0.4,0.6c0.3,0.2,0.7,0.3,1.2,0.4
				l1.7,0.4c0.6,0.1,1.1,0.3,1.4,0.6c0.4,0.2,0.6,0.5,0.8,0.8c0.2,0.3,0.3,0.6,0.4,0.9s0.1,0.6,0.1,0.8c0,0.7-0.2,1.3-0.5,1.8
				c-0.4,0.5-0.9,0.9-1.5,1.1C226,233.2,225.2,233.4,224.3,233.4z"/>
		</g>
		<path fill="#FF8540" d="M197.3,74.5c-0.6-0.6-1.5-1-2.4-1c-0.9,0-1.8,0.4-2.4,1l-9.9,10c-0.7,0.7-1.5,1-2.5,1
			c-0.7,0-17.5,0-20.5,0c-0.9,0-1.8-0.4-2.5-1l-9.7-9.8c-0.6-0.6-1.5-1-2.4-1c0,0,0,0,0,0c-0.9,0-1.7,0.4-2.4,1l-29,29.2
			c-1.3,1.3-1.3,3.4,0,4.7l8.3,8.3c1.6,1.6,2.4,3.7,2.4,5.9c0,2.9,0.8,5.7,2.3,8.1c-3.3,4-3.1,10,0.6,13.7c1.8,1.8,4.2,2.9,6.7,3
			c0.1,2.5,1.1,4.9,3,6.7c1.8,1.8,4.2,2.9,6.7,3c0.1,2.5,1.1,4.9,3,6.7c2.9,2.9,7.1,3.7,10.6,2.4c0.5,1.4,1.3,2.7,2.4,3.9
			c4,4,10.4,4,14.4,0l1.4-1.4c0.9-0.9,1.6-1.9,2.1-3c4,3.5,10.1,3.4,13.9-0.5c1.9-1.9,2.8-4.3,3-6.7c2.5-0.1,4.9-1.2,6.7-3
			c1.9-1.9,2.8-4.3,3-6.7c2.5-0.1,4.9-1.2,6.7-3c3.7-3.7,3.9-9.7,0.7-13.7c2.4-3.3,3.6-7.3,3.6-11.5c0-1,0.4-1.9,1.1-2.6l9.9-9.9
			c1.3-1.3,1.3-3.4,0-4.7L197.3,74.5z M132.2,135l4.8-4.9c1.4-1.4,3.5-1.4,4.9,0c1.4,1.4,1.4,3.6,0,5l-4.8,4.9
			c-1.4,1.4-3.5,1.4-4.9,0C130.9,138.7,130.9,136.4,132.2,135z M141.9,144.8l9.7-9.7c1.4-1.4,3.5-1.4,4.9,0c1.4,1.4,1.4,3.6,0,5
			c-3.4,3.5-3.6,3.7-9.7,9.7c-1.4,1.4-3.5,1.4-4.9,0C140.5,148.4,140.5,146.1,141.9,144.8z M151.6,159.5c-1.4-1.4-1.4-3.6,0-5
			l4.8-4.9c1.4-1.4,3.5-1.4,4.9,0c1.3,1.3,1.4,3.3,0.3,4.7c-0.3,0.3,0.1-0.2-5.1,5.2C155.1,160.9,152.9,160.9,151.6,159.5z
			 M170.9,164.3l-1.4,1.4c-1.4,1.4-3.5,1.4-4.9,0c-1.2-1.3-1.4-3.2-0.3-4.6c1.8-1.9,1.8-1.8,2.1-2.1c1.4-1.1,3.3-1,4.6,0.3
			C172.3,160.7,172.3,163,170.9,164.3z M206.2,141.4c-1.4,1.4-3.5,1.4-4.9,0l-6.2-6.3c-1.3-1.3-3.4-1.3-4.7,0
			c-1.3,1.3-1.3,3.4,0,4.7l6.2,6.3c1.4,1.4,1.4,3.6,0,5c-1.4,1.4-3.5,1.4-4.9,0l-6.2-6.3c-1.3-1.3-3.4-1.3-4.7,0s-1.3,3.4,0,4.7
			l6.2,6.3c1.4,1.4,1.4,3.6,0,5c-1.4,1.4-3.5,1.4-4.9,0c-6.6-6.6-6.3-6.4-6.9-6.8c-1.7-1.5-3.8-2.3-6.1-2.4c-0.1-2.4-1.1-4.9-3-6.7
			c-0.9-1-2.1-1.7-3.2-2.2c2.3-3.9,1.7-9-1.6-12.4c-3.4-3.4-8.5-3.9-12.3-1.6c-0.5-1.2-1.2-2.3-2.2-3.2c-4-4-10.4-4-14.4,0l-0.5,0.5
			c-0.4-1-0.6-2-0.6-3c0-4-1.6-7.8-4.4-10.7l-6-6l24.3-24.4l7.3,7.4c1.6,1.7,3.7,2.7,6,2.9l-15,18c-1.2,1.4-1,3.5,0.4,4.7
			c3.4,2.9,7.8,4.2,12.3,3.8c4.5-0.4,8.5-2.5,11.4-6c1.2-1.4,3.2-1.9,4.9-1.1c3.5,1.7,7.3,2.3,11,1.8l22.8,23
			C207.6,137.8,207.6,140,206.2,141.4z M211.7,113.6c-2,2-3,4.6-3,7.3c0,2.3-0.6,4.6-1.7,6.6l-16.3-16.4c3.3-1.9,6.1-4.6,7.9-8.1
			c0.9-1.6,0.2-3.7-1.4-4.5c-1.6-0.9-3.7-0.2-4.5,1.4c-1.8,3.5-4.9,5.8-8.4,6.6c-0.2,0-0.3,0.1-0.5,0.1c-2.7,0.6-5.6,0.3-8.2-1
			c-4.5-2.2-9.8-1-13,2.8c-1.7,2.1-4.1,3.3-6.8,3.6c-1.5,0.1-3-0.1-4.4-0.6l15.5-18.6c1.2-0.4,2.5-0.6,3.7-0.6h9.7
			c2.7,0,5.3-1,7.2-3l7.5-7.6l24.3,24.4L211.7,113.6z"/>
	</g>
</g>
<g id="Capa_2">
</g>
</svg>
