<?xml version="1.0" encoding="utf-8"?>
<!-- Generator: Adobe Illustrator 27.9.0, SVG Export Plug-In . SVG Version: 6.00 Build 0)  -->
<svg version="1.1" xmlns="http://www.w3.org/2000/svg" xmlns:xlink="http://www.w3.org/1999/xlink" x="0px" y="0px"
	 viewBox="0 0 301 67" enable-background="new 0 0 301 67" xml:space="preserve">
<g id="Capa_1">
	<g>
		<g>
			<g>
				<g>
					<g>
						<path fill="#FFC815" d="M87.5,18.5c0.3-0.4,0.1-1-0.3-1.3c-0.3-0.2-0.7-0.3-1-0.4c-1.2-0.5-2.2-1.7-2.3-3
							c-0.2-1.4,0.9-2.3,2.1-2.8c1-0.5,2.2-0.7,3.3-0.7c0.9,0,1.9,0.4,2.5,1.1c0.9,1.1,0.3,1.9,0.7,3.1c1,3.3,5.9-0.7,6.5-2.3
							c0.8-2,0.4-4.5-1.1-6c-0.9-1-2.8-1.3-3.2-0.1c-0.1,0.3-0.1,0.7-0.1,1.1c-0.1,1.3-1.1,2.6-2.4,2.9c-3.1,0.9-3.5-2.5-5-4.2
							c-1.6-1.8-3.6-2.1-5.9-2.3c-2.6-0.2-5.2-0.1-7.8-0.1c-18-0.1-35.9-0.1-53.8,0c-2.5,0-4.9,0-7.5,0c-0.5,0-0.2,0.8-0.1,1
							c0.1,0.3,0.2,0.7,0.1,1.1c-0.3,0.7-1,0.9-1.7,0.8C9.8,6.4,8.9,5.1,8,5.5C7.7,5.6,7.6,6,7.6,6.3c0,0.9,0.6,2.1,1.1,2.9
							c0.3,0.4,0.6,0.8,0.6,1.2c0,0.3-0.1,0.7-0.2,1c-0.6,1.9-1.8,3.1-0.6,5.7c0.7,1.4,2.7,2.3,3.4,3.6c1.1,2.1-0.8,2-0.9,4
							c-0.1,1.2,1.6,1.7,1.9,3c0.3,1.4-0.8,1.7-0.8,2.9c0,0.8,0.3,1.5,0.3,2.3c0,1-0.5,1.6-0.7,2.6c-0.2,0.6-0.2,1.3,0.1,1.9
							c0.9,1.8,3.4,1.5,5,1.9c1.5,0.4,2.9,1.4,2.3,3.1c-0.7,1.8-2.6,3-4.5,2.7c-0.9-0.1-1.8-0.4-2.7-0.7c-1-0.3-2.2,0-2.3,0.9
							c-0.1,1.3,2.3,1,2.9,1.1c3.6,0.4,4.7,4.6,2.8,7.9c-0.7,1.2-1.9,2-2.7,3.2c-0.8,1.4-0.6,2.6,0,3.8c0.8,1.6,2.6,1.7,4.1,1.7
							c11.5,0,22.4,0,35.6,0.1c1,0,2.1,0,3.1-0.4c0.2-0.1,0.3-0.2,0.5-0.3c1.6-1.1,2.3-3.2,3.2-5c2.6-5.2,10.1-9.4,15.7-9
							c0.7,0.1,1.5,0.2,2.2-0.1c0.8-0.3,1.3-1.1,1-1.9c-0.2-0.5-0.6-0.9-0.7-1.4c-0.3-0.9,0.2-1.9,0.8-2.5c1.2-1.2,2.6-1.8,3.2-3.5
							c0.6-1.5,0.6-3.2,0.5-4.8c-0.1-1.5-0.6-3-0.9-4.5c-0.2-1.4-0.1-2.8,0.2-4.2c0.8-3,2.8-4.9,5.4-6.3
							C86.9,19,87.3,18.8,87.5,18.5z"/>
						<circle fill="#FFB109" cx="30.2" cy="18.8" r="9.9"/>
						<path fill="#FF8540" d="M81.9,34.2c0-0.6-0.1-1.1-0.2-1.7c0-0.2-0.1-0.4-0.1-0.6c-0.1-0.4-0.2-0.7-0.3-1.1
							c-0.1-0.4-0.2-0.7-0.2-1.1c-0.1-0.5-0.1-1-0.1-1.6c0-0.9,0.1-1.7,0.3-2.5c0,0,0-0.1,0-0.1c0,0,0,0,0,0
							c0.1-0.3,0.2-0.5,0.2-0.8c0,0,0-0.1,0.1-0.1c0.1-0.2,0.2-0.5,0.3-0.7c0,0,0-0.1,0.1-0.1c0.1-0.2,0.2-0.5,0.4-0.7c0,0,0,0,0,0
							c0.1-0.2,0.3-0.4,0.4-0.6c0,0,0-0.1,0.1-0.1c0.2-0.2,0.3-0.4,0.5-0.6c0,0,0,0,0.1-0.1c0.2-0.2,0.4-0.4,0.6-0.6c0,0,0,0,0,0
							c0.2-0.2,0.4-0.4,0.6-0.5c0,0,0,0,0.1-0.1c0.2-0.2,0.4-0.3,0.7-0.5c0,0,0,0,0,0C82.7,19,80,17.4,77,15.2
							c-24.6-18.6-39.6,4.2-47.8,8c-5.5,2.5-11.4,0.9-17.3-0.3c-0.1,0.2-0.2,0.3-0.4,0.5c0,0,0,0,0,0c0,0.1-0.1,0.1-0.1,0.2
							c0,0,0,0,0,0.1c0,0.1-0.1,0.1-0.1,0.2c0,0,0,0,0,0.1c0,0.1-0.1,0.1-0.1,0.2c0,0,0,0.1,0,0.1c0,0.1,0,0.1-0.1,0.2
							c0,0,0,0.1,0,0.1c0,0.1,0,0.2-0.1,0.3c-0.1,0.8,0.7,1.3,1.3,1.9c0.1,0.1,0.1,0.1,0.2,0.2c0.1,0.1,0.1,0.2,0.2,0.3
							c0.1,0.2,0.2,0.4,0.2,0.6c0,0.2,0,0.3,0,0.5c0,0.8-0.6,1.2-0.7,1.8c0,0.1-0.1,0.2-0.1,0.4c0,0.1,0,0.1,0,0.2
							c0,0.1,0,0.2,0,0.3c0,0.1,0,0.2,0,0.3c0,0.2,0.1,0.4,0.1,0.6c0.1,0.3,0.1,0.6,0.1,0.9c0,0.1,0,0.2,0,0.3
							c0,0.9-0.4,1.5-0.6,2.2c0,0.1-0.1,0.2-0.1,0.3c0,0.1,0,0.2-0.1,0.2c0,0.2,0,0.3-0.1,0.5c0,0.3,0,0.7,0.1,1
							c0,0.1,0.1,0.2,0.1,0.2c0.2,0.4,0.5,0.8,0.9,1c1.1,0.7,2.8,0.6,4.1,0.9c1.5,0.4,2.9,1.4,2.3,3.1c-0.5,1.5-2,2.5-3.5,2.7
							c-0.3,0-0.7,0-1,0c-0.5-0.1-0.9-0.2-1.4-0.3c-0.3-0.1-0.7-0.2-1-0.3c-0.1,0-0.2-0.1-0.3-0.1c-0.1,0-0.2,0-0.2-0.1
							c-0.1,0-0.2,0-0.3-0.1c-0.1,0-0.1,0-0.2,0c-0.8,0-1.4,0.4-1.5,1c0,0.2,0,0.4,0.2,0.6c0,0,0.1,0.1,0.1,0.1
							c0.1,0.1,0.2,0.1,0.4,0.2c0.1,0.1,0.3,0.1,0.5,0.1c0.7,0.1,1.4,0.1,1.8,0.1c3.6,0.4,4.7,4.6,2.8,7.9c-0.2,0.3-0.4,0.6-0.6,0.8
							c-0.1,0.1-0.2,0.3-0.4,0.4c-0.6,0.6-1.2,1.1-1.6,1.8c0,0-0.1,0.1-0.1,0.1c0,0,0,0,0,0c-0.1,0.1-0.1,0.2-0.2,0.3
							c0,0,0,0.1,0,0.1c0,0.1-0.1,0.2-0.1,0.3c0,0,0,0,0,0c-0.1,0.2-0.1,0.4-0.2,0.7l0,0c-0.1,0.8,0.1,1.6,0.6,2.4
							c0.8,1.6,2.6,1.7,4.1,1.7c3,0,6,0,8.9,0l0,0c4.8,0,9.7,0,14.8,0c0.1,0,0.2,0,0.3,0c0.6,0,1.3,0,1.9,0c0.1,0,0.2,0,0.4,0
							c0.7,0,1.4,0,2.1,0c0,0,0.1,0,0.1,0c0.7,0,1.4,0,2.1,0c0.2,0,0.4,0,0.6,0c0.5,0,1.1,0,1.6,0c0.2,0,0.4,0,0.6,0
							c0.7,0,1.5,0,2.2,0c0.1,0,0.3,0,0.4,0c0.8,0,1.6,0,2.3-0.3c0.1,0,0.2-0.1,0.4-0.1c0.2-0.1,0.3-0.2,0.5-0.3
							c1.6-1.1,2.3-3.2,3.2-5c1.6-3.2,5.1-6.1,8.9-7.7c0.4-0.2,0.8-0.3,1.1-0.4c0.2-0.1,0.4-0.1,0.6-0.2c1.7-0.5,3.4-0.8,5-0.7
							c0.7,0.1,1.5,0.2,2.2-0.1c0.8-0.3,1.3-1.1,1-1.9c-0.1-0.2-0.2-0.5-0.4-0.7c-0.1-0.2-0.3-0.4-0.3-0.7c0-0.1-0.1-0.2-0.1-0.3
							c0-0.2,0-0.5,0-0.7s0.1-0.4,0.2-0.7c0.2-0.3,0.4-0.6,0.6-0.9c1-1,2-1.6,2.8-2.6c0.1-0.1,0.1-0.2,0.2-0.3
							c0.1-0.2,0.2-0.4,0.3-0.6c0.3-0.8,0.5-1.6,0.5-2.4c0-0.2,0-0.4,0-0.6c0-0.2,0-0.4,0-0.6C81.9,35,81.9,34.6,81.9,34.2z"/>
						<path fill="#FF682C" d="M12.5,46.5c3.6,0.4,4.7,4.6,2.8,7.9c-0.7,1.2-1.9,2-2.7,3.2c-0.8,1.4-0.6,2.6,0,3.8
							c0.8,1.6,2.6,1.7,4.1,1.7c11.5,0,22.4,0,35.6,0.1c1,0,2.1,0,3.1-0.4c0.2-0.1,0.3-0.2,0.5-0.3c1.6-1.1,2.3-3.2,3.2-5
							c2.6-5.2,10.1-9.4,15.7-9c0.7,0.1,1.5,0.2,2.2-0.1c0.8-0.3,1.3-1.1,1-1.9c-0.2-0.5-0.6-0.9-0.7-1.4c-0.3-0.9,0.2-1.9,0.8-2.5
							c1.2-1.2,2.6-1.8,3.2-3.5c0.6-1.5,0.6-3.2,0.5-4.8c-0.1-1.5-0.6-3-0.9-4.5c-0.1-0.7-0.1-1.5-0.1-2.3
							c-20.7,6.3-42.6-9.2-63.9-5.7c-1.7,0.3-3.4,0.7-5.1,1.3c-0.3,0.4-0.8,0.9-0.9,1.9c-0.1,1.2,1.6,1.7,1.9,3
							c0.3,1.4-0.8,1.7-0.8,2.9c0,0.8,0.3,1.5,0.3,2.3c0,1-0.5,1.6-0.7,2.6c-0.2,0.6-0.2,1.3,0.1,1.9c0.9,1.8,3.4,1.5,5,1.9
							c1.5,0.4,2.9,1.4,2.3,3.1c-0.7,1.8-2.6,3-4.5,2.7c-0.9-0.1-1.8-0.4-2.7-0.7c-1-0.3-2.2,0-2.3,0.9
							C9.4,46.6,11.8,46.4,12.5,46.5z"/>
						<path fill="#5894A7" d="M14.5,45.2c-0.9-0.1-1.8-0.4-2.7-0.7c-1-0.3-2.2,0-2.3,0.9c-0.1,1.3,2.3,1,2.9,1.1
							c3.6,0.4,4.7,4.6,2.8,7.9c-0.7,1.2-1.9,2-2.7,3.2c-0.8,1.4-0.6,2.6,0,3.8c0.8,1.6,2.6,1.7,4.1,1.7c11.5,0,22.4,0,35.6,0.1
							c1,0,2.1,0,3.1-0.4c0.2-0.1,0.3-0.2,0.5-0.3c1.6-1.1,2.3-3.2,3.2-5c2.6-5.2,10.1-9.4,15.7-9c0.7,0.1,1.5,0.2,2.2-0.1
							c0.8-0.3,1.3-1.1,1-1.9c-0.2-0.5-0.6-0.9-0.7-1.4c-0.3-0.9,0.2-1.9,0.8-2.5c1-1,2.1-1.6,2.8-2.7c-2.7-1.7-5.5-3.2-8.6-3.9
							c-6.5-1.5-13.3,0.7-19.3,3.4c-6.1,2.8-12,6.2-18.5,7.4c-5.7,1-11.6,0.1-16.9-2.3C16.7,45,15.6,45.3,14.5,45.2z"/>
						<path fill="#21708C" d="M52.4,63.1c1,0,2.1,0,3.1-0.4c0.2-0.1,0.3-0.2,0.5-0.3c1.6-1.1,2.3-3.2,3.2-5c0.9-1.9,2.5-3.6,4.4-5.1
							c-1.6-0.5-3.2-1-4.8-1.4c-8.9-2.3-19.1-2.1-26.6,3.3c-3.5,2.5-6.2,6-9.3,8.9C32.2,63.1,41.5,63.1,52.4,63.1z"/>
					</g>
				</g>
			</g>
		</g>
		<g>
			<g>
				<g>
					<g>
						<path d="M122.8,30.6c-2.3,0-4.3-0.4-5.9-1.2c-1.6-0.8-2.9-2-3.8-3.5c-0.9-1.5-1.4-3.3-1.4-5.4c0-1.1,0-2.2,0-3.5
							c0-1.2,0-2.4,0-3.5c0.1-2.1,0.6-3.9,1.4-5.3c0.9-1.5,2.2-2.6,3.8-3.4c1.6-0.8,3.6-1.2,5.8-1.2c1.8,0,3.4,0.2,4.8,0.7
							c1.4,0.5,2.5,1.1,3.4,1.9c0.9,0.8,1.6,1.6,2.1,2.5c0.5,0.9,0.7,1.7,0.7,2.4c0,0.2,0,0.4-0.2,0.6c-0.1,0.1-0.4,0.2-0.6,0.2
							h-3.9c-0.3,0-0.4,0-0.6-0.1c-0.1-0.1-0.2-0.3-0.3-0.5c-0.2-0.5-0.5-1-0.9-1.6c-0.4-0.5-1-0.9-1.7-1.3
							c-0.7-0.4-1.7-0.5-2.8-0.5c-1.7,0-3.1,0.5-4.1,1.4c-1,0.9-1.6,2.4-1.6,4.5c-0.1,2.2-0.1,4.4,0,6.6c0.1,2.1,0.6,3.7,1.7,4.6
							c1,0.9,2.4,1.4,4.1,1.4c1.1,0,2.1-0.2,3-0.6c0.9-0.4,1.6-1,2.1-1.9c0.5-0.9,0.8-1.9,0.8-3.3v-1.2h-4.6c-0.3,0-0.5-0.1-0.6-0.3
							c-0.2-0.2-0.3-0.4-0.3-0.7v-2c0-0.3,0.1-0.5,0.3-0.7c0.2-0.2,0.4-0.3,0.6-0.3h9c0.3,0,0.5,0.1,0.7,0.3
							c0.2,0.2,0.2,0.4,0.2,0.7v3.9c0,2.1-0.5,3.9-1.4,5.4c-0.9,1.5-2.2,2.7-3.9,3.5C127.1,30.2,125.1,30.6,122.8,30.6z"/>
						<path d="M145.7,30.6c-2,0-3.7-0.4-5-1.1c-1.4-0.7-2.4-1.7-3.1-3s-1.1-2.8-1.2-4.5c0-0.5,0-1,0-1.7c0-0.7,0-1.2,0-1.7
							c0.1-1.7,0.5-3.2,1.3-4.5c0.7-1.3,1.8-2.2,3.2-2.9c1.4-0.7,3-1.1,5-1.1c2,0,3.6,0.4,5,1.1c1.4,0.7,2.4,1.7,3.2,2.9
							c0.7,1.3,1.2,2.8,1.3,4.5c0,0.5,0,1,0,1.7c0,0.7,0,1.2,0,1.7c-0.1,1.7-0.5,3.2-1.2,4.5s-1.8,2.3-3.1,3
							C149.4,30.2,147.7,30.6,145.7,30.6z M145.7,26.9c1.3,0,2.4-0.4,3.1-1.3c0.7-0.8,1.1-2.1,1.2-3.7c0-0.4,0-0.9,0-1.5
							c0-0.6,0-1.1,0-1.5c-0.1-1.6-0.5-2.9-1.2-3.7c-0.7-0.8-1.8-1.3-3.1-1.3c-1.3,0-2.4,0.4-3.1,1.3c-0.7,0.8-1.1,2.1-1.2,3.7
							c0,0.4,0,0.9,0,1.5c0,0.6,0,1.1,0,1.5c0.1,1.6,0.5,2.9,1.2,3.7C143.4,26.5,144.4,26.9,145.7,26.9z"/>
						<path d="M168.9,30.6c-1.5,0-2.7-0.3-3.6-0.8c-1-0.5-1.8-1.1-2.4-1.9v1.4c0,0.3-0.1,0.5-0.2,0.6c-0.2,0.2-0.4,0.3-0.7,0.3h-3
							c-0.3,0-0.5-0.1-0.6-0.3c-0.2-0.2-0.3-0.4-0.3-0.6V4.5c0-0.3,0.1-0.5,0.3-0.6c0.2-0.2,0.4-0.3,0.6-0.3h3.2
							c0.3,0,0.5,0.1,0.7,0.3c0.2,0.2,0.2,0.4,0.2,0.6v8.3c0.6-0.7,1.4-1.3,2.3-1.8c0.9-0.5,2.1-0.7,3.4-0.7c1.3,0,2.5,0.2,3.5,0.7
							c1,0.5,1.8,1.1,2.5,1.9c0.7,0.8,1.2,1.8,1.5,2.8c0.4,1.1,0.5,2.2,0.6,3.5c0,0.5,0,0.9,0,1.2s0,0.8,0,1.2
							c-0.1,1.3-0.3,2.5-0.6,3.6c-0.4,1.1-0.9,2-1.5,2.8c-0.7,0.8-1.5,1.4-2.4,1.9C171.3,30.4,170.2,30.6,168.9,30.6z M167.5,26.6
							c1.1,0,1.9-0.2,2.5-0.7c0.6-0.5,1-1.1,1.3-1.8c0.3-0.8,0.4-1.6,0.5-2.5c0-0.8,0-1.5,0-2.3c-0.1-0.9-0.2-1.7-0.5-2.5
							c-0.3-0.8-0.7-1.4-1.3-1.8c-0.6-0.5-1.4-0.7-2.5-0.7c-1,0-1.8,0.2-2.4,0.7c-0.6,0.5-1.1,1-1.4,1.7c-0.3,0.7-0.5,1.4-0.5,2.2
							c0,0.5,0,0.9,0,1.4c0,0.5,0,1,0,1.4c0,0.8,0.2,1.5,0.5,2.3c0.3,0.7,0.8,1.3,1.4,1.8C165.6,26.3,166.5,26.6,167.5,26.6z"/>
						<path d="M180.5,8.1c-0.3,0-0.5-0.1-0.6-0.3c-0.2-0.2-0.3-0.4-0.3-0.6V4.5c0-0.3,0.1-0.5,0.3-0.6c0.2-0.2,0.4-0.3,0.6-0.3h3.4
							c0.3,0,0.5,0.1,0.7,0.3c0.2,0.2,0.3,0.4,0.3,0.6v2.7c0,0.3-0.1,0.5-0.3,0.6c-0.2,0.2-0.4,0.3-0.7,0.3H180.5z M180.7,30.2
							c-0.3,0-0.5-0.1-0.6-0.3c-0.2-0.2-0.3-0.4-0.3-0.6V11.6c0-0.3,0.1-0.5,0.3-0.6c0.2-0.2,0.4-0.3,0.6-0.3h3.1
							c0.3,0,0.5,0.1,0.7,0.3c0.2,0.2,0.2,0.4,0.2,0.6v17.7c0,0.3-0.1,0.5-0.2,0.6c-0.2,0.2-0.4,0.3-0.7,0.3H180.7z"/>
						<path d="M196.8,30.6c-2.8,0-5-0.8-6.6-2.4c-1.6-1.6-2.5-3.9-2.6-6.8c0-0.2,0-0.6,0-1c0-0.4,0-0.7,0-0.9
							c0.1-1.9,0.5-3.5,1.3-4.9c0.8-1.4,1.8-2.4,3.2-3.2c1.4-0.7,2.9-1.1,4.8-1.1c2,0,3.7,0.4,5.1,1.3c1.4,0.8,2.4,2,3.1,3.5
							c0.7,1.5,1.1,3.2,1.1,5.2V21c0,0.3-0.1,0.5-0.3,0.6c-0.2,0.2-0.4,0.3-0.7,0.3h-12.5c0,0.1,0,0.3,0,0.3c0,0.9,0.2,1.7,0.5,2.4
							c0.3,0.7,0.8,1.3,1.4,1.8c0.6,0.5,1.3,0.7,2.2,0.7c0.7,0,1.3-0.1,1.8-0.3c0.5-0.2,0.9-0.5,1.2-0.7c0.3-0.3,0.5-0.5,0.6-0.7
							c0.2-0.3,0.4-0.5,0.5-0.5c0.1-0.1,0.3-0.1,0.6-0.1h3.2c0.3,0,0.5,0.1,0.6,0.2c0.2,0.2,0.2,0.3,0.2,0.6c0,0.4-0.2,0.9-0.6,1.5
							c-0.4,0.6-0.9,1.1-1.7,1.7c-0.7,0.6-1.6,1-2.7,1.4C199.5,30.4,198.2,30.6,196.8,30.6z M192.7,18.8h8.3v-0.1
							c0-1-0.2-1.8-0.5-2.6c-0.3-0.7-0.8-1.3-1.4-1.7c-0.6-0.4-1.4-0.6-2.3-0.6c-0.9,0-1.6,0.2-2.3,0.6c-0.6,0.4-1.1,1-1.4,1.7
							c-0.3,0.7-0.5,1.6-0.5,2.6V18.8z"/>
						<path d="M209.7,30.2c-0.3,0-0.5-0.1-0.6-0.3c-0.2-0.2-0.3-0.4-0.3-0.6V11.6c0-0.3,0.1-0.5,0.3-0.7c0.2-0.2,0.4-0.3,0.6-0.3h3
							c0.2,0,0.5,0.1,0.7,0.3c0.2,0.2,0.3,0.4,0.3,0.7v1.5c0.6-0.8,1.3-1.4,2.2-1.8c0.9-0.4,2-0.6,3.2-0.6h1.5
							c0.3,0,0.5,0.1,0.7,0.3c0.2,0.2,0.2,0.4,0.2,0.6v2.7c0,0.3-0.1,0.5-0.2,0.6c-0.2,0.2-0.4,0.3-0.7,0.3h-2.9
							c-1.2,0-2.1,0.3-2.8,1c-0.7,0.7-1,1.6-1,2.8v10.3c0,0.3-0.1,0.5-0.3,0.6c-0.2,0.2-0.4,0.3-0.7,0.3H209.7z"/>
						<path d="M224.1,30.2c-0.3,0-0.5-0.1-0.6-0.3s-0.3-0.4-0.3-0.6V11.6c0-0.3,0.1-0.5,0.3-0.6c0.2-0.2,0.4-0.3,0.6-0.3h3.1
							c0.2,0,0.5,0.1,0.6,0.3c0.2,0.2,0.3,0.4,0.3,0.6v1.5c0.7-0.8,1.5-1.5,2.5-2c1-0.5,2.3-0.8,3.8-0.8c1.5,0,2.9,0.3,4,1
							c1.1,0.7,2,1.7,2.6,2.9c0.6,1.3,0.9,2.8,0.9,4.5v10.5c0,0.3-0.1,0.5-0.3,0.6c-0.2,0.2-0.4,0.3-0.6,0.3h-3.3
							c-0.3,0-0.5-0.1-0.6-0.3c-0.2-0.2-0.3-0.4-0.3-0.6V19c0-1.5-0.4-2.6-1.1-3.4c-0.7-0.8-1.7-1.2-3.1-1.2c-1.3,0-2.3,0.4-3.1,1.2
							c-0.8,0.8-1.2,2-1.2,3.4v10.3c0,0.3-0.1,0.5-0.3,0.6c-0.2,0.2-0.4,0.3-0.6,0.3H224.1z"/>
						<path d="M254,30.6c-2,0-3.7-0.4-5-1.1c-1.4-0.7-2.4-1.7-3.1-3s-1.1-2.8-1.2-4.5c0-0.5,0-1,0-1.7c0-0.7,0-1.2,0-1.7
							c0.1-1.7,0.5-3.2,1.3-4.5c0.7-1.3,1.8-2.2,3.2-2.9c1.4-0.7,3-1.1,5-1.1c2,0,3.6,0.4,5,1.1c1.4,0.7,2.4,1.7,3.2,2.9
							c0.7,1.3,1.2,2.8,1.3,4.5c0,0.5,0,1,0,1.7c0,0.7,0,1.2,0,1.7c-0.1,1.7-0.5,3.2-1.2,4.5s-1.8,2.3-3.1,3
							C257.7,30.2,256,30.6,254,30.6z M254,26.9c1.3,0,2.4-0.4,3.1-1.3c0.7-0.8,1.1-2.1,1.2-3.7c0-0.4,0-0.9,0-1.5
							c0-0.6,0-1.1,0-1.5c-0.1-1.6-0.5-2.9-1.2-3.7c-0.7-0.8-1.8-1.3-3.1-1.3c-1.3,0-2.4,0.4-3.1,1.3c-0.7,0.8-1.1,2.1-1.2,3.7
							c0,0.4,0,0.9,0,1.5c0,0.6,0,1.1,0,1.5c0.1,1.6,0.5,2.9,1.2,3.7C251.6,26.5,252.7,26.9,254,26.9z"/>
						<path d="M119.4,63.5c-1.3,0-2.4-0.2-3.4-0.7c-1-0.4-1.8-1.1-2.5-1.9c-0.7-0.8-1.2-1.7-1.5-2.8c-0.4-1.1-0.6-2.3-0.6-3.6
							c0-0.5,0-0.9,0-1.2c0-0.4,0-0.8,0-1.2c0-1.3,0.2-2.4,0.6-3.5c0.3-1.1,0.8-2,1.5-2.8c0.7-0.8,1.5-1.4,2.5-1.9
							c1-0.5,2.1-0.7,3.4-0.7c1.4,0,2.5,0.2,3.4,0.7c0.9,0.5,1.7,1.1,2.3,1.8v-8.3c0-0.3,0.1-0.5,0.2-0.6c0.2-0.2,0.4-0.3,0.7-0.3
							h3.2c0.2,0,0.5,0.1,0.6,0.3c0.2,0.2,0.3,0.4,0.3,0.6v24.9c0,0.3-0.1,0.5-0.3,0.6c-0.2,0.2-0.4,0.3-0.6,0.3h-3
							c-0.3,0-0.5-0.1-0.7-0.3c-0.2-0.2-0.2-0.4-0.2-0.6v-1.4c-0.6,0.8-1.4,1.4-2.4,1.9C122,63.2,120.8,63.5,119.4,63.5z
							 M120.7,59.5c1.1,0,1.9-0.2,2.5-0.7c0.6-0.5,1.1-1.1,1.4-1.8c0.3-0.7,0.5-1.5,0.5-2.3c0-0.5,0-0.9,0-1.4c0-0.5,0-1,0-1.4
							c0-0.8-0.2-1.5-0.5-2.2c-0.3-0.7-0.8-1.3-1.4-1.7c-0.6-0.5-1.4-0.7-2.4-0.7c-1.1,0-1.9,0.2-2.5,0.7c-0.6,0.5-1.1,1.1-1.3,1.8
							c-0.3,0.8-0.4,1.6-0.5,2.5c0,0.8,0,1.5,0,2.3c0,0.9,0.2,1.7,0.5,2.5c0.3,0.8,0.7,1.4,1.3,1.8
							C118.9,59.3,119.7,59.5,120.7,59.5z"/>
						<path d="M142.3,63.5c-2.8,0-5-0.8-6.6-2.4c-1.6-1.6-2.5-3.9-2.6-6.8c0-0.2,0-0.6,0-1c0-0.4,0-0.7,0-0.9
							c0.1-1.9,0.5-3.5,1.3-4.9c0.8-1.4,1.8-2.4,3.2-3.2c1.4-0.7,2.9-1.1,4.8-1.1c2,0,3.7,0.4,5.1,1.3c1.4,0.8,2.4,2,3.1,3.5
							c0.7,1.5,1.1,3.2,1.1,5.2v0.8c0,0.3-0.1,0.5-0.3,0.6c-0.2,0.2-0.4,0.3-0.7,0.3h-12.5c0,0.1,0,0.3,0,0.3c0,0.9,0.2,1.7,0.5,2.4
							c0.3,0.7,0.8,1.3,1.4,1.8c0.6,0.5,1.3,0.7,2.2,0.7c0.7,0,1.3-0.1,1.8-0.3c0.5-0.2,0.9-0.5,1.2-0.7c0.3-0.3,0.5-0.5,0.6-0.7
							c0.2-0.3,0.4-0.5,0.5-0.5c0.1-0.1,0.3-0.1,0.6-0.1h3.2c0.3,0,0.5,0.1,0.6,0.2c0.2,0.2,0.2,0.3,0.2,0.6c0,0.4-0.2,0.9-0.6,1.5
							c-0.4,0.6-0.9,1.1-1.7,1.7c-0.7,0.6-1.6,1-2.7,1.4C144.9,63.3,143.7,63.5,142.3,63.5z M138.1,51.7h8.3v-0.1
							c0-1-0.2-1.8-0.5-2.6c-0.3-0.7-0.8-1.3-1.4-1.7c-0.6-0.4-1.4-0.6-2.3-0.6c-0.9,0-1.6,0.2-2.3,0.6c-0.6,0.4-1.1,1-1.4,1.7
							c-0.3,0.7-0.5,1.6-0.5,2.6V51.7z"/>
						<path d="M155.2,63.1c-0.3,0-0.5-0.1-0.6-0.3c-0.2-0.2-0.3-0.4-0.3-0.6V37.4c0-0.3,0.1-0.5,0.3-0.6c0.2-0.2,0.4-0.3,0.6-0.3
							h3.1c0.3,0,0.5,0.1,0.6,0.3c0.2,0.2,0.3,0.4,0.3,0.6v24.9c0,0.3-0.1,0.5-0.3,0.6c-0.2,0.2-0.4,0.3-0.6,0.3H155.2z"/>
						<path d="M180.8,63.5c-2.3,0-4.3-0.4-5.9-1.2c-1.6-0.8-2.8-2-3.7-3.5c-0.9-1.5-1.3-3.3-1.4-5.5c0-1,0-2.1,0-3.3
							c0-1.2,0-2.3,0-3.4c0.1-2.1,0.6-3.9,1.4-5.4c0.9-1.5,2.1-2.7,3.7-3.5c1.6-0.8,3.6-1.2,5.9-1.2c1.7,0,3.2,0.2,4.6,0.7
							c1.4,0.5,2.5,1.1,3.5,1.9c1,0.8,1.7,1.7,2.2,2.8c0.5,1.1,0.8,2.2,0.8,3.4c0,0.2,0,0.4-0.2,0.6c-0.2,0.1-0.4,0.2-0.6,0.2h-3.6
							c-0.3,0-0.5-0.1-0.7-0.2c-0.2-0.1-0.3-0.4-0.4-0.7c-0.4-1.7-1.1-2.8-2.1-3.4c-1-0.6-2.2-0.9-3.6-0.9c-1.7,0-3,0.5-4,1.4
							c-1,0.9-1.5,2.5-1.6,4.6c-0.1,2.1-0.1,4.2,0,6.3c0.1,2.2,0.6,3.7,1.6,4.6c1,0.9,2.3,1.4,4,1.4c1.5,0,2.7-0.3,3.7-0.9
							c1-0.6,1.7-1.7,2-3.4c0.1-0.4,0.2-0.6,0.4-0.7c0.2-0.1,0.4-0.2,0.7-0.2h3.6c0.2,0,0.4,0.1,0.6,0.2c0.2,0.1,0.2,0.3,0.2,0.6
							c0,1.2-0.3,2.4-0.8,3.4c-0.5,1.1-1.3,2-2.2,2.8c-1,0.8-2.1,1.4-3.5,1.9C184,63.3,182.5,63.5,180.8,63.5z"/>
						<path d="M195.6,63.1c-0.3,0-0.5-0.1-0.6-0.3c-0.2-0.2-0.3-0.4-0.3-0.6V37.4c0-0.3,0.1-0.5,0.3-0.6c0.2-0.2,0.4-0.3,0.6-0.3
							h3.3c0.3,0,0.5,0.1,0.7,0.3c0.2,0.2,0.2,0.4,0.2,0.6v8.6c0.7-0.8,1.5-1.5,2.5-2c1-0.5,2.2-0.8,3.6-0.8c1.5,0,2.9,0.3,4,1
							c1.1,0.7,2,1.7,2.6,2.9c0.6,1.3,0.9,2.8,0.9,4.5v10.5c0,0.3-0.1,0.5-0.3,0.6c-0.2,0.2-0.4,0.3-0.6,0.3h-3.4
							c-0.3,0-0.5-0.1-0.6-0.3c-0.2-0.2-0.3-0.4-0.3-0.6V51.9c0-1.5-0.4-2.6-1.1-3.4c-0.7-0.8-1.7-1.2-3.1-1.2
							c-1.3,0-2.3,0.4-3.1,1.2c-0.8,0.8-1.2,2-1.2,3.4v10.3c0,0.3-0.1,0.5-0.2,0.6c-0.2,0.2-0.4,0.3-0.7,0.3H195.6z"/>
						<path d="M224.2,63.5c-1.5,0-2.8-0.3-4-1c-1.1-0.7-2-1.7-2.6-2.9c-0.6-1.3-0.9-2.8-0.9-4.5V44.5c0-0.3,0.1-0.5,0.3-0.6
							c0.2-0.2,0.4-0.3,0.6-0.3h3.3c0.3,0,0.5,0.1,0.7,0.3c0.2,0.2,0.2,0.4,0.2,0.6v10.3c0,3.1,1.4,4.7,4.1,4.7
							c1.3,0,2.3-0.4,3.1-1.2c0.8-0.8,1.1-2,1.1-3.4V44.5c0-0.3,0.1-0.5,0.3-0.6c0.2-0.2,0.4-0.3,0.6-0.3h3.3c0.2,0,0.5,0.1,0.6,0.3
							c0.2,0.2,0.3,0.4,0.3,0.6v17.7c0,0.3-0.1,0.5-0.3,0.6s-0.4,0.3-0.6,0.3h-3c-0.3,0-0.5-0.1-0.7-0.3c-0.2-0.2-0.2-0.4-0.2-0.6
							v-1.5c-0.7,0.9-1.5,1.6-2.5,2.1C227,63.2,225.7,63.5,224.2,63.5z"/>
						<path d="M249.8,63.5c-1.5,0-2.7-0.3-3.6-0.8c-1-0.5-1.8-1.1-2.4-1.9v1.4c0,0.3-0.1,0.5-0.2,0.6c-0.2,0.2-0.4,0.3-0.7,0.3h-3
							c-0.3,0-0.5-0.1-0.6-0.3c-0.2-0.2-0.3-0.4-0.3-0.6V37.4c0-0.3,0.1-0.5,0.3-0.6c0.2-0.2,0.4-0.3,0.6-0.3h3.2
							c0.3,0,0.5,0.1,0.7,0.3c0.2,0.2,0.2,0.4,0.2,0.6v8.3c0.6-0.7,1.4-1.3,2.3-1.8c0.9-0.5,2.1-0.7,3.4-0.7c1.3,0,2.5,0.2,3.5,0.7
							c1,0.5,1.8,1.1,2.5,1.9c0.7,0.8,1.2,1.8,1.5,2.8c0.4,1.1,0.5,2.2,0.6,3.5c0,0.5,0,0.9,0,1.2c0,0.4,0,0.8,0,1.2
							c-0.1,1.3-0.3,2.5-0.6,3.6c-0.4,1.1-0.9,2-1.5,2.8c-0.7,0.8-1.5,1.4-2.4,1.9C252.3,63.3,251.1,63.5,249.8,63.5z M248.4,59.5
							c1.1,0,1.9-0.2,2.5-0.7c0.6-0.5,1-1.1,1.3-1.8c0.3-0.8,0.4-1.6,0.5-2.5c0-0.8,0-1.5,0-2.3c-0.1-0.9-0.2-1.7-0.5-2.5
							c-0.3-0.8-0.7-1.4-1.3-1.8c-0.6-0.5-1.4-0.7-2.5-0.7c-1,0-1.8,0.2-2.4,0.7c-0.6,0.5-1.1,1-1.4,1.7c-0.3,0.7-0.5,1.4-0.5,2.2
							c0,0.5,0,0.9,0,1.4c0,0.5,0,1,0,1.4c0,0.8,0.2,1.5,0.5,2.3c0.3,0.7,0.8,1.3,1.4,1.8C246.6,59.2,247.4,59.5,248.4,59.5z"/>
						<path d="M268,63.5c-1.5,0-2.8-0.3-4-1c-1.1-0.7-2-1.7-2.6-2.9c-0.6-1.3-0.9-2.8-0.9-4.5V44.5c0-0.3,0.1-0.5,0.3-0.6
							c0.2-0.2,0.4-0.3,0.6-0.3h3.3c0.3,0,0.5,0.1,0.7,0.3c0.2,0.2,0.2,0.4,0.2,0.6v10.3c0,3.1,1.4,4.7,4.1,4.7
							c1.3,0,2.3-0.4,3.1-1.2c0.8-0.8,1.1-2,1.1-3.4V44.5c0-0.3,0.1-0.5,0.3-0.6c0.2-0.2,0.4-0.3,0.6-0.3h3.3c0.3,0,0.5,0.1,0.6,0.3
							c0.2,0.2,0.3,0.4,0.3,0.6v17.7c0,0.3-0.1,0.5-0.3,0.6c-0.2,0.2-0.4,0.3-0.6,0.3h-3c-0.3,0-0.5-0.1-0.7-0.3
							c-0.2-0.2-0.2-0.4-0.2-0.6v-1.5c-0.7,0.9-1.5,1.6-2.5,2.1C270.7,63.2,269.5,63.5,268,63.5z"/>
						<path d="M282.7,43.6v-6.2c0-0.3,0.1-0.5,0.2-0.6c0.2-0.2,0.4-0.3,0.7-0.3h3c0.2,0,0.5,0.1,0.6,0.3c0.2,0.2,0.3,0.4,0.3,0.6
							v6.2h5c0.3,0,0.5,0.1,0.6,0.3c0.2,0.2,0.3,0.4,0.3,0.6v2.1c0,0.3-0.1,0.5-0.3,0.7c-0.2,0.2-0.4,0.3-0.6,0.3h-5v8.1
							c0,1,0.2,1.8,0.5,2.4c0.4,0.6,1,0.9,1.9,0.9h2.6c0.2,0,0.5,0.1,0.6,0.3c0.2,0.2,0.3,0.4,0.3,0.6v2.3c0,0.3-0.1,0.5-0.3,0.6
							c-0.2,0.2-0.4,0.3-0.6,0.3h-3c-1.5,0-2.8-0.3-3.8-0.8c-1-0.5-1.8-1.3-2.3-2.3c-0.5-1-0.8-2.3-0.8-3.9v-8.5V43.6z"/>
					</g>
				</g>
			</g>
		</g>
	</g>
</g>
<g id="Capa_2">
</g>
</svg>
