<?xml version="1.0" encoding="utf-8"?>
<!-- Generator: Adobe Illustrator 27.9.0, SVG Export Plug-In . SVG Version: 6.00 Build 0)  -->
<svg version="1.1" xmlns="http://www.w3.org/2000/svg" xmlns:xlink="http://www.w3.org/1999/xlink" x="0px" y="0px"
	 viewBox="0 0 512 65" enable-background="new 0 0 512 65" xml:space="preserve">
<g id="Capa_1">
	<g>
		<g>
			<defs>
				
					<rect id="SVGID_00000170983143886595160320000011253794278603113103_" x="502.5" y="-1606" transform="matrix(6.123234e-17 -1 1 6.123234e-17 1598.5 306.5)" width="900" height="1920"/>
			</defs>
			<clipPath id="SVGID_00000135685934442865413580000006122286151241911173_">
				<use xlink:href="#SVGID_00000170983143886595160320000011253794278603113103_"  overflow="visible"/>
			</clipPath>
			<path clip-path="url(#SVGID_00000135685934442865413580000006122286151241911173_)" fill="#FF8540" d="M-127.7,80.4
				c109,12.2,142,135.1,84.3,231.9c-21.4,35.9-58.7,59-80.1,94.3c-25.3,41.7-18.7,76.2,1.3,112.6c25.3,46.1,77.1,51.1,124.6,51.3
				c347.8,1.4,675.5-0.3,1076.9,1.8c31.3,0.2,63.8,0.6,92.3-12.5c4.9-2.2,9.6-4.8,14-7.6c48.6-31,69.5-95,96.6-148.4
				c77.6-153.2,304.2-278.4,473.1-266.2c22.4,1.6,45.6,4.9,66.8-2.9c23.4-8.6,39.1-32.2,29.1-56c-5.9-14-16.7-25.9-21.3-40.4
				c-8.4-26.3,5.9-54.9,25.6-74.7c35.7-35.8,77.1-53.8,97.6-102.4c18.7-44.3,18.5-94.5,16.4-141.6c-2.1-45.3-19-88.3-26.7-132.7
				c-3.8-22.1-4.4-247.8-2.5-270.7C1313.8-499.5,653.1-954.9,8-853.3c-51.7,8.1-103.3,21.2-153.5,38.7
				c-10.5,13.2-24.2,229.5-26.6,257.2c-3.2,35.8,48.6,48.7,56.2,87.6c7.9,40.3-25.4,49.3-23.6,85.9c1.1,22.5,9.4,44.6,9.4,67
				c0,28.9-14.7,48-21.6,75.6c-4.7,18.8-4.7,39.5,4.2,56.8c26.8,52.4,101.4,44.8,150.3,55.7C49.4-118.3,90-87,71.2-37
				C51.2,16.2-8.2,51-65.8,41.9c-27.8-4.4-54.9-13-81.7-21.4c-31-9.8-66.3,1-68.9,26.8C-220.2,84.5-148.4,78.1-127.7,80.4z"/>
			<path clip-path="url(#SVGID_00000135685934442865413580000006122286151241911173_)" fill="#21708A" d="M-604,222.6
				c60,90.2,211.7-277.2,325.7-238.3c149.1,51,328.1,53.9,494.2-2C369-69.2,503.3-161.8,642.6-242.2
				c139.3-80.4,296-152.1,451.6-150.3c125.5,1.5,234.1,50.6,345.5,88.2c111.3,37.6,240.4,64,363.5,21
				c123.9-43.3,234.5-153.4,358.7-142.8c91,7.8,146.2,80,231.3,102.3c81.9,21.5,177.8-6,265.5-35.5c87.7-29.6,180.2-62.3,266.6-51.3
				c86.4,11,156.5,87.3,115,160.2L-318.7,1210.2L-604,222.6z"/>
		</g>
	</g>
	<g>
		<g>
			<path fill="#FF682C" d="M373.6,30.7c-0.1-0.1-0.2-0.3-0.1-0.5l4-18.9c0-0.2,0.1-0.4,0.3-0.5c0.2-0.1,0.4-0.2,0.6-0.2h4
				c0.2,0,0.4,0.1,0.5,0.2c0.1,0.1,0.2,0.3,0.1,0.5l-1.5,6.9h6.9l1.5-6.9c0-0.2,0.1-0.4,0.3-0.5c0.2-0.1,0.4-0.2,0.6-0.2h4
				c0.2,0,0.4,0.1,0.5,0.2c0.1,0.1,0.1,0.3,0.1,0.5l-4,18.9c0,0.2-0.1,0.4-0.3,0.5c-0.2,0.1-0.4,0.2-0.6,0.2h-4
				c-0.2,0-0.4-0.1-0.5-0.2c-0.1-0.1-0.2-0.3-0.1-0.5l1.5-7.1h-6.9l-1.5,7.1c0,0.2-0.1,0.4-0.3,0.5c-0.2,0.1-0.4,0.2-0.6,0.2h-4
				C373.9,30.9,373.7,30.8,373.6,30.7z"/>
			<path fill="#FF682C" d="M396.8,29.8c-0.9-0.9-1.3-2.1-1.3-3.8c0-0.7,0-1.2,0.1-1.7l0.4-2.1c0.6-2.2,1.5-3.8,2.7-5
				c1.3-1.2,2.9-1.8,4.8-1.8c1.1,0,1.9,0.2,2.6,0.5c0.6,0.3,1.1,0.7,1.5,1.3l0.2-0.7c0-0.2,0.1-0.4,0.3-0.5c0.2-0.1,0.4-0.2,0.6-0.2
				h3.4c0.2,0,0.4,0.1,0.5,0.2c0.1,0.1,0.2,0.3,0.1,0.5l-2.9,13.7c0,0.2-0.1,0.4-0.3,0.5c-0.2,0.1-0.4,0.2-0.6,0.2h-3.5
				c-0.2,0-0.4-0.1-0.5-0.2c-0.1-0.1-0.2-0.3-0.1-0.5l0.2-0.9c-0.7,0.6-1.4,1.1-2,1.4c-0.7,0.3-1.5,0.5-2.6,0.5
				C399,31.2,397.7,30.7,396.8,29.8z M404.8,26.3c0.5-0.5,0.9-1.2,1.1-2c0.2-0.8,0.4-1.5,0.5-2.2c0-0.3,0.1-0.5,0.1-0.7
				c0-0.6-0.2-1.1-0.5-1.4c-0.3-0.3-0.8-0.5-1.5-0.5c-0.8,0-1.5,0.3-2,0.8c-0.5,0.5-0.9,1.2-1.1,2.1c-0.2,0.7-0.3,1.3-0.4,1.8
				c-0.1,0.3-0.1,0.7-0.1,1c0,0.6,0.1,1.1,0.4,1.4s0.7,0.5,1.4,0.5C403.6,27.1,404.3,26.8,404.8,26.3z"/>
			<path fill="#FF682C" d="M417,30.5c-1-0.4-1.8-1.1-2.3-1.9c-0.6-0.8-0.8-1.8-0.8-3c0-0.4,0-0.8,0.1-1.2l0.5-2.4
				c0.6-2.1,1.6-3.8,3.1-5c1.5-1.2,3.4-1.7,5.6-1.7c1.6,0,2.8,0.3,3.9,0.8c1,0.6,1.8,1.2,2.3,2c0.5,0.8,0.7,1.5,0.7,2.2l0,0.3
				c0,0.2-0.1,0.4-0.3,0.5c-0.2,0.1-0.4,0.2-0.6,0.2h-4c-0.4,0-0.6-0.2-0.7-0.6c0-0.6-0.2-1-0.5-1.2c-0.3-0.3-0.7-0.4-1.3-0.4
				c-1.5,0-2.5,1-3,3c-0.2,1-0.4,1.7-0.4,2.1c-0.1,0.5-0.1,0.9-0.1,1.1c0,0.6,0.1,1.1,0.4,1.4c0.3,0.3,0.7,0.5,1.3,0.5
				c0.6,0,1-0.1,1.5-0.4c0.4-0.3,0.8-0.7,1.1-1.2c0.1-0.2,0.2-0.4,0.4-0.5c0.1-0.1,0.3-0.1,0.5-0.1h4c0.2,0,0.4,0.1,0.5,0.2
				c0.1,0.1,0.1,0.3,0.1,0.5c-0.2,0.7-0.6,1.4-1.3,2.2c-0.6,0.8-1.6,1.5-2.8,2.2c-1.2,0.6-2.7,0.9-4.5,0.9
				C419.1,31.2,418,30.9,417,30.5z"/>
			<path fill="#FF682C" d="M433.1,29.8c-1.1-0.9-1.6-2.3-1.6-4.1c0-0.7,0.1-1.3,0.2-2l0.2-0.9c0.6-2.3,1.7-4.1,3.3-5.4
				c1.6-1.3,3.6-2,5.9-2c2.1,0,3.6,0.5,4.7,1.5c1,1,1.6,2.4,1.6,4.1c0,0.6-0.1,1.3-0.2,2.1l-0.1,0.7c-0.1,0.2-0.2,0.4-0.3,0.5
				c-0.2,0.1-0.4,0.2-0.6,0.2h-9.2l0,0.2c-0.1,0.3-0.1,0.6-0.1,0.9c0,0.6,0.1,1.1,0.4,1.4c0.3,0.4,0.7,0.5,1.3,0.5
				c0.5,0,0.9-0.1,1.2-0.3c0.3-0.2,0.6-0.4,0.9-0.7c0.2-0.2,0.4-0.3,0.5-0.4c0.1,0,0.3-0.1,0.5-0.1h3.8c0.2,0,0.3,0.1,0.4,0.2
				c0.1,0.1,0.1,0.3,0.1,0.4c-0.1,0.5-0.6,1.1-1.3,1.8c-0.7,0.7-1.7,1.2-2.9,1.7c-1.2,0.5-2.5,0.7-4,0.7
				C435.8,31.2,434.2,30.7,433.1,29.8z M442.1,21.7L442.1,21.7c0.1-0.4,0.1-0.7,0.1-1c0-0.6-0.2-1.1-0.5-1.4
				c-0.3-0.3-0.8-0.5-1.4-0.5c-0.7,0-1.4,0.3-1.9,0.8c-0.5,0.5-0.9,1.2-1.1,2.2v0.1H442.1z"/>
			<path fill="#FF682C" d="M448,30.6c-0.1-0.1-0.1-0.3-0.1-0.5l2.9-13.7c0-0.2,0.1-0.4,0.3-0.5c0.2-0.1,0.4-0.2,0.6-0.2h3.4
				c0.2,0,0.4,0.1,0.5,0.2c0.1,0.1,0.1,0.3,0.1,0.5l-0.2,1c0.6-0.6,1.3-1.1,1.9-1.5c0.7-0.4,1.5-0.5,2.5-0.5c1.1,0,2,0.2,2.7,0.7
				c0.7,0.4,1.2,1.1,1.5,1.8c0.7-0.8,1.4-1.4,2.2-1.8c0.8-0.4,1.7-0.7,2.7-0.7c1.4,0,2.5,0.4,3.3,1.1c0.8,0.7,1.2,1.9,1.2,3.3
				c0,0.5-0.1,1.2-0.2,2l-1.7,8.3c0,0.2-0.1,0.4-0.3,0.5c-0.2,0.1-0.4,0.2-0.6,0.2H467c-0.2,0-0.4-0.1-0.5-0.2
				c-0.1-0.1-0.2-0.3-0.1-0.5l1.7-8.1c0.1-0.3,0.1-0.7,0.1-1c0-1.1-0.5-1.6-1.6-1.6c-0.6,0-1.2,0.2-1.7,0.6c-0.5,0.4-0.8,1.1-1,2
				l-1.7,8.1c0,0.2-0.1,0.4-0.3,0.5c-0.2,0.1-0.4,0.2-0.6,0.2h-3.6c-0.2,0-0.4-0.1-0.5-0.2c-0.1-0.1-0.2-0.3-0.1-0.5l1.7-8.1
				c0.1-0.3,0.1-0.6,0.1-1c0-1.1-0.5-1.6-1.6-1.6c-0.6,0-1.2,0.2-1.7,0.6c-0.5,0.4-0.9,1.1-1,1.9l-1.7,8.1c0,0.2-0.1,0.4-0.3,0.5
				c-0.2,0.1-0.4,0.2-0.6,0.2h-3.7C448.2,30.9,448.1,30.8,448,30.6z"/>
			<path fill="#FF682C" d="M476.9,29.7c-1.2-0.9-1.8-2.2-1.8-3.9c0-0.4,0-0.8,0.1-1.2c0.1-0.9,0.3-1.7,0.6-2.6
				c0.6-2.1,1.6-3.7,3.1-4.9c1.5-1.1,3.4-1.7,5.9-1.7c2.1,0,3.7,0.5,4.9,1.4c1.2,1,1.8,2.3,1.8,4c0,0.3,0,0.7-0.1,1.1
				c-0.2,1.1-0.4,1.9-0.6,2.6c-0.6,2.1-1.6,3.8-3,4.9c-1.4,1.1-3.4,1.7-5.9,1.7C479.7,31.2,478.1,30.7,476.9,29.7z M484.3,26.7
				c0.5-0.5,0.9-1.3,1.2-2.3c0.3-1,0.4-1.7,0.5-2.3c0.1-0.4,0.1-0.8,0.1-1.1c0-0.6-0.1-1.1-0.4-1.4c-0.3-0.3-0.8-0.5-1.4-0.5
				c-0.8,0-1.5,0.3-2,0.8c-0.5,0.5-0.9,1.3-1.1,2.3c-0.1,0.3-0.2,0.7-0.3,1.2c-0.1,0.4-0.2,0.8-0.2,1.2c-0.1,0.6-0.1,1-0.1,1.1
				c0,0.6,0.1,1.1,0.4,1.4c0.3,0.3,0.8,0.5,1.4,0.5C483.1,27.5,483.8,27.2,484.3,26.7z"/>
			<path fill="#FF682C" d="M495.3,30.6c-1-0.4-1.6-0.9-2.1-1.4c-0.4-0.6-0.6-1.1-0.6-1.6l0-0.3c0-0.2,0.1-0.4,0.3-0.5
				c0.2-0.1,0.3-0.2,0.5-0.2h3.5c0.1,0,0.2,0,0.3,0.1c0.1,0.1,0.3,0.2,0.6,0.4c0.3,0.3,0.6,0.5,0.9,0.6c0.3,0.1,0.6,0.2,1.1,0.2
				c0.5,0,1-0.1,1.4-0.3c0.4-0.2,0.6-0.5,0.7-0.9c0-0.1,0-0.2,0-0.3c0-0.3-0.2-0.6-0.7-0.9c-0.5-0.2-1.3-0.5-2.6-0.7
				c-2.8-0.6-4.2-1.8-4.2-3.7c0-0.3,0-0.7,0.1-1c0.2-0.8,0.6-1.6,1.3-2.3c0.7-0.7,1.5-1.3,2.6-1.8c1.1-0.4,2.3-0.7,3.7-0.7
				c1.3,0,2.4,0.2,3.3,0.6c0.9,0.4,1.6,0.8,2.1,1.4c0.5,0.6,0.7,1.1,0.7,1.6l0,0.2c0,0.2-0.1,0.4-0.3,0.5c-0.2,0.1-0.3,0.2-0.5,0.2
				h-3.2c-0.2,0-0.3,0-0.4-0.1c-0.2-0.1-0.4-0.2-0.6-0.4c-0.3-0.2-0.5-0.4-0.8-0.5c-0.3-0.1-0.6-0.2-1-0.2c-0.5,0-1,0.1-1.3,0.4
				c-0.3,0.3-0.5,0.6-0.5,1c0,0.3,0.2,0.6,0.7,0.8c0.4,0.2,1.3,0.5,2.6,0.7c1.6,0.3,2.7,0.8,3.5,1.4c0.7,0.7,1.1,1.5,1.1,2.4
				c0,0.3,0,0.6-0.1,0.9c-0.3,1.5-1.2,2.6-2.7,3.5c-1.5,0.9-3.4,1.3-5.7,1.3C497.5,31.2,496.3,31,495.3,30.6z"/>
			<path fill="#FF682C" d="M375,54.1c-0.1-0.1-0.2-0.3-0.1-0.5l2.2-10.5h-2.2c-0.2,0-0.4-0.1-0.5-0.2c-0.1-0.1-0.1-0.3-0.1-0.5
				l0.5-2.5c0-0.2,0.1-0.4,0.3-0.5c0.2-0.1,0.4-0.2,0.6-0.2h2.2l0.2-0.9c0.4-2,1.2-3.4,2.4-4.2c1.2-0.9,2.8-1.3,4.8-1.3h2.7
				c0.2,0,0.4,0.1,0.5,0.2c0.1,0.1,0.1,0.3,0.1,0.5l-0.5,2.5c0,0.2-0.1,0.4-0.3,0.5c-0.2,0.1-0.4,0.2-0.6,0.2h-2
				c-1.2,0-1.9,0.6-2.1,1.7l-0.2,0.7h3.5c0.2,0,0.4,0.1,0.5,0.2c0.1,0.1,0.1,0.3,0.1,0.5l-0.5,2.5c0,0.2-0.1,0.4-0.3,0.5
				c-0.2,0.1-0.4,0.2-0.6,0.2h-3.5l-2.2,10.5c0,0.2-0.1,0.4-0.3,0.5c-0.2,0.1-0.4,0.2-0.6,0.2h-3.6C375.3,54.3,375.1,54.2,375,54.1z
				"/>
			<path fill="#FF682C" d="M388.2,53.4c-0.9-0.8-1.3-1.9-1.3-3.4c0-0.6,0.1-1.2,0.2-2l1.7-8.1c0-0.2,0.1-0.4,0.3-0.5
				c0.2-0.1,0.4-0.2,0.6-0.2h3.9c0.2,0,0.3,0.1,0.5,0.2c0.1,0.1,0.1,0.3,0.1,0.5l-1.7,7.9c-0.1,0.4-0.1,0.8-0.1,1.1
				c0,0.5,0.1,1,0.5,1.2c0.3,0.3,0.8,0.4,1.4,0.4c0.8,0,1.5-0.2,2-0.7c0.6-0.5,0.9-1.1,1.1-2l1.7-7.9c0-0.2,0.1-0.4,0.3-0.5
				c0.2-0.1,0.4-0.2,0.6-0.2h3.8c0.2,0,0.4,0.1,0.5,0.2c0.1,0.1,0.1,0.3,0.1,0.5l-2.9,13.7c0,0.2-0.1,0.4-0.3,0.5
				c-0.2,0.1-0.4,0.2-0.6,0.2h-3.6c-0.2,0-0.4-0.1-0.5-0.2s-0.2-0.3-0.1-0.5l0.2-1.1c-0.7,0.7-1.4,1.3-2.1,1.6
				c-0.7,0.3-1.7,0.5-2.9,0.5C390.3,54.6,389.1,54.2,388.2,53.4z"/>
			<path fill="#FF682C" d="M407.4,50.2c0-0.5,0.1-1.1,0.2-1.7l1.1-5.4h-2.3c-0.2,0-0.4-0.1-0.5-0.2c-0.1-0.1-0.1-0.3-0.1-0.5
				l0.5-2.5c0-0.2,0.1-0.4,0.3-0.5c0.2-0.1,0.4-0.2,0.6-0.2h2.3l1-4.8c0-0.2,0.1-0.4,0.3-0.5c0.2-0.1,0.4-0.2,0.6-0.2h3.6
				c0.2,0,0.4,0.1,0.5,0.2s0.1,0.3,0.1,0.5l-1,4.8h3.6c0.2,0,0.4,0.1,0.5,0.2c0.1,0.1,0.1,0.3,0.1,0.5l-0.5,2.5
				c0,0.2-0.1,0.4-0.3,0.5c-0.2,0.1-0.4,0.2-0.6,0.2h-3.7l-1,5c-0.1,0.3-0.1,0.7-0.1,1c0,0.4,0.1,0.6,0.3,0.8
				c0.2,0.2,0.5,0.3,0.9,0.3h2.4c0.2,0,0.4,0.1,0.5,0.2c0.1,0.1,0.1,0.3,0.1,0.5l-0.6,2.7c0,0.2-0.1,0.4-0.3,0.5s-0.4,0.2-0.6,0.2
				h-2.5C409.3,54.3,407.4,52.9,407.4,50.2z"/>
			<path fill="#FF682C" d="M420.7,53.4c-0.9-0.8-1.3-1.9-1.3-3.4c0-0.6,0.1-1.2,0.2-2l1.7-8.1c0-0.2,0.1-0.4,0.3-0.5
				c0.2-0.1,0.4-0.2,0.6-0.2h3.9c0.2,0,0.3,0.1,0.5,0.2c0.1,0.1,0.1,0.3,0.1,0.5l-1.7,7.9c-0.1,0.4-0.1,0.8-0.1,1.1
				c0,0.5,0.2,1,0.5,1.2c0.3,0.3,0.8,0.4,1.4,0.4c0.8,0,1.5-0.2,2-0.7c0.6-0.5,0.9-1.1,1.1-2l1.7-7.9c0-0.2,0.1-0.4,0.3-0.5
				c0.2-0.1,0.4-0.2,0.6-0.2h3.8c0.2,0,0.4,0.1,0.5,0.2c0.1,0.1,0.1,0.3,0.1,0.5L434,53.6c0,0.2-0.1,0.4-0.3,0.5
				c-0.2,0.1-0.4,0.2-0.6,0.2h-3.6c-0.2,0-0.4-0.1-0.5-0.2c-0.1-0.1-0.2-0.3-0.1-0.5l0.2-1.1c-0.7,0.7-1.4,1.3-2.1,1.6
				c-0.7,0.3-1.7,0.5-2.9,0.5C422.7,54.6,421.5,54.2,420.7,53.4z"/>
			<path fill="#FF682C" d="M437.5,54.1c-0.1-0.1-0.1-0.3-0.1-0.5l2.9-13.7c0-0.2,0.1-0.4,0.3-0.5c0.2-0.1,0.4-0.2,0.6-0.2h3.6
				c0.2,0,0.4,0.1,0.5,0.2c0.1,0.1,0.1,0.3,0.1,0.5L445,41c0.5-0.6,1.1-1.1,1.8-1.4c0.7-0.3,1.6-0.5,2.6-0.5h1.7
				c0.2,0,0.3,0.1,0.5,0.2c0.1,0.1,0.1,0.3,0.1,0.5L451,43c0,0.2-0.1,0.4-0.3,0.5s-0.4,0.2-0.6,0.2h-2.9c-0.8,0-1.4,0.2-1.9,0.6
				c-0.5,0.4-0.8,1-1,1.8l-1.6,7.3c0,0.2-0.1,0.4-0.3,0.5s-0.4,0.2-0.6,0.2h-3.8C437.7,54.3,437.6,54.2,437.5,54.1z"/>
			<path fill="#FF682C" d="M453.1,53.2c-1.2-0.9-1.8-2.2-1.8-3.9c0-0.4,0-0.8,0.1-1.2c0.1-0.9,0.3-1.7,0.6-2.6
				c0.6-2.1,1.6-3.7,3.1-4.9c1.5-1.1,3.4-1.7,5.9-1.7c2.1,0,3.7,0.5,4.9,1.4c1.2,1,1.8,2.3,1.8,4c0,0.3,0,0.7-0.1,1.1
				c-0.2,1.1-0.4,1.9-0.6,2.6c-0.6,2.1-1.6,3.8-3,4.9c-1.4,1.1-3.4,1.7-5.9,1.7C455.9,54.6,454.2,54.1,453.1,53.2z M460.5,50.2
				c0.5-0.5,0.9-1.3,1.2-2.3c0.3-1,0.4-1.7,0.5-2.3c0.1-0.4,0.1-0.8,0.1-1.1c0-0.6-0.1-1.1-0.4-1.4c-0.3-0.3-0.8-0.5-1.4-0.5
				c-0.8,0-1.5,0.3-2,0.8c-0.5,0.5-0.9,1.3-1.1,2.3c-0.1,0.3-0.2,0.7-0.3,1.2c-0.1,0.4-0.2,0.8-0.2,1.2c-0.1,0.6-0.1,1-0.1,1.1
				c0,0.6,0.1,1.1,0.4,1.4c0.3,0.3,0.8,0.5,1.4,0.5C459.3,50.9,459.9,50.7,460.5,50.2z"/>
		</g>
		<rect x="346.4" y="2.6" opacity="0.3" width="2.5" height="59.7"/>
		<g>
			<g>
				<g>
					<g>
						<g>
							<g>
								<path fill="#FFC015" d="M83.7,17.6c0.3-0.4,0.1-1-0.3-1.3c-0.3-0.2-0.7-0.3-1-0.4c-1.2-0.5-2.2-1.7-2.3-3
									c-0.2-1.4,0.9-2.3,2.1-2.8c1-0.5,2.2-0.7,3.3-0.7c0.9,0,1.9,0.4,2.5,1.1c0.9,1.1,0.3,1.9,0.7,3.1c1,3.3,5.9-0.7,6.5-2.3
									c0.8-2,0.4-4.5-1.1-6c-0.9-1-2.8-1.3-3.2-0.1c-0.1,0.3-0.1,0.7-0.1,1.1c-0.1,1.3-1.1,2.6-2.4,2.9c-3.1,0.9-3.5-2.5-5-4.2
									c-1.6-1.8-3.6-2.1-5.9-2.3c-2.6-0.2-5.2-0.1-7.8-0.1c-18-0.1-35.9-0.1-53.8,0c-2.5,0-4.9,0-7.5,0c-0.5,0-0.2,0.8-0.1,1
									C8.5,4,8.7,4.4,8.6,4.7c-0.3,0.7-1,0.9-1.7,0.8C6,5.5,5.1,4.2,4.2,4.6C3.9,4.7,3.8,5.1,3.7,5.5c0,0.9,0.6,2.1,1.1,2.9
									c0.3,0.4,0.6,0.8,0.6,1.2c0,0.3-0.1,0.7-0.2,1c-0.6,1.9-1.8,3.1-0.6,5.7c0.7,1.4,2.7,2.3,3.4,3.6c1.1,2.1-0.8,2-0.9,4
									c-0.1,1.2,1.6,1.7,1.9,3c0.3,1.4-0.8,1.7-0.8,2.9c0,0.8,0.3,1.5,0.3,2.3c0,1-0.5,1.6-0.7,2.6C7.7,35.3,7.7,36,8,36.6
									c0.9,1.8,3.4,1.5,5,1.9c1.5,0.4,2.9,1.4,2.3,3.1c-0.7,1.8-2.6,3-4.5,2.7c-0.9-0.1-1.8-0.4-2.7-0.7c-1-0.3-2.2,0-2.3,0.9
									c-0.1,1.3,2.3,1,2.9,1.1c3.6,0.4,4.7,4.6,2.8,7.9c-0.7,1.2-1.9,2-2.7,3.2c-0.8,1.4-0.6,2.6,0,3.8c0.8,1.6,2.6,1.7,4.1,1.7
									c11.5,0,22.4,0,35.6,0.1c1,0,2.1,0,3.1-0.4c0.2-0.1,0.3-0.2,0.5-0.3c1.6-1.1,2.3-3.2,3.2-5c2.6-5.2,10.1-9.4,15.7-9
									c0.7,0.1,1.5,0.2,2.2-0.1c0.8-0.3,1.3-1.1,1-1.9c-0.2-0.5-0.6-0.9-0.7-1.4c-0.3-0.9,0.2-1.9,0.8-2.5
									c1.2-1.2,2.6-1.8,3.2-3.5c0.6-1.5,0.6-3.2,0.5-4.8c-0.1-1.5-0.6-3-0.9-4.5c-0.2-1.4-0.1-2.8,0.2-4.2c0.8-3,2.8-4.9,5.4-6.3
									C83.1,18.2,83.5,17.9,83.7,17.6z"/>
								<circle fill="#FFB109" cx="26.4" cy="18" r="9.9"/>
								<path fill="#FF8540" d="M78.1,33.4c0-0.6-0.1-1.1-0.2-1.7c0-0.2-0.1-0.4-0.1-0.6c-0.1-0.4-0.2-0.7-0.3-1.1
									c-0.1-0.4-0.2-0.7-0.2-1.1c-0.1-0.5-0.1-1-0.1-1.6c0-0.9,0.1-1.7,0.3-2.5c0,0,0-0.1,0-0.1c0,0,0,0,0,0
									c0.1-0.3,0.2-0.5,0.2-0.8c0,0,0-0.1,0.1-0.1c0.1-0.2,0.2-0.5,0.3-0.7c0,0,0-0.1,0.1-0.1c0.1-0.2,0.2-0.5,0.4-0.7
									c0,0,0,0,0,0c0.1-0.2,0.3-0.4,0.4-0.6c0,0,0-0.1,0.1-0.1c0.2-0.2,0.3-0.4,0.5-0.6c0,0,0,0,0.1-0.1c0.2-0.2,0.4-0.4,0.6-0.6
									c0,0,0,0,0,0c0.2-0.2,0.4-0.4,0.6-0.5c0,0,0,0,0.1-0.1c0.2-0.2,0.4-0.3,0.7-0.5c0,0,0,0,0,0c-2.6-1.1-5.3-2.6-8.3-4.8
									c-24.6-18.6-39.6,4.2-47.8,8c-5.5,2.5-11.4,0.9-17.3-0.3c-0.1,0.2-0.2,0.3-0.4,0.5c0,0,0,0,0,0c0,0.1-0.1,0.1-0.1,0.2
									c0,0,0,0,0,0.1c0,0.1-0.1,0.1-0.1,0.2c0,0,0,0,0,0.1c0,0.1-0.1,0.1-0.1,0.2c0,0,0,0.1,0,0.1c0,0.1,0,0.1-0.1,0.2
									c0,0,0,0.1,0,0.1c0,0.1,0,0.2-0.1,0.3c-0.1,0.8,0.7,1.3,1.3,1.9C8.5,26,8.6,26,8.6,26.1c0.1,0.1,0.1,0.2,0.2,0.3
									C8.9,26.5,9,26.7,9,26.9c0,0.2,0,0.3,0,0.5c0,0.8-0.6,1.2-0.7,1.8c0,0.1-0.1,0.2-0.1,0.4c0,0.1,0,0.1,0,0.2
									c0,0.1,0,0.2,0,0.3c0,0.1,0,0.2,0,0.3c0,0.2,0.1,0.4,0.1,0.6c0.1,0.3,0.1,0.6,0.1,0.9c0,0.1,0,0.2,0,0.3
									c0,0.9-0.4,1.5-0.6,2.2c0,0.1-0.1,0.2-0.1,0.3c0,0.1,0,0.2-0.1,0.2c0,0.2,0,0.3-0.1,0.5c0,0.3,0,0.7,0.1,1
									c0,0.1,0.1,0.2,0.1,0.2c0.2,0.4,0.5,0.8,0.9,1c1.1,0.7,2.8,0.6,4.1,0.9c1.5,0.4,2.9,1.4,2.3,3.1c-0.5,1.5-2,2.5-3.5,2.7
									c-0.3,0-0.7,0-1,0c-0.5-0.1-0.9-0.2-1.4-0.3c-0.3-0.1-0.7-0.2-1-0.3c-0.1,0-0.2-0.1-0.3-0.1c-0.1,0-0.2,0-0.2-0.1
									c-0.1,0-0.2,0-0.3-0.1c-0.1,0-0.1,0-0.2,0c-0.8,0-1.4,0.4-1.5,1c0,0.2,0,0.4,0.2,0.6c0,0,0.1,0.1,0.1,0.1
									c0.1,0.1,0.2,0.1,0.4,0.2c0.1,0.1,0.3,0.1,0.5,0.1c0.7,0.1,1.4,0.1,1.8,0.1c3.6,0.4,4.7,4.6,2.8,7.9
									c-0.2,0.3-0.4,0.6-0.6,0.8c-0.1,0.1-0.2,0.3-0.4,0.4c-0.6,0.6-1.2,1.1-1.6,1.8c0,0-0.1,0.1-0.1,0.1c0,0,0,0,0,0
									c-0.1,0.1-0.1,0.2-0.2,0.3c0,0,0,0.1,0,0.1c0,0.1-0.1,0.2-0.1,0.3c0,0,0,0,0,0c-0.1,0.2-0.1,0.4-0.2,0.7l0,0
									c-0.1,0.8,0.1,1.6,0.6,2.4c0.8,1.6,2.6,1.7,4.1,1.7c3,0,6,0,8.9,0l0,0c4.8,0,9.7,0,14.8,0c0.1,0,0.2,0,0.3,0
									c0.6,0,1.3,0,1.9,0c0.1,0,0.2,0,0.4,0c0.7,0,1.4,0,2.1,0c0,0,0.1,0,0.1,0c0.7,0,1.4,0,2.1,0c0.2,0,0.4,0,0.6,0
									c0.5,0,1.1,0,1.6,0c0.2,0,0.4,0,0.6,0c0.7,0,1.5,0,2.2,0c0.1,0,0.3,0,0.4,0c0.8,0,1.6,0,2.3-0.3c0.1,0,0.2-0.1,0.4-0.1
									c0.2-0.1,0.3-0.2,0.5-0.3c1.6-1.1,2.3-3.2,3.2-5c1.6-3.2,5.1-6.1,8.9-7.7c0.4-0.2,0.8-0.3,1.1-0.4c0.2-0.1,0.4-0.1,0.6-0.2
									c1.7-0.5,3.4-0.8,5-0.7c0.7,0.1,1.5,0.2,2.2-0.1c0.8-0.3,1.3-1.1,1-1.9c-0.1-0.2-0.2-0.5-0.4-0.7c-0.1-0.2-0.3-0.4-0.3-0.7
									c0-0.1-0.1-0.2-0.1-0.3c0-0.2,0-0.5,0-0.7s0.1-0.4,0.2-0.7c0.2-0.3,0.4-0.6,0.6-0.9c1-1,2-1.6,2.8-2.6
									c0.1-0.1,0.1-0.2,0.2-0.3c0.1-0.2,0.2-0.4,0.3-0.6c0.3-0.8,0.5-1.6,0.5-2.4c0-0.2,0-0.4,0-0.6c0-0.2,0-0.4,0-0.6
									C78.1,34.2,78.1,33.8,78.1,33.4z"/>
								<path fill="#FF682C" d="M8.7,45.6c3.6,0.4,4.7,4.6,2.8,7.9c-0.7,1.2-1.9,2-2.7,3.2c-0.8,1.4-0.6,2.6,0,3.8
									c0.8,1.6,2.6,1.7,4.1,1.7c11.5,0,22.4,0,35.6,0.1c1,0,2.1,0,3.1-0.4c0.2-0.1,0.3-0.2,0.5-0.3c1.6-1.1,2.3-3.2,3.2-5
									c2.6-5.2,10.1-9.4,15.7-9c0.7,0.1,1.5,0.2,2.2-0.1c0.8-0.3,1.3-1.1,1-1.9c-0.2-0.5-0.6-0.9-0.7-1.4
									c-0.3-0.9,0.2-1.9,0.8-2.5c1.2-1.2,2.6-1.8,3.2-3.5c0.6-1.5,0.6-3.2,0.5-4.8c-0.1-1.5-0.6-3-0.9-4.5
									c-0.1-0.7-0.1-1.5-0.1-2.3c-20.7,6.3-42.6-9.2-63.9-5.7c-1.7,0.3-3.4,0.7-5.1,1.3C7.7,22.6,7.3,23,7.2,24
									c-0.1,1.2,1.6,1.7,1.9,3c0.3,1.4-0.8,1.7-0.8,2.9c0,0.8,0.3,1.5,0.3,2.3c0,1-0.5,1.6-0.7,2.6C7.7,35.3,7.7,36,8,36.6
									c0.9,1.8,3.4,1.5,5,1.9c1.5,0.4,2.9,1.4,2.3,3.1c-0.7,1.8-2.6,3-4.5,2.7c-0.9-0.1-1.8-0.4-2.7-0.7c-1-0.3-2.2,0-2.3,0.9
									C5.6,45.7,8,45.5,8.7,45.6z"/>
								<path fill="#5894A7" d="M10.7,44.3c-0.9-0.1-1.8-0.4-2.7-0.7c-1-0.3-2.2,0-2.3,0.9c-0.1,1.3,2.3,1,2.9,1.1
									c3.6,0.4,4.7,4.6,2.8,7.9c-0.7,1.2-1.9,2-2.7,3.2c-0.8,1.4-0.6,2.6,0,3.8c0.8,1.6,2.6,1.7,4.1,1.7c11.5,0,22.4,0,35.6,0.1
									c1,0,2.1,0,3.1-0.4c0.2-0.1,0.3-0.2,0.5-0.3c1.6-1.1,2.3-3.2,3.2-5c2.6-5.2,10.1-9.4,15.7-9c0.7,0.1,1.5,0.2,2.2-0.1
									c0.8-0.3,1.3-1.1,1-1.9c-0.2-0.5-0.6-0.9-0.7-1.4c-0.3-0.9,0.2-1.9,0.8-2.5c1-1,2.1-1.6,2.8-2.7c-2.7-1.7-5.5-3.2-8.6-3.9
									c-6.5-1.5-13.3,0.7-19.3,3.4c-6.1,2.8-12,6.2-18.5,7.4c-5.7,1-11.6,0.1-16.9-2.3C12.9,44.1,11.8,44.5,10.7,44.3z"/>
								<path fill="#21708C" d="M48.6,62.3c1,0,2.1,0,3.1-0.4c0.2-0.1,0.3-0.2,0.5-0.3c1.6-1.1,2.3-3.2,3.2-5
									c0.9-1.9,2.5-3.6,4.4-5.1c-1.6-0.5-3.2-1-4.8-1.4C46,47.8,35.9,48,28.4,53.4c-3.5,2.5-6.2,6-9.3,8.9
									C28.4,62.3,37.7,62.2,48.6,62.3z"/>
							</g>
						</g>
					</g>
				</g>
			</g>
			<g>
				<g>
					<g>
						<path d="M108.3,62.4c-0.1,0-0.2,0-0.3-0.1c-0.1-0.1-0.1-0.2-0.1-0.3v-9.7c0-0.1,0-0.2,0.1-0.3c0.1-0.1,0.2-0.1,0.3-0.1h4
							c0.8,0,1.5,0.1,2,0.4c0.6,0.2,1,0.6,1.3,1.1c0.3,0.5,0.5,1.1,0.5,1.8c0,0.7-0.2,1.4-0.5,1.8c-0.3,0.5-0.8,0.8-1.3,1.1
							c-0.6,0.2-1.3,0.4-2,0.4H110V62c0,0.1,0,0.2-0.1,0.3c-0.1,0.1-0.2,0.1-0.3,0.1H108.3z M110,56.8h2.2c0.6,0,1-0.1,1.3-0.4
							c0.3-0.3,0.5-0.7,0.5-1.2c0-0.5-0.1-0.9-0.4-1.2c-0.3-0.3-0.7-0.5-1.4-0.5H110V56.8z"/>
						<path d="M117.9,62.4c-0.1,0-0.2,0-0.3-0.1c-0.1-0.1-0.1-0.2-0.1-0.3v-7c0-0.1,0-0.2,0.1-0.3c0.1-0.1,0.2-0.1,0.3-0.1h1.2
							c0.1,0,0.2,0,0.3,0.1c0.1,0.1,0.1,0.2,0.1,0.3v0.6c0.2-0.3,0.5-0.6,0.9-0.7c0.4-0.2,0.8-0.3,1.3-0.3h0.6c0.1,0,0.2,0,0.3,0.1
							c0.1,0.1,0.1,0.2,0.1,0.3V56c0,0.1,0,0.2-0.1,0.3c-0.1,0.1-0.2,0.1-0.3,0.1h-1.2c-0.5,0-0.8,0.1-1.1,0.4
							c-0.3,0.3-0.4,0.6-0.4,1.1V62c0,0.1,0,0.2-0.1,0.3c-0.1,0.1-0.2,0.1-0.3,0.1H117.9z"/>
						<path d="M127.2,62.5c-0.8,0-1.5-0.1-2-0.4c-0.5-0.3-1-0.7-1.2-1.2c-0.3-0.5-0.4-1.1-0.5-1.8c0-0.2,0-0.4,0-0.7
							c0-0.3,0-0.5,0-0.7c0-0.7,0.2-1.3,0.5-1.8c0.3-0.5,0.7-0.9,1.3-1.2c0.5-0.3,1.2-0.4,2-0.4c0.8,0,1.4,0.1,2,0.4
							c0.5,0.3,1,0.7,1.3,1.2c0.3,0.5,0.5,1.1,0.5,1.8c0,0.2,0,0.4,0,0.7c0,0.3,0,0.5,0,0.7c0,0.7-0.2,1.3-0.5,1.8
							c-0.3,0.5-0.7,0.9-1.2,1.2C128.6,62.4,128,62.5,127.2,62.5z M127.2,61c0.5,0,0.9-0.2,1.2-0.5c0.3-0.3,0.4-0.8,0.5-1.5
							c0-0.1,0-0.3,0-0.6c0-0.2,0-0.4,0-0.6c0-0.6-0.2-1.1-0.5-1.5c-0.3-0.3-0.7-0.5-1.2-0.5c-0.5,0-0.9,0.2-1.2,0.5
							c-0.3,0.3-0.4,0.8-0.5,1.5c0,0.1,0,0.3,0,0.6c0,0.2,0,0.4,0,0.6c0,0.6,0.2,1.1,0.5,1.5C126.2,60.9,126.6,61,127.2,61z"/>
						<path d="M135.1,62.4c-0.2,0-0.3,0-0.4-0.1c-0.1-0.1-0.1-0.2-0.2-0.3l-2.8-6.9c0,0,0-0.1,0-0.1c0-0.1,0-0.2,0.1-0.2
							c0.1-0.1,0.1-0.1,0.2-0.1h1.2c0.1,0,0.2,0,0.3,0.1c0.1,0.1,0.1,0.1,0.1,0.2l2,5.2l2-5.2c0-0.1,0.1-0.1,0.1-0.2
							c0.1-0.1,0.1-0.1,0.3-0.1h1.2c0.1,0,0.2,0,0.2,0.1c0.1,0.1,0.1,0.1,0.1,0.2c0,0,0,0.1,0,0.1l-2.8,6.9c0,0.1-0.1,0.2-0.2,0.3
							c-0.1,0.1-0.2,0.1-0.4,0.1H135.1z"/>
						<path d="M141.2,53.3c-0.1,0-0.2,0-0.3-0.1c-0.1-0.1-0.1-0.2-0.1-0.3v-1.1c0-0.1,0-0.2,0.1-0.3c0.1-0.1,0.2-0.1,0.3-0.1h1.4
							c0.1,0,0.2,0,0.3,0.1c0.1,0.1,0.1,0.2,0.1,0.3v1.1c0,0.1,0,0.2-0.1,0.3c-0.1,0.1-0.2,0.1-0.3,0.1H141.2z M141.3,62.4
							c-0.1,0-0.2,0-0.3-0.1c-0.1-0.1-0.1-0.2-0.1-0.3v-7c0-0.1,0-0.2,0.1-0.3c0.1-0.1,0.2-0.1,0.3-0.1h1.2c0.1,0,0.2,0,0.3,0.1
							c0.1,0.1,0.1,0.2,0.1,0.3v7c0,0.1,0,0.2-0.1,0.3c-0.1,0.1-0.2,0.1-0.3,0.1H141.3z"/>
						<path d="M145.2,62.4c-0.1,0-0.2,0-0.3-0.1c-0.1-0.1-0.1-0.2-0.1-0.3v-7c0-0.1,0-0.2,0.1-0.3c0.1-0.1,0.2-0.1,0.3-0.1h1.2
							c0.1,0,0.2,0,0.3,0.1c0.1,0.1,0.1,0.2,0.1,0.3v0.6c0.3-0.3,0.6-0.6,1-0.8c0.4-0.2,0.9-0.3,1.5-0.3c0.6,0,1.1,0.1,1.6,0.4
							c0.4,0.3,0.8,0.7,1,1.2c0.2,0.5,0.4,1.1,0.4,1.8V62c0,0.1,0,0.2-0.1,0.3c-0.1,0.1-0.2,0.1-0.3,0.1h-1.3c-0.1,0-0.2,0-0.3-0.1
							c-0.1-0.1-0.1-0.2-0.1-0.3v-4.1c0-0.6-0.1-1-0.4-1.4c-0.3-0.3-0.7-0.5-1.2-0.5c-0.5,0-0.9,0.2-1.2,0.5
							c-0.3,0.3-0.5,0.8-0.5,1.4V62c0,0.1,0,0.2-0.1,0.3c-0.1,0.1-0.2,0.1-0.3,0.1H145.2z"/>
						<path d="M157.6,62.5c-0.7,0-1.3-0.1-1.9-0.4c-0.5-0.3-1-0.7-1.3-1.2c-0.3-0.5-0.5-1.1-0.5-1.9c0-0.1,0-0.3,0-0.6
							c0-0.2,0-0.4,0-0.6c0-0.7,0.2-1.3,0.5-1.9c0.3-0.5,0.7-0.9,1.3-1.2c0.5-0.3,1.2-0.4,1.9-0.4c0.6,0,1.2,0.1,1.6,0.3
							c0.4,0.2,0.8,0.4,1.1,0.7c0.3,0.3,0.5,0.6,0.6,0.9c0.1,0.3,0.2,0.6,0.2,0.8c0,0.1,0,0.2-0.1,0.3c-0.1,0.1-0.2,0.1-0.3,0.1
							h-1.3c-0.1,0-0.2,0-0.2-0.1c-0.1,0-0.1-0.1-0.2-0.2c-0.1-0.4-0.3-0.7-0.6-0.8c-0.2-0.2-0.6-0.2-0.9-0.2
							c-0.5,0-0.9,0.2-1.2,0.5c-0.3,0.3-0.5,0.8-0.5,1.5c0,0.4,0,0.7,0,1c0,0.7,0.2,1.2,0.5,1.5c0.3,0.3,0.7,0.5,1.2,0.5
							c0.4,0,0.7-0.1,0.9-0.2c0.2-0.2,0.4-0.4,0.6-0.8c0-0.1,0.1-0.2,0.2-0.2c0.1,0,0.1-0.1,0.2-0.1h1.3c0.1,0,0.2,0,0.3,0.1
							c0.1,0.1,0.1,0.2,0.1,0.3c0,0.2-0.1,0.4-0.1,0.6c-0.1,0.2-0.2,0.5-0.4,0.7c-0.2,0.2-0.4,0.4-0.7,0.6c-0.3,0.2-0.6,0.4-1,0.5
							C158.5,62.4,158.1,62.5,157.6,62.5z"/>
						<path d="M163.1,53.3c-0.1,0-0.2,0-0.3-0.1c-0.1-0.1-0.1-0.2-0.1-0.3v-1.1c0-0.1,0-0.2,0.1-0.3c0.1-0.1,0.2-0.1,0.3-0.1h1.4
							c0.1,0,0.2,0,0.3,0.1c0.1,0.1,0.1,0.2,0.1,0.3v1.1c0,0.1,0,0.2-0.1,0.3c-0.1,0.1-0.2,0.1-0.3,0.1H163.1z M163.1,62.4
							c-0.1,0-0.2,0-0.3-0.1c-0.1-0.1-0.1-0.2-0.1-0.3v-7c0-0.1,0-0.2,0.1-0.3c0.1-0.1,0.2-0.1,0.3-0.1h1.2c0.1,0,0.2,0,0.3,0.1
							c0.1,0.1,0.1,0.2,0.1,0.3v7c0,0.1,0,0.2-0.1,0.3c-0.1,0.1-0.2,0.1-0.3,0.1H163.1z"/>
						<path d="M169,62.5c-0.5,0-1-0.1-1.4-0.3c-0.4-0.2-0.7-0.5-1-0.8c-0.2-0.3-0.4-0.7-0.4-1.2c0-0.7,0.3-1.3,0.9-1.7
							c0.6-0.4,1.3-0.7,2.2-0.8l2-0.3v-0.3c0-0.4-0.1-0.7-0.3-1c-0.2-0.2-0.6-0.3-1.1-0.3c-0.4,0-0.6,0.1-0.9,0.2
							c-0.2,0.1-0.4,0.3-0.5,0.6c-0.1,0.1-0.2,0.2-0.3,0.2h-1.2c-0.1,0-0.2,0-0.2-0.1c-0.1-0.1-0.1-0.1-0.1-0.2
							c0-0.2,0.1-0.4,0.2-0.6c0.1-0.2,0.3-0.4,0.6-0.7c0.3-0.2,0.6-0.4,1-0.5c0.4-0.1,0.9-0.2,1.5-0.2c0.6,0,1.2,0.1,1.6,0.2
							c0.4,0.2,0.8,0.4,1,0.6c0.3,0.3,0.4,0.6,0.6,0.9c0.1,0.3,0.2,0.7,0.2,1.1V62c0,0.1,0,0.2-0.1,0.3c-0.1,0.1-0.2,0.1-0.3,0.1
							h-1.2c-0.1,0-0.2,0-0.3-0.1c-0.1-0.1-0.1-0.2-0.1-0.3v-0.6c-0.1,0.2-0.3,0.4-0.5,0.5c-0.2,0.2-0.5,0.3-0.8,0.4
							C169.8,62.4,169.4,62.5,169,62.5z M169.5,61.1c0.3,0,0.7-0.1,0.9-0.2c0.3-0.1,0.5-0.4,0.7-0.7c0.2-0.3,0.2-0.7,0.2-1.2v-0.3
							l-1.5,0.2c-0.6,0.1-1,0.2-1.3,0.4c-0.3,0.2-0.4,0.4-0.4,0.7c0,0.2,0.1,0.4,0.2,0.6c0.1,0.2,0.3,0.3,0.5,0.3
							C169.1,61,169.3,61.1,169.5,61.1z"/>
					</g>
				</g>
				<g>
					<path d="M124.8,42.8c-3.5,0-6.5-0.6-8.9-1.8c-2.4-1.2-4.3-2.9-5.7-5.2c-1.3-2.3-2.1-5-2.2-8.3c0-1.5-0.1-3.2-0.1-4.9
						c0-1.8,0-3.4,0.1-5c0.1-3.2,0.9-5.9,2.3-8.2c1.4-2.3,3.3-4,5.7-5.2c2.5-1.2,5.4-1.8,8.8-1.8c2.5,0,4.8,0.3,6.8,1
						c2.1,0.6,3.8,1.5,5.3,2.7c1.5,1.2,2.7,2.6,3.5,4.2c0.8,1.6,1.3,3.4,1.3,5.4c0,0.3-0.1,0.6-0.4,0.8c-0.2,0.2-0.5,0.3-0.9,0.3
						h-6.4c-0.4,0-0.8-0.1-1.1-0.3c-0.3-0.2-0.5-0.6-0.6-1.1c-0.6-2.2-1.5-3.7-2.8-4.5c-1.3-0.8-2.9-1.2-4.9-1.2
						c-2.3,0-4.1,0.6-5.5,1.9c-1.3,1.3-2.1,3.4-2.2,6.3c-0.1,3.1-0.1,6.2,0,9.4c0.1,3,0.8,5.1,2.2,6.3c1.3,1.3,3.2,1.9,5.5,1.9
						c1.9,0,3.6-0.4,4.9-1.3c1.3-0.8,2.2-2.3,2.8-4.5c0.1-0.6,0.4-0.9,0.6-1.1c0.3-0.2,0.6-0.3,1.1-0.3h6.4c0.3,0,0.6,0.1,0.9,0.3
						c0.2,0.2,0.4,0.5,0.4,0.8c-0.1,2-0.5,3.8-1.3,5.4c-0.8,1.6-2,3-3.5,4.2c-1.5,1.2-3.3,2.1-5.3,2.7
						C129.5,42.5,127.3,42.8,124.8,42.8z"/>
					<path d="M147.1,42.3c-0.4,0-0.7-0.1-1-0.4c-0.3-0.3-0.4-0.6-0.4-1v-37c0-0.4,0.1-0.7,0.4-1c0.3-0.3,0.6-0.4,1-0.4h6
						c0.4,0,0.7,0.1,1,0.4c0.3,0.3,0.4,0.6,0.4,1v12.6c1-1.2,2.2-2.1,3.7-2.9c1.5-0.7,3.2-1.1,5.3-1.1c2.2,0,4.2,0.5,5.9,1.5
						c1.7,1,3,2.4,4,4.3c1,1.9,1.5,4.2,1.5,6.9v15.6c0,0.4-0.1,0.7-0.4,1c-0.3,0.3-0.6,0.4-1,0.4h-6.1c-0.4,0-0.7-0.1-1-0.4
						c-0.3-0.3-0.4-0.6-0.4-1V25.6c0-2-0.5-3.5-1.5-4.6c-1-1.1-2.4-1.7-4.1-1.7c-1.8,0-3.2,0.6-4.2,1.7c-1.1,1.1-1.6,2.6-1.6,4.6
						v15.3c0,0.4-0.1,0.7-0.4,1c-0.3,0.3-0.6,0.4-1,0.4H147.1z"/>
					<path d="M190.5,42.8c-2.2,0-4.1-0.5-5.7-1.5c-1.7-1-3-2.4-3.9-4.3c-0.9-1.9-1.4-4.2-1.4-6.9V14.5c0-0.4,0.1-0.7,0.4-1
						c0.3-0.3,0.6-0.4,1-0.4h5.9c0.4,0,0.7,0.1,1,0.4c0.3,0.3,0.4,0.6,0.4,1v15.3c0,4.2,1.8,6.3,5.5,6.3c1.8,0,3.1-0.6,4.2-1.7
						c1-1.1,1.5-2.6,1.5-4.6V14.5c0-0.4,0.1-0.7,0.4-1c0.3-0.3,0.6-0.4,1-0.4h5.9c0.4,0,0.7,0.1,1,0.4c0.3,0.3,0.4,0.6,0.4,1v26.3
						c0,0.4-0.1,0.7-0.4,1c-0.3,0.3-0.6,0.4-1,0.4h-5.5c-0.4,0-0.7-0.1-1-0.4c-0.3-0.3-0.4-0.6-0.4-1v-2.2c-1,1.3-2.2,2.4-3.8,3.1
						C194.6,42.5,192.7,42.8,190.5,42.8z"/>
					<path d="M230.4,42.8c-2.1,0-3.9-0.4-5.3-1.1c-1.4-0.7-2.6-1.7-3.5-2.8v1.9c0,0.4-0.1,0.7-0.4,1c-0.3,0.3-0.6,0.4-1,0.4h-5.3
						c-0.4,0-0.7-0.1-1-0.4c-0.3-0.3-0.4-0.6-0.4-1v-37c0-0.4,0.1-0.7,0.4-1c0.3-0.3,0.6-0.4,1-0.4h5.8c0.4,0,0.7,0.1,1,0.4
						c0.3,0.3,0.4,0.6,0.4,1v12.2c0.9-1,2.1-1.9,3.5-2.5c1.4-0.7,3-1,4.9-1c1.9,0,3.6,0.3,5.1,1c1.4,0.7,2.7,1.6,3.7,2.7
						c1,1.2,1.8,2.6,2.3,4.2c0.5,1.6,0.8,3.4,0.9,5.3c0,0.7,0.1,1.3,0.1,1.9c0,0.6,0,1.2-0.1,1.9c-0.1,2-0.4,3.8-0.9,5.4
						c-0.5,1.6-1.3,3-2.3,4.2c-1,1.2-2.2,2.1-3.6,2.7C234,42.5,232.3,42.8,230.4,42.8z M227.9,36.1c1.4,0,2.5-0.3,3.4-0.9
						c0.8-0.6,1.4-1.4,1.8-2.4c0.4-1,0.6-2.1,0.6-3.3c0.1-1.2,0.1-2.3,0-3.5c-0.1-1.2-0.3-2.3-0.6-3.3c-0.4-1-0.9-1.8-1.8-2.4
						c-0.8-0.6-1.9-0.9-3.4-0.9c-1.3,0-2.4,0.3-3.3,0.9c-0.8,0.6-1.5,1.4-1.9,2.3c-0.4,0.9-0.7,1.9-0.7,2.9c0,0.7-0.1,1.4-0.1,2.1
						c0,0.7,0,1.4,0.1,2.1c0.1,1.1,0.3,2.2,0.7,3.1c0.4,1,1,1.8,1.8,2.4C225.4,35.8,226.5,36.1,227.9,36.1z"/>
					<path d="M257.3,42.8c-2.2,0-4.1-0.5-5.7-1.5c-1.7-1-3-2.4-3.9-4.3c-0.9-1.9-1.4-4.2-1.4-6.9V14.5c0-0.4,0.1-0.7,0.4-1
						c0.3-0.3,0.6-0.4,1-0.4h5.9c0.4,0,0.7,0.1,1,0.4c0.3,0.3,0.4,0.6,0.4,1v15.3c0,4.2,1.8,6.3,5.5,6.3c1.8,0,3.1-0.6,4.2-1.7
						c1-1.1,1.5-2.6,1.5-4.6V14.5c0-0.4,0.1-0.7,0.4-1c0.3-0.3,0.6-0.4,1-0.4h5.9c0.4,0,0.7,0.1,1,0.4c0.3,0.3,0.4,0.6,0.4,1v26.3
						c0,0.4-0.1,0.7-0.4,1c-0.3,0.3-0.6,0.4-1,0.4h-5.5c-0.4,0-0.7-0.1-1-0.4c-0.3-0.3-0.4-0.6-0.4-1v-2.2c-1,1.3-2.2,2.4-3.8,3.1
						C261.4,42.5,259.5,42.8,257.3,42.8z"/>
					<path d="M280.3,13.1V3.9c0-0.4,0.1-0.7,0.4-1c0.3-0.3,0.6-0.4,1-0.4h5.5c0.4,0,0.7,0.1,1,0.4c0.3,0.3,0.4,0.6,0.4,1v9.2h7.5
						c0.4,0,0.7,0.1,1,0.4c0.3,0.3,0.4,0.6,0.4,1v3.8c0,0.4-0.1,0.7-0.4,1c-0.3,0.3-0.6,0.4-1,0.4h-7.5v11.1c0,1.4,0.3,2.5,0.8,3.3
						c0.5,0.8,1.4,1.2,2.7,1.2h4.1c0.4,0,0.7,0.1,1,0.4c0.3,0.3,0.4,0.6,0.4,1v4.1c0,0.4-0.1,0.7-0.4,1c-0.3,0.3-0.6,0.4-1,0.4h-4.9
						c-2.3,0-4.3-0.4-5.9-1.1c-1.6-0.8-2.9-2-3.7-3.6c-0.8-1.6-1.3-3.6-1.3-6V19.8V13.1z"/>
				</g>
			</g>
		</g>
	</g>
</g>
<g id="Capa_2">
</g>
</svg>
