<?xml version="1.0" encoding="utf-8"?>
<!-- Generator: Adobe Illustrator 27.9.0, SVG Export Plug-In . SVG Version: 6.00 Build 0)  -->
<svg version="1.1" xmlns="http://www.w3.org/2000/svg" xmlns:xlink="http://www.w3.org/1999/xlink" x="0px" y="0px"
	 viewBox="0 0 341 308" enable-background="new 0 0 341 308" xml:space="preserve">
<g id="Capa_1">
	<g>
		<g>
			<defs>
				
					<rect id="SVGID_00000098218301600150397530000003940216085681386129_" x="-1110" y="-2629" transform="matrix(6.123234e-17 -1 1 6.123234e-17 1016 -2306)" width="930" height="1936"/>
			</defs>
			<clipPath id="SVGID_00000123428178164372876160000004870445425472021379_">
				<use xlink:href="#SVGID_00000098218301600150397530000003940216085681386129_"  overflow="visible"/>
			</clipPath>
			<path clip-path="url(#SVGID_00000123428178164372876160000004870445425472021379_)" fill="#21708A" d="M-2214.5-763.4
				c60.5,93.2,213.5-286.5,328.4-246.2c150.4,52.7,330.8,55.7,498.3-2c154.5-53.3,289.9-148.9,430.3-232
				c140.4-83.1,298.4-157.2,455.3-155.3c126.6,1.5,236.1,52.3,348.4,91.1c112.3,38.9,242.4,66.1,366.6,21.7
				c124.9-44.7,236.5-158.5,361.6-147.6c91.7,8,147.4,82.6,233.2,105.7c82.6,22.2,179.3-6.2,267.7-36.7
				c88.4-30.6,181.7-64.4,268.8-53c87.1,11.4,157.8,90.2,115.9,165.5L-1926.8,257.1L-2214.5-763.4z"/>
		</g>
	</g>
	<g>
		<g>
			<g>
				<path fill="#F2F2F2" d="M321,299H20c-6.6,0-12-5.4-12-12V21c0-6.6,5.4-12,12-12h301c6.6,0,12,5.4,12,12v266
					C333,293.6,327.6,299,321,299z"/>
			</g>
		</g>
		<g>
			<path d="M83.6,218.2v-14.5c0.1,0,0.3,0,0.6,0c0.3,0,0.7,0,1.2,0s0.9,0,1.4,0c0.5,0,0.8,0,1.1,0c1.8,0,3.2,0.4,4.3,0.9
				c1.1,0.6,1.9,1.4,2.4,2.5s0.8,2.3,0.8,3.7c0,1.5-0.3,2.8-0.8,3.9c-0.5,1.1-1.4,1.9-2.5,2.5c-1.1,0.6-2.5,0.9-4.3,0.9H83.6z
				 M86.6,215.8h1.3c0.8,0,1.6-0.2,2.3-0.5c0.7-0.3,1.2-0.8,1.6-1.6s0.6-1.7,0.6-2.9c0-1.1-0.2-2-0.5-2.7c-0.4-0.7-0.9-1.2-1.5-1.5
				c-0.7-0.3-1.5-0.5-2.4-0.5h-1.4V215.8z"/>
			<path d="M98.1,206.3v-2.6h2.8v2.6H98.1z M98.1,218.2v-10.3h2.8v10.3H98.1z"/>
			<path d="M103.9,218.2v-10.3h2.8v2.5c0.2-0.5,0.4-1,0.7-1.4c0.3-0.4,0.7-0.7,1.1-0.9c0.4-0.2,0.9-0.3,1.5-0.3c0.1,0,0.2,0,0.3,0
				c0.1,0,0.1,0,0.2,0v2.8c-0.1,0-0.1,0-0.2,0c-0.1,0-0.2,0-0.2,0c-0.6,0-1.1,0-1.5,0s-0.7,0.2-1,0.4c-0.3,0.2-0.4,0.4-0.6,0.7
				c-0.1,0.3-0.2,0.6-0.2,0.9v5.7H103.9z"/>
			<path d="M117.2,218.4c-1,0-1.9-0.2-2.7-0.6c-0.8-0.4-1.4-1-1.8-1.8c-0.4-0.8-0.6-1.7-0.6-2.8c0-1,0.2-2,0.6-2.8
				c0.4-0.8,1-1.5,1.7-2c0.7-0.5,1.6-0.7,2.7-0.7c1.1,0,1.9,0.2,2.6,0.7s1.3,1.1,1.6,1.8c0.4,0.8,0.5,1.7,0.5,2.7v0.8h-6.9
				c0,0.5,0.1,1,0.3,1.4s0.4,0.7,0.8,0.9s0.7,0.3,1.2,0.3c0.5,0,0.9-0.1,1.3-0.3c0.4-0.2,0.6-0.6,0.8-1h2.6
				c-0.1,0.7-0.4,1.4-0.9,1.9c-0.5,0.5-1,0.9-1.7,1.2C118.6,218.2,117.9,218.4,117.2,218.4z M114.9,211.9h4.2c0-0.4-0.1-0.8-0.2-1.1
				c-0.2-0.3-0.4-0.6-0.7-0.8s-0.7-0.3-1.2-0.3c-0.4,0-0.8,0.1-1.1,0.3c-0.3,0.2-0.6,0.5-0.7,0.8S114.9,211.5,114.9,211.9z"/>
			<path d="M128.9,218.4c-1,0-1.8-0.2-2.6-0.6c-0.8-0.4-1.3-1-1.8-1.8c-0.4-0.8-0.6-1.7-0.6-2.9c0-1.1,0.2-2,0.6-2.8
				c0.4-0.8,1-1.4,1.7-1.9c0.8-0.5,1.6-0.7,2.6-0.7c0.9,0,1.6,0.2,2.2,0.5s1.1,0.8,1.5,1.4s0.6,1.3,0.6,2h-2.4
				c0-0.3-0.1-0.5-0.3-0.8c-0.1-0.3-0.4-0.5-0.6-0.7s-0.6-0.3-1-0.3c-0.7,0-1.2,0.3-1.7,0.8c-0.4,0.5-0.6,1.3-0.6,2.4
				c0,1,0.2,1.8,0.6,2.4c0.4,0.6,1,0.9,1.7,0.9c0.4,0,0.7-0.1,1-0.3s0.5-0.4,0.6-0.7c0.1-0.3,0.2-0.5,0.3-0.8h2.4
				c0,0.7-0.3,1.4-0.6,1.9c-0.4,0.6-0.9,1-1.5,1.4C130.5,218.2,129.8,218.4,128.9,218.4z"/>
			<path d="M140.2,218.4c-1,0-1.8-0.2-2.6-0.6c-0.8-0.4-1.3-1-1.8-1.8c-0.4-0.8-0.6-1.7-0.6-2.9c0-1.1,0.2-2,0.6-2.8
				c0.4-0.8,1-1.4,1.7-1.9c0.8-0.5,1.6-0.7,2.6-0.7c0.9,0,1.6,0.2,2.2,0.5s1.1,0.8,1.5,1.4s0.6,1.3,0.6,2h-2.4
				c0-0.3-0.1-0.5-0.3-0.8c-0.1-0.3-0.4-0.5-0.6-0.7s-0.6-0.3-1-0.3c-0.7,0-1.2,0.3-1.7,0.8c-0.4,0.5-0.6,1.3-0.6,2.4
				c0,1,0.2,1.8,0.6,2.4c0.4,0.6,1,0.9,1.7,0.9c0.4,0,0.7-0.1,1-0.3s0.5-0.4,0.6-0.7c0.1-0.3,0.2-0.5,0.3-0.8h2.4
				c0,0.7-0.3,1.4-0.6,1.9c-0.4,0.6-0.9,1-1.5,1.4C141.8,218.2,141.1,218.4,140.2,218.4z"/>
			<path d="M147,206.3v-2.6h2.8v2.6H147z M147,218.2v-10.3h2.8v10.3H147z"/>
			<path d="M157.2,218.4c-1,0-1.9-0.2-2.6-0.7c-0.8-0.4-1.3-1-1.7-1.8c-0.4-0.8-0.6-1.7-0.6-2.8c0-1.1,0.2-2,0.6-2.8s1-1.4,1.7-1.9
				c0.8-0.5,1.6-0.7,2.7-0.7s1.9,0.2,2.6,0.7s1.3,1.1,1.7,1.9s0.6,1.8,0.6,2.9c0,1-0.2,2-0.6,2.8c-0.4,0.8-1,1.4-1.7,1.9
				C159.2,218.1,158.3,218.4,157.2,218.4z M157.3,216.2c0.5,0,0.9-0.2,1.2-0.5c0.3-0.3,0.5-0.7,0.7-1.2c0.1-0.5,0.2-1,0.2-1.6
				c0-0.5-0.1-1.1-0.2-1.5s-0.3-0.9-0.7-1.2c-0.3-0.3-0.7-0.4-1.3-0.4c-0.5,0-0.9,0.1-1.2,0.4c-0.3,0.3-0.5,0.7-0.7,1.1
				c-0.1,0.5-0.2,1-0.2,1.6c0,0.5,0.1,1.1,0.2,1.6c0.1,0.5,0.4,0.9,0.7,1.2C156.3,216,156.7,216.2,157.3,216.2z M156.2,206.6
				l2.1-2.9h3l-3,2.9H156.2z"/>
			<path d="M164.6,218.2v-10.3h2.9v1.5c0.2-0.3,0.4-0.5,0.6-0.7c0.3-0.2,0.6-0.4,1-0.6c0.4-0.2,0.9-0.2,1.4-0.2
				c0.6,0,1.2,0.1,1.8,0.4c0.5,0.2,1,0.6,1.3,1.2c0.3,0.5,0.5,1.2,0.5,2.1v6.8h-2.9v-6.5c0-0.6-0.2-1-0.5-1.3
				c-0.3-0.3-0.7-0.4-1.2-0.4c-0.3,0-0.6,0.1-0.9,0.2c-0.3,0.1-0.5,0.3-0.7,0.5c-0.2,0.2-0.3,0.5-0.3,0.8v6.6H164.6z"/>
			<path d="M188,218.4c-1.3,0-2.5-0.3-3.5-0.9c-1-0.6-1.7-1.5-2.3-2.6c-0.5-1.1-0.8-2.4-0.8-3.9c0-1.5,0.3-2.9,0.8-4
				c0.6-1.1,1.3-2,2.3-2.6s2.2-0.9,3.5-0.9c0.9,0,1.6,0.1,2.4,0.4s1.3,0.6,1.8,1.1c0.5,0.5,0.9,1,1.2,1.6c0.3,0.6,0.5,1.2,0.5,1.9
				H191c-0.1-0.5-0.3-0.9-0.5-1.3c-0.3-0.4-0.6-0.7-1-0.9c-0.4-0.2-0.9-0.3-1.4-0.3c-0.6,0-1.2,0.2-1.7,0.5s-0.9,0.9-1.2,1.6
				c-0.3,0.7-0.4,1.7-0.4,2.9c0,1,0.1,1.7,0.3,2.4c0.2,0.6,0.5,1.1,0.8,1.5s0.7,0.6,1.1,0.8c0.4,0.2,0.9,0.2,1.3,0.2
				c0.4,0,0.8-0.1,1.1-0.2c0.3-0.1,0.6-0.3,0.9-0.6c0.2-0.2,0.4-0.5,0.6-0.7c0.1-0.3,0.2-0.5,0.3-0.8l0.1-0.9h-3v-2l6.1,0v7.5h-2
				v-1.9c-0.2,0.3-0.6,0.7-0.9,1s-0.8,0.6-1.4,0.8S188.8,218.4,188,218.4z"/>
			<path d="M202.1,218.4c-1,0-1.9-0.2-2.7-0.6c-0.8-0.4-1.4-1-1.8-1.8c-0.4-0.8-0.6-1.7-0.6-2.8c0-1,0.2-2,0.6-2.8
				c0.4-0.8,1-1.5,1.7-2c0.7-0.5,1.6-0.7,2.7-0.7c1.1,0,1.9,0.2,2.6,0.7s1.3,1.1,1.6,1.8c0.4,0.8,0.5,1.7,0.5,2.7v0.8h-6.9
				c0,0.5,0.1,1,0.3,1.4s0.4,0.7,0.8,0.9s0.7,0.3,1.2,0.3c0.5,0,0.9-0.1,1.3-0.3c0.4-0.2,0.6-0.6,0.8-1h2.6
				c-0.1,0.7-0.4,1.4-0.9,1.9c-0.5,0.5-1,0.9-1.7,1.2C203.6,218.2,202.9,218.4,202.1,218.4z M199.9,211.9h4.2c0-0.4-0.1-0.8-0.2-1.1
				c-0.2-0.3-0.4-0.6-0.7-0.8s-0.7-0.3-1.2-0.3c-0.4,0-0.8,0.1-1.1,0.3c-0.3,0.2-0.6,0.5-0.7,0.8S199.9,211.5,199.9,211.9z"/>
			<path d="M209.3,218.2v-10.3h2.9v1.5c0.2-0.3,0.4-0.5,0.6-0.7c0.3-0.2,0.6-0.4,1-0.6c0.4-0.2,0.9-0.2,1.4-0.2
				c0.6,0,1.2,0.1,1.8,0.4c0.5,0.2,1,0.6,1.3,1.2c0.3,0.5,0.5,1.2,0.5,2.1v6.8h-2.9v-6.5c0-0.6-0.2-1-0.5-1.3
				c-0.3-0.3-0.7-0.4-1.2-0.4c-0.3,0-0.6,0.1-0.9,0.2c-0.3,0.1-0.5,0.3-0.7,0.5c-0.2,0.2-0.3,0.5-0.3,0.8v6.6H209.3z"/>
			<path d="M226.3,218.4c-1,0-1.9-0.2-2.7-0.6c-0.8-0.4-1.4-1-1.8-1.8c-0.4-0.8-0.6-1.7-0.6-2.8c0-1,0.2-2,0.6-2.8
				c0.4-0.8,1-1.5,1.7-2c0.7-0.5,1.6-0.7,2.7-0.7c1.1,0,1.9,0.2,2.6,0.7s1.3,1.1,1.6,1.8c0.4,0.8,0.5,1.7,0.5,2.7v0.8h-6.9
				c0,0.5,0.1,1,0.3,1.4s0.4,0.7,0.8,0.9s0.7,0.3,1.2,0.3c0.5,0,0.9-0.1,1.3-0.3c0.4-0.2,0.6-0.6,0.8-1h2.6
				c-0.1,0.7-0.4,1.4-0.9,1.9c-0.5,0.5-1,0.9-1.7,1.2C227.7,218.2,227.1,218.4,226.3,218.4z M224.1,211.9h4.2c0-0.4-0.1-0.8-0.2-1.1
				c-0.2-0.3-0.4-0.6-0.7-0.8s-0.7-0.3-1.2-0.3c-0.4,0-0.8,0.1-1.1,0.3c-0.3,0.2-0.6,0.5-0.7,0.8S224,211.5,224.1,211.9z"/>
			<path d="M233.5,218.2v-10.3h2.8v2.5c0.2-0.5,0.4-1,0.7-1.4c0.3-0.4,0.7-0.7,1.1-0.9c0.4-0.2,0.9-0.3,1.5-0.3c0.1,0,0.2,0,0.3,0
				c0.1,0,0.1,0,0.2,0v2.8c-0.1,0-0.1,0-0.2,0c-0.1,0-0.2,0-0.2,0c-0.6,0-1.1,0-1.5,0s-0.7,0.2-1,0.4c-0.3,0.2-0.4,0.4-0.6,0.7
				c-0.1,0.3-0.2,0.6-0.2,0.9v5.7H233.5z"/>
			<path d="M245,218.4c-0.7,0-1.2-0.1-1.8-0.4c-0.5-0.2-0.9-0.6-1.3-1.1s-0.5-1-0.5-1.7c0-1.1,0.4-2,1.3-2.6s2.2-0.9,4-0.9l1.3,0
				v-0.6c0-0.5-0.1-0.8-0.4-1.1c-0.3-0.3-0.7-0.4-1.3-0.4c-0.4,0-0.8,0.1-1.2,0.3c-0.4,0.2-0.6,0.5-0.8,1H242c0-0.7,0.3-1.4,0.7-1.8
				c0.4-0.5,0.9-0.8,1.6-1.1c0.7-0.2,1.4-0.4,2.3-0.4c1.1,0,1.9,0.1,2.5,0.4c0.6,0.3,1.1,0.6,1.4,1.1c0.3,0.5,0.4,1.1,0.4,1.7v7.3
				h-2.4l-0.2-1.8c-0.4,0.7-0.8,1.3-1.3,1.5C246.4,218.2,245.7,218.4,245,218.4z M246,216.4c0.3,0,0.5,0,0.8-0.1s0.5-0.2,0.7-0.4
				s0.4-0.3,0.5-0.6c0.1-0.2,0.2-0.4,0.2-0.6v-1.5l-1.1,0c-0.5,0-0.9,0.1-1.4,0.2c-0.4,0.1-0.8,0.3-1,0.5c-0.3,0.2-0.4,0.6-0.4,1
				c0,0.5,0.2,0.9,0.5,1.1C245.1,216.3,245.5,216.4,246,216.4z"/>
			<path d="M257,218.3c-0.8,0-1.4-0.1-1.8-0.3c-0.4-0.2-0.8-0.4-1-0.7s-0.4-0.6-0.4-1s-0.1-0.7-0.1-1.1v-12h2.9v11.6
				c0,0.4,0.1,0.7,0.2,0.9c0.2,0.2,0.5,0.4,0.9,0.4l0.5,0v1.8c-0.2,0.1-0.4,0.1-0.6,0.2C257.4,218.3,257.2,218.3,257,218.3z"/>
			<path d="M126.7,242.4c-1.4,0-2.5-0.5-3.2-1.4c-0.8-1-1.2-2.3-1.2-4c0-1.1,0.2-2,0.5-2.8c0.3-0.8,0.8-1.4,1.4-1.8
				c0.6-0.4,1.4-0.7,2.2-0.7c0.4,0,0.7,0,1,0.1s0.6,0.2,0.9,0.3c0.3,0.1,0.5,0.3,0.7,0.5s0.4,0.4,0.5,0.6v-5.9h2.9v14.9h-2.1
				L130,240c-0.1,0.3-0.2,0.6-0.4,0.8c-0.2,0.3-0.4,0.5-0.6,0.7c-0.3,0.2-0.6,0.4-1,0.5S127.2,242.4,126.7,242.4z M127.4,240.3
				c0.7,0,1.3-0.3,1.6-0.8s0.5-1.4,0.5-2.6c0-0.7-0.1-1.3-0.2-1.8c-0.2-0.5-0.4-0.8-0.7-1c-0.3-0.2-0.7-0.3-1.2-0.3
				c-0.6,0-1.2,0.2-1.6,0.7c-0.4,0.5-0.6,1.3-0.6,2.4c0,1.2,0.2,2,0.6,2.5C126.2,240,126.7,240.3,127.4,240.3z"/>
			<path d="M140.1,242.4c-1,0-1.9-0.2-2.7-0.6c-0.8-0.4-1.4-1-1.8-1.8c-0.4-0.8-0.6-1.7-0.6-2.8c0-1,0.2-2,0.6-2.8
				c0.4-0.8,1-1.5,1.7-2c0.7-0.5,1.6-0.7,2.7-0.7c1.1,0,1.9,0.2,2.6,0.7s1.3,1.1,1.6,1.8c0.4,0.8,0.5,1.7,0.5,2.7v0.8h-6.9
				c0,0.5,0.1,1,0.3,1.4s0.4,0.7,0.8,0.9s0.7,0.3,1.2,0.3c0.5,0,0.9-0.1,1.3-0.3c0.4-0.2,0.6-0.6,0.8-1h2.6
				c-0.1,0.7-0.4,1.4-0.9,1.9c-0.5,0.5-1,0.9-1.7,1.2C141.6,242.2,140.9,242.4,140.1,242.4z M137.9,235.9h4.2c0-0.4-0.1-0.8-0.2-1.1
				c-0.2-0.3-0.4-0.6-0.7-0.8s-0.7-0.3-1.2-0.3c-0.4,0-0.8,0.1-1.1,0.3c-0.3,0.2-0.6,0.5-0.7,0.8S137.9,235.5,137.9,235.9z"/>
			<path d="M152.5,242.2v-14.5h6.1c1.2,0,2.1,0.2,2.8,0.5c0.7,0.4,1.3,0.9,1.6,1.5c0.3,0.6,0.5,1.4,0.5,2.2c0,0.8-0.1,1.4-0.4,1.9
				s-0.5,1-0.9,1.3s-0.8,0.6-1.3,0.9l2.7,6.1h-3l-2.4-5.6h-2.9v5.6H152.5z M155.4,234.3h2.7c0.8,0,1.4-0.2,1.9-0.6
				c0.5-0.4,0.7-1,0.7-1.6c0-0.7-0.2-1.2-0.7-1.6c-0.4-0.4-1-0.6-1.7-0.6h-2.9V234.3z"/>
			<path d="M170.9,242.4c-1,0-1.9-0.2-2.7-0.6c-0.8-0.4-1.4-1-1.8-1.8c-0.4-0.8-0.6-1.7-0.6-2.8c0-1,0.2-2,0.6-2.8
				c0.4-0.8,1-1.5,1.7-2c0.7-0.5,1.6-0.7,2.7-0.7c1.1,0,1.9,0.2,2.6,0.7s1.3,1.1,1.6,1.8c0.4,0.8,0.5,1.7,0.5,2.7v0.8h-6.9
				c0,0.5,0.1,1,0.3,1.4s0.4,0.7,0.8,0.9s0.7,0.3,1.2,0.3c0.5,0,0.9-0.1,1.3-0.3c0.4-0.2,0.6-0.6,0.8-1h2.6
				c-0.1,0.7-0.4,1.4-0.9,1.9c-0.5,0.5-1,0.9-1.7,1.2C172.3,242.2,171.6,242.4,170.9,242.4z M168.6,235.9h4.2c0-0.4-0.1-0.8-0.2-1.1
				c-0.2-0.3-0.4-0.6-0.7-0.8s-0.7-0.3-1.2-0.3c-0.4,0-0.8,0.1-1.1,0.3c-0.3,0.2-0.6,0.5-0.7,0.8S168.6,235.5,168.6,235.9z"/>
			<path d="M178,242.2v-10.3h2.9v1.5c0.2-0.3,0.4-0.5,0.6-0.7c0.3-0.2,0.6-0.4,1-0.6c0.4-0.2,0.9-0.2,1.4-0.2c0.6,0,1.2,0.1,1.8,0.4
				c0.5,0.2,1,0.6,1.3,1.2c0.3,0.5,0.5,1.2,0.5,2.1v6.8h-2.9v-6.5c0-0.6-0.2-1-0.5-1.3c-0.3-0.3-0.7-0.4-1.2-0.4
				c-0.3,0-0.6,0.1-0.9,0.2c-0.3,0.1-0.5,0.3-0.7,0.5c-0.2,0.2-0.3,0.5-0.3,0.8v6.6H178z"/>
			<path d="M194.4,242.3c-0.9,0-1.6-0.1-2.1-0.4c-0.5-0.2-0.8-0.6-1-1s-0.3-0.9-0.3-1.5v-5.6h-1.7v-2h1.8l0.7-3.1h2.1v3.1h2.3v2
				h-2.3l0,5.5c0,0.3,0,0.4,0.1,0.6c0.1,0.1,0.2,0.2,0.3,0.2c0.1,0,0.3,0.1,0.5,0.1h1.4v1.8c-0.1,0.1-0.4,0.1-0.6,0.2
				C195.3,242.3,194.9,242.3,194.4,242.3z"/>
			<path d="M201.7,242.4c-0.7,0-1.2-0.1-1.8-0.4c-0.5-0.2-0.9-0.6-1.3-1.1s-0.5-1-0.5-1.7c0-1.1,0.4-2,1.3-2.6s2.2-0.9,4-0.9l1.3,0
				v-0.6c0-0.5-0.1-0.8-0.4-1.1c-0.3-0.3-0.7-0.4-1.3-0.4c-0.4,0-0.8,0.1-1.2,0.3c-0.4,0.2-0.6,0.5-0.8,1h-2.4
				c0-0.7,0.3-1.4,0.7-1.8c0.4-0.5,0.9-0.8,1.6-1.1c0.7-0.2,1.4-0.4,2.3-0.4c1.1,0,1.9,0.1,2.5,0.4c0.6,0.3,1.1,0.6,1.4,1.1
				c0.3,0.5,0.4,1.1,0.4,1.7v7.3h-2.4l-0.2-1.8c-0.4,0.7-0.8,1.3-1.3,1.5C203.1,242.2,202.4,242.4,201.7,242.4z M202.7,240.4
				c0.3,0,0.5,0,0.8-0.1s0.5-0.2,0.7-0.4s0.4-0.3,0.5-0.6c0.1-0.2,0.2-0.4,0.2-0.6v-1.5l-1.1,0c-0.5,0-0.9,0.1-1.4,0.2
				c-0.4,0.1-0.8,0.3-1,0.5c-0.3,0.2-0.4,0.6-0.4,1c0,0.5,0.2,0.9,0.5,1.1C201.8,240.3,202.2,240.4,202.7,240.4z"/>
			<path d="M214.4,242.4c-0.7,0-1.4-0.1-2.1-0.4c-0.7-0.2-1.2-0.6-1.7-1.1c-0.5-0.5-0.8-1.2-0.9-2h2.5c0.1,0.4,0.3,0.7,0.5,0.9
				c0.2,0.2,0.5,0.4,0.8,0.5c0.3,0.1,0.6,0.1,0.8,0.1c0.6,0,1-0.1,1.4-0.3c0.3-0.2,0.5-0.4,0.5-0.8c0-0.3-0.1-0.5-0.3-0.7
				c-0.2-0.2-0.5-0.3-1-0.4l-1.8-0.4c-0.9-0.2-1.6-0.5-2.2-1s-0.8-1.1-0.8-2c0-0.6,0.2-1.2,0.5-1.7c0.3-0.5,0.8-0.9,1.5-1.2
				c0.6-0.3,1.4-0.4,2.4-0.4c1.3,0,2.3,0.3,3.1,0.8c0.8,0.6,1.2,1.4,1.2,2.4h-2.4c-0.1-0.4-0.3-0.7-0.6-0.9
				c-0.3-0.2-0.7-0.3-1.2-0.3c-0.5,0-0.9,0.1-1.2,0.3c-0.3,0.2-0.5,0.5-0.5,0.8c0,0.3,0.1,0.5,0.4,0.6c0.3,0.2,0.7,0.3,1.2,0.4
				l1.7,0.4c0.6,0.1,1.1,0.3,1.4,0.6c0.4,0.2,0.6,0.5,0.8,0.8c0.2,0.3,0.3,0.6,0.4,0.9s0.1,0.6,0.1,0.8c0,0.7-0.2,1.3-0.5,1.8
				c-0.4,0.5-0.9,0.9-1.5,1.1C216.1,242.2,215.3,242.4,214.4,242.4z"/>
		</g>
		<g>
			<path fill="#FF8540" d="M204.8,123.4c-1.6-0.8-3.5-0.3-4.4,1.2c-4,5.9-9.9,9-17.6,9.4c-11.5,0.5-23.9-5.6-30.6-12.1l9.2-9.2
				c1-1,1.3-2.4,0.8-3.7s-1.7-2.2-3.1-2.2l-45.8-2.3c-1-0.1-2,0.3-2.6,1c-0.7,0.7-1.1,1.7-1,2.7l2.5,45.6c0.1,1.4,1,2.6,2.2,3.1
				c1.3,0.5,2.7,0.2,3.7-0.8l9.2-9.2c10.8,8.1,23.6,12.5,36.1,12.5c4.6,0,9.2-0.6,13.4-1.9c14.2-4.1,24.8-14.7,29.7-29.8
				C207.1,126,206.4,124.2,204.8,123.4z M144.9,119.3c-1.3,1.3-1.4,3.3-0.2,4.7c7.1,8.7,23,17.7,38.4,17c3.4-0.1,6.5-0.8,9.4-1.8
				c-4.6,5.6-10.6,9.5-17.6,11.5c-14.6,4.2-32.1-0.1-45.6-11.3c-0.6-0.5-1.4-0.8-2.2-0.8c-0.9,0-1.8,0.4-2.5,1l-5.9,5.9l-1.8-33.9
				l34,1.7L144.9,119.3z"/>
			<path fill="#FF8540" d="M228.8,63.3c-0.1-1.4-1-2.6-2.2-3.1s-2.7-0.2-3.7,0.8l-9.2,9.2c-14.9-11.1-33.8-15.2-49.5-10.7
				c-14.2,4.1-24.8,14.7-29.7,29.8c-0.5,1.6,0.2,3.5,1.8,4.2c1.6,0.8,3.5,0.3,4.4-1.2c4-5.9,9.9-9,17.6-9.4
				c11.5-0.5,23.9,5.6,30.6,12.1l-9.2,9.2c-1,1-1.3,2.4-0.8,3.7c0.5,1.3,1.7,2.2,3.1,2.2l45.8,2.3l0.2,0c0.9,0,1.8-0.4,2.5-1
				c0.7-0.7,1.1-1.7,1-2.7L228.8,63.3z M196.1,97.7c1.3-1.3,1.4-3.3,0.2-4.7c-7.1-8.7-23-17.6-38.4-17c-3.4,0.1-6.5,0.8-9.4,1.8
				c4.6-5.5,10.6-9.5,17.6-11.5c14.6-4.2,32.1,0.1,45.6,11.3c1.4,1.2,3.4,1.1,4.7-0.2l5.9-5.9l1.8,33.9l-34-1.7L196.1,97.7z"/>
		</g>
	</g>
</g>
<g id="Capa_2">
</g>
</svg>
